<svg width="19" height="19" viewBox="0 0 19 19" fill="none" xmlns="http://www.w3.org/2000/svg">
<path d="M9.49998 4.4873C7.88786 4.4873 6.5769 5.79862 6.5769 7.41038C6.5769 9.02214 7.88786 10.3335 9.49998 10.3335C11.1121 10.3335 12.4231 9.02214 12.4231 7.41038C12.4231 5.79862 11.1121 4.4873 9.49998 4.4873ZM9.49998 9.60269C8.29107 9.60269 7.30767 8.61929 7.30767 7.41038C7.30767 6.20147 8.29107 5.21807 9.49998 5.21807C10.7089 5.21807 11.6923 6.20147 11.6923 7.41038C11.6923 8.61929 10.7089 9.60269 9.49998 9.60269Z" fill="white"/>
<path d="M9.51005 0.730881C9.5022 0.730524 9.49577 0.730524 9.48793 0.730881C9.47936 0.730524 9.47294 0.730167 9.4658 0.730881C5.79411 0.749079 2.81323 3.73852 2.81323 7.41021C2.81323 9.15328 3.57183 10.5927 4.21268 11.4972C4.21625 11.5033 4.22053 11.5094 4.22553 11.5154L9.03476 18.0463C9.13753 18.1866 9.32593 18.2693 9.50006 18.2693C9.67419 18.2693 9.83832 18.1866 9.94109 18.0463L14.7503 11.5154C14.7553 11.5094 14.7596 11.5033 14.7632 11.4972C15.404 10.5927 16.1626 9.15328 16.1626 7.41021C16.1626 3.73852 13.1817 0.749079 9.51005 0.730881ZM13.8611 10.8746C13.8611 10.8749 13.8611 10.8749 13.8611 10.8749L9.48793 16.8135L5.11473 10.8749C5.11473 10.8749 5.11473 10.8749 5.11473 10.8746C4.56451 10.101 3.90939 8.87211 3.90939 7.41021C3.90939 4.33549 6.4107 1.83346 9.48793 1.82703C12.5651 1.83346 15.0665 4.33549 15.0665 7.41021C15.0665 8.87211 14.4113 10.101 13.8611 10.8746Z" fill="white"/>
</svg>
