<svg width="25" height="21" viewBox="0 0 25 21" fill="none" xmlns="http://www.w3.org/2000/svg">
<path d="M0.59082 6.81418V17.1431C0.59082 18.7196 1.87118 20 3.44775 20H21.1435C22.7201 20 24.0004 18.7196 24.0004 17.1431V6.81418C24.0004 5.31406 22.7822 4.0958 21.282 4.0958H17.4792L17.3884 3.69927C17.0205 2.10837 15.6207 1 13.9868 1H10.5996C8.9705 1 7.5707 2.10837 7.19806 3.69927L7.10729 4.0958div.3092C1.80908 4.0958 0.59082 5.31883 0.59082 6.81418ZM7.57548 5.26628C7.8478 5.26628 8.08189 5.07996 8.144 4.81242L8.33988 3.96203C8.58831 2.90621 9.51513 2.17048 10.5996 2.17048H13.9868C15.0713 2.17048 15.9982 2.90621 16.2466 3.96203L16.4425 4.81242C16.5046 5.07518 16.7387 5.26628 17.011 5.26628H21.2773C22.1324 5.26628 22.8252 5.95901 22.8252 6.81418V17.1431C22.8252 18.0747 22.0703 18.8295 21.1387 18.8295div.44775C2.51614 18.8295 1.7613 18.0747 1.7613 17.1431V6.81418C1.7613 5.95901 2.45403 5.26628 3.3092 5.26628H7.57548Z" fill="#363636" stroke="#363636" stroke-width="0.2"/>
<path d="M4.55108 8.54845C4.9838 8.54845 5.33459 8.19767 5.33459 7.76495C5.33459 7.33223 4.9838 6.98145 4.55108 6.98145C4.11837 6.98145 3.76758 7.33223 3.76758 7.76495C3.76758 8.19767 4.11837 8.54845 4.55108 8.54845Z" fill="#363636" stroke="#363636" stroke-width="0.2"/>
<path d="M12.2949 16.9949C15.0037 16.9949 17.2109 14.7877 17.2109 12.0789C17.2109 9.37003 15.0037 7.16284 12.2949 7.16284C9.5861 7.16284 7.37891 9.36526 7.37891 12.0789C7.37891 14.7925 9.5861 16.9949 12.2949 16.9949ZM12.2949 8.33332C14.3588 8.33332 16.0405 10.015 16.0405 12.0789C16.0405 14.1427 14.3588 15.8244 12.2949 15.8244C10.2311 15.8244 8.54939 14.1427 8.54939 12.0789C8.54939 10.015 10.2311 8.33332 12.2949 8.33332Z" fill="#363636" stroke="#363636" stroke-width="0.2"/>
</svg>
