<svg width="20" height="20" viewBox="0 0 20 20" fill="none" xmlns="http://www.w3.org/2000/svg">
<path d="M10.5649 9.76953L18.6047 1.72974C18.8245 1.51001 18.8245 1.15405 18.6047 0.934326C18.385 0.7146 18.0291 0.7146 17.8093 0.934326L9.76953 8.97412L1.72974 0.934326C1.51001 0.7146 1.15405 0.7146 0.934326 0.934326C0.7146 1.15405 0.7146 1.51001 0.934326 1.72974L8.97412 9.76953L0.934326 17.8093C0.7146 18.0291 0.7146 18.385 0.934326 18.6047C1.04419 18.7146 1.18774 18.7695 1.33203 18.7695C1.47632 18.7695 1.61987 18.7146 1.72974 18.6047L9.76953 10.5649L17.8093 18.6047C17.9192 18.7146 18.0627 18.7695 18.207 18.7695C18.3513 18.7695 18.4949 18.7146 18.6047 18.6047C18.8245 18.385 18.8245 18.0291 18.6047 17.8093L10.5649 9.76953Z" fill="white" stroke="white"/>
</svg>
