<svg width="18" height="18" viewBox="0 0 18 18" fill="none" xmlns="http://www.w3.org/2000/svg">
<path d="M17.7538 9.03536C17.7538 10.2588 17.7292 11.4857 17.7608 12.7092C17.8136 14.8748 16.453 16.5482 14.7198 17.2936C14.0237 17.5924 13.2925 17.7506 12.5366 17.7506C10.1706 17.7541 7.80107 17.7857 5.43506 17.74C3.65264 17.7049 2.18662 16.9596 1.13545 15.49C0.583496 14.7166 0.319824 13.8377 0.319824 12.885C0.319824 10.3643 0.319824 7.84707 0.319824 5.32637C0.319824 3.26973 1.32178 1.83184 3.10068 0.896682C3.87412 0.492385 4.71435 0.320119 5.58974 0.316604C7.88545 0.316604 10.1847 0.302541 12.4804 0.323635C14.2628 0.337697 15.7499 1.01973 16.8468 2.4541C17.4585 3.25567 17.7538 4.17676 17.7538 5.18926C17.7538 6.46895 17.7538 7.75215 17.7538 9.03536ZM1.61709 9.03536C1.61709 10.3256 1.61709 11.6123 1.61709 12.9025C1.61709 13.4791 1.75068 14.0205 2.04951 14.5092C2.8335 15.7924 4.01826 16.4182 5.48779 16.4428C7.84678 16.4779 10.2093 16.4568 12.5718 16.4498C13.1519 16.4498 13.7144 16.3303 14.2382 16.0807C15.6655 15.3986 16.4636 14.3123 16.4565 12.6811C16.4425 10.185 16.453 7.68887 16.453 5.19278C16.453 4.48614 16.2526 3.83926 15.8343 3.26973C15.0257 2.17637 13.9077 1.63848 12.5718 1.62442C10.2163 1.59629 7.86084 1.61387 5.50537 1.61739C5.00264 1.61739 4.51748 1.71934 4.04639 1.89512C2.75264 2.37676 1.55029 3.59668 1.60654 5.39317C1.64873 6.60957 1.61709 7.82247 1.61709 9.03536Z" fill="white"/>
<path d="M9.05626 12.7617C6.78868 12.7617 4.96055 10.9547 4.95704 8.70469C4.95352 6.48985 6.79571 4.67579 9.04922 4.67579C11.3098 4.67227 13.1449 6.48282 13.1484 8.71524C13.1484 10.9441 11.3168 12.7582 9.05626 12.7617ZM9.05626 11.4609C10.5996 11.4609 11.8512 10.227 11.8477 8.70821C11.8441 7.20352 10.5926 5.97305 9.05626 5.97305C7.5129 5.97305 6.2543 7.20001 6.2543 8.71524C6.25782 10.234 7.5129 11.4645 9.05626 11.4609Z" fill="white"/>
<path d="M13.623 3.44531C14.0976 3.44531 14.4843 3.84961 14.4843 4.34531C14.4808 4.84102 14.0906 5.2418 13.6159 5.23828C13.1484 5.23477 12.7652 4.83398 12.7652 4.34883C12.7616 3.85312 13.1484 3.44531 13.623 3.44531Z" fill="white"/>
</svg>
