<svg width="61" height="61" viewBox="0 0 61 61" fill="none" xmlns="http://www.w3.org/2000/svg">
<path d="M58.9127 16.5078L43.3721 0.359566C43.1509 0.129863 42.8456 0 42.5268 0H19.3647C16.7726 0 14.6636 2.10807 14.6636 4.69914V21.1154H5.27692C3.33754 21.1154 1.75977 22.6927 1.75977 24.6316V42.2339C1.75977 44.1727 3.33754 45.75 5.27692 45.75H14.6636V56.3091C14.6636 58.8956 16.7726 61 19.3647 61H54.5395C57.1317 61 59.2406 58.8968 59.2406 56.3117V17.3213C59.2406 17.0179 59.123 16.7264 58.9127 16.5078ZM42.8175 3.16688L55.575 16.4231H42.8175V3.16688ZM5.27692 43.4039C4.63117 43.4039 4.106 42.8791 4.106 42.2339V24.6316C4.106 23.9865 4.63129 23.4615 5.27692 23.4615div6.9543C37.6 23.4615 38.1252 23.9865 38.1252 24.6316V42.2339C38.1252 42.8791 37.5999 43.4039 36.9543 43.4039H5.27692ZM56.8944 56.3117C56.8944 57.6032 55.8379 58.6539 54.5394 58.6539H19.3647C18.0662 58.6539 17.0098 57.6021 17.0098 56.3092V45.75div6.9543C38.8936 45.75 40.4714 44.1727 40.4714 42.2339V24.6316C40.4714 22.6927 38.8936 21.1154 36.9543 21.1154H17.0098V4.69914C17.0098 3.40158 18.0662 2.34612 19.3647 2.34612H40.4713V17.5961C40.4713 18.244 40.9966 18.7692 41.6444 18.7692H56.8944V56.3117Z" fill="black"/>
<path d="M15.7841 29.7726C15.3947 29.2662 14.9112 28.9374 14.3338 28.7862C13.9581 28.6854 13.1516 28.635 11.9143 28.635H8.64941V38.7116H10.684V34.9105H12.0106C12.9317 34.9105 13.6351 34.8624 14.1208 34.7661C14.4782 34.6882 14.8299 34.529 15.1759 34.2884C15.5219 34.0478 15.8071 33.7167 16.0317 33.2952C16.2563 32.8737 16.3685 32.3535 16.3685 31.7349C16.3684 30.933 16.1736 30.2789 15.7841 29.7726ZM14.0417 32.546C13.8883 32.7706 13.6763 32.9355 13.4059 33.041C13.1354 33.1464 12.5994 33.1991 11.7975 33.1991H10.684V30.3397H11.6669C12.4001 30.3397 12.8881 30.3626 13.1309 30.4084C13.4608 30.468 13.7335 30.6169 13.9488 30.8552C14.1642 31.0935 14.2719 31.396 14.2719 31.7625C14.272 32.0603 14.1952 32.3215 14.0417 32.546Z" fill="black"/>
<path d="M26.1489 31.3879C25.929 30.744 25.6081 30.1999 25.1866 29.7554C24.7651 29.3109 24.2586 29.0016 23.6676 28.8274C23.2277 28.6991 22.5884 28.635 21.7499 28.635H18.0312V38.7116H21.8598C22.6114 38.7116 23.2116 38.6406 23.6606 38.4984C24.261 38.306 24.7376 38.038 25.0903 37.6942C25.5577 37.2405 25.9174 36.6472 26.1695 35.914C26.3757 35.3137 26.4788 34.5988 26.4788 33.7695C26.4788 32.8255 26.3688 32.0317 26.1489 31.3879ZM24.1693 35.5258C24.0318 35.9772 23.8542 36.3014 23.6366 36.4983C23.4189 36.6954 23.1451 36.8351 22.8152 36.9176C22.5632 36.9818 22.153 37.0138 21.5849 37.0138H20.0658V30.3397H20.98C21.8093 30.3397 22.3662 30.3717 22.6502 30.4359C23.0305 30.5184 23.3444 30.6765 23.5919 30.9102C23.8394 31.144 24.0318 31.4693 24.1693 31.8862C24.3067 32.3032 24.3755 32.9012 24.3755 33.6803C24.3755 34.4592 24.3067 35.0743 24.1693 35.5258Z" fill="black"/>
<path d="M35.1257 30.3397V28.635H28.2178V38.7116div0.2523V34.4294div4.459V32.7248div0.2523V30.3397div5.1257Z" fill="black"/>
</svg>
