<svg width="51" height="50" viewBox="0 0 51 50" fill="none" xmlns="http://www.w3.org/2000/svg">
<path d="M19.8374 38.1249C19.4624 38.1249 18.9624 37.9999 18.5874 37.8749C17.7124 37.3749 17.2124 36.4999 17.2124 35.4999V13.4999C17.2124 12.4999 17.7124 11.6249 18.5874 11.1249C19.4624 10.6249 20.4624 10.7499 21.3374 11.2499L25.8374 14.3749C26.4624 14.7499 26.5874 15.4999 26.2124 16.1249C25.8374 16.7499 25.0874 16.8749 24.4624 16.4999L19.9624 13.3749H19.8374C19.7124 13.3749 19.7124 13.4999 19.7124 13.4999V35.4999C19.7124 35.4999 19.7124 35.6249 19.8374 35.6249C19.9624 35.6249 19.9624 35.6249 19.9624 35.6249L35.9624 24.6249V24.3749L30.3374 20.4999C29.7124 20.1249 29.5874 19.3749 29.9624 18.7499C30.3374 18.1249 31.0874 17.9999 31.7124 18.3749L37.3374 22.2499C38.0874 22.7499 38.4624 23.4999 38.4624 24.3749C38.4624 25.2499 38.0874 25.9999 37.3374 26.4999L21.3374 37.4999C20.9624 37.9999 20.4624 38.1249 19.8374 38.1249Z" fill="#FFE24F"/>
<path d="M25.5874 50C11.8374 50 0.587402 38.75 0.587402 25C0.587402 11.25 11.8374 0 25.5874 0C39.3374 0 50.5874 11.25 50.5874 25C50.5874 38.75 39.3374 50 25.5874 50ZM25.5874 2.5C13.2124 2.5 3.0874 12.625 3.0874 25C3.0874 37.375 13.2124 47.5 25.5874 47.5C37.9624 47.5 48.0874 37.375 48.0874 25C48.0874 12.625 37.9624 2.5 25.5874 2.5Z" fill="#FFE24F"/>
</svg>
