<svg width="19" height="19" viewBox="0 0 19 19" fill="none" xmlns="http://www.w3.org/2000/svg">
<path d="M15.6071 0div.39284C1.51995 0.00222656 0.00222656 1.51995 0 3.39284V15.6071C0.00222656 17.48 1.51995 18.9977 3.39284 19H15.6071C17.48 18.9977 18.9977 17.48 19 15.6071V3.39284C18.9977 1.51995 17.48 0.00222656 15.6071 0ZM17.6428 15.6071C17.6428 16.7314 16.7314 17.6428 15.6071 17.6428div.39284C2.26855 17.6428 1.35713 16.7314 1.35713 15.6071V3.39284C1.35713 2.26855 2.26855 1.35713 3.39284 1.35713H15.6071C16.7314 1.35713 17.6428 2.26855 17.6428 3.39284V15.6071Z" fill="black"/>
<path d="M12.893 8.82147H10.1787V6.10717C10.1787 5.7324 9.87491 5.42859 9.50014 5.42859C9.12536 5.42859 8.82155 5.7324 8.82155 6.10717V8.82147H6.1073C5.73252 8.82147 5.42871 9.12528 5.42871 9.50005C5.42871 9.87483 5.73252 10.1786 6.1073 10.1786H8.82159V12.8929C8.82159 13.2677 9.1254 13.5715 9.50018 13.5715C9.87495 13.5715 10.1787 13.2676 10.1787 12.8929V10.1786H12.893C13.2678 10.1786 13.5716 9.87479 13.5716 9.50001C13.5716 9.12524 13.2678 8.82147 12.893 8.82147Z" fill="black"/>
</svg>
