<svg width="34" height="34" viewBox="0 0 34 34" fill="none" xmlns="http://www.w3.org/2000/svg">
<g clip-path="url(#clip0)">
<path fill-rule="evenodd" clip-rule="evenodd" d="M25.8105 12.5624C25.5724 12.3861 24.7167 12.3861 23.8699 12.3861C23.0052 12.4037 22.1404 12.4037 21.9374 12.4832C21.7526 12.5537 21.3379 13.5595 20.7999 14.5913C20.1818 15.7564 19.4324 16.8855 18.9557 16.8672C18.3295 16.8672 18.4797 14.953 18.5237 13.533C18.5322 12.6064 18.3823 12.3062 18.25 12.2274C17.9235 11.9977 17.0239 11.7778 17.0239 11.7778C17.0239 11.7778 14.3238 11.5744 13.9449 12.739C14.4652 12.8097 15.3476 12.6504 15.0034 16.2586C14.9771 16.4355 14.5887 17.9174 13.3359 15.9146C13.0182 15.4121 11.8188 12.4037 11.3953 12.3861C10.0096 12.3594 8.63388 12.2978 8.15788 12.5624C7.70758 12.8273 8.7574 14.8914 10.5308 17.6619C11.9684 19.9378 13.4949 21.7025 16.1416 22.1433C16.6443 22.1967 17.9327 22.2489 18.3475 22.0553C18.6205 21.9227 18.2765 19.9645 19.2206 19.77C19.6354 19.6909 21.2493 21.8171 21.8579 22.0553C22.2294 22.2052 23.0406 22.2668 23.8699 22.2313C24.7698 22.2052 25.7926 22.3199 25.8897 21.7025C26.1106 20.3526 23.1644 18.5875 23.0847 17.7586C23.014 17.1587 24.1612 16.0561 24.7431 15.209C25.4661 14.1856 26.2608 12.9507 25.8105 12.5624Z" fill="white"/>
</g>
<defs>
<clipPath id="clip0">
<rect width="34" height="34" fill="white"/>
</clipPath>
</defs>
</svg>
