<svg width="48" height="48" viewBox="0 0 48 48" fill="none" xmlns="http://www.w3.org/2000/svg">
<path d="M21 40.5C29.2843 40.5 36 33.7843 36 25.5C36 17.2157 29.2843 10.5 21 10.5C12.7157 10.5 6 17.2157 6 25.5C6 33.7843 12.7157 40.5 21 40.5Z" fill="#FFE24F"/>
<path d="M24 46.5C33.9411 46.5 42 38.4411 42 28.5C42 18.5589 33.9411 10.5 24 10.5C14.0589 10.5 6 18.5589 6 28.5C6 38.4411 14.0589 46.5 24 46.5Z" stroke="black" stroke-width="2" stroke-linecap="round" stroke-linejoin="round"/>
<path d="M19.9351 4.30518V10.3052" stroke="black" stroke-width="2" stroke-linecap="round" stroke-linejoin="round"/>
<path d="M41.4149 11.7L37.1699 15.93" stroke="black" stroke-width="2" stroke-linecap="round" stroke-linejoin="round"/>
<path d="M28.9351 10.3052V4.30518" stroke="black" stroke-width="2" stroke-linecap="round" stroke-linejoin="round"/>
<path d="M16.9351 4.30518H31.9351" stroke="black" stroke-width="2" stroke-linecap="round" stroke-linejoin="round"/>
<path d="M24 31.5C25.6569 31.5 27 30.1569 27 28.5C27 26.8431 25.6569 25.5 24 25.5C22.3431 25.5 21 26.8431 21 28.5C21 30.1569 22.3431 31.5 24 31.5Z" stroke="black" stroke-width="2" stroke-linecap="round" stroke-linejoin="round"/>
<path d="M26.115 26.385L32.49 20.01" stroke="black" stroke-width="2" stroke-linecap="round" stroke-linejoin="round"/>
</svg>
