<svg width="60" height="60" viewBox="0 0 60 60" fill="none" xmlns="http://www.w3.org/2000/svg">
<path d="M30.75 49.5C41.1053 49.5 49.5 41.1053 49.5 30.75C49.5 20.3947 41.1053 12 30.75 12C20.3947 12 12 20.3947 12 30.75C12 41.1053 20.3947 49.5 30.75 49.5Z" fill="#FFE24F"/>
<path d="M51.4902 25.5071C50.773 24.6422 49.7184 24.1571 48.6004 24.1571H33.6449L36.3871 9.20161C36.577 8.14692 36.3238 7.07114 35.6699 6.22739C35.0371 5.40474 34.0879 4.89849 33.0754 4.83521C32.9699 4.83521 32.8855 4.83521 32.8012 4.83521C32.316 4.83521 31.8309 4.89849 31.3457 4.98286C30.4598 5.15161 29.616 5.44692 28.8145 5.88989C28.7934 5.91099 28.7723 5.91099 28.7512 5.93208C26.9793 6.92349 25.6293 8.52661 24.9754 10.4461L20.0395 24.1571H5.12617C3.18555 24.1571 1.60352 25.7391 1.60352 27.6797V49.0899C1.6457 50.9883 3.22773 52.5282 5.12617 52.5282H14.3652C16.327 54.2368 18.816 55.1649 21.3895 55.1649C21.4105 55.1649 21.4316 55.1649 21.4527 55.1649H44.7824C46.723 55.1649 48.3262 53.604 48.3684 51.6633L52.3551 28.5868C52.5238 27.4899 52.2074 26.3719 51.4902 25.5071ZM13.2262 50.5243H5.12617C4.30352 50.5243 3.62852 49.8704 3.62852 49.0688V27.6797C3.62852 26.8571 4.30352 26.1821 5.12617 26.1821H13.2262V50.5243ZM50.3512 28.2493L46.3644 51.4102C46.3644 51.4735 46.3434 51.5157 46.3434 51.579C46.3434 52.4438 45.6262 53.161 44.7613 53.161H21.4316C21.4105 53.161 21.4105 53.161 21.3895 53.161C19.2801 53.161 17.234 52.3805 15.6309 50.9883L15.5676 50.904C15.4832 50.7985 15.3566 50.693 15.2301 50.6297V26.161H20.7355C21.1574 26.161 21.5371 25.8868 21.6848 25.5071L26.8738 11.1211C27.3801 9.64458 28.4137 8.42114 29.7848 7.66177C29.8059 7.64067 29.827 7.64067 29.848 7.61958C30.4387 7.30317 31.0504 7.07114 31.7043 6.94458C32.0629 6.8813 32.4426 6.83911 32.8012 6.83911C32.8223 6.83911 32.8645 6.83911 32.9066 6.83911C33.3496 6.8813 33.7715 7.09224 34.0457 7.45083C34.341 7.83052 34.4676 8.33677 34.3832 8.82192L31.4301 24.9797C31.3668 25.2751 31.4512 25.5704 31.641 25.8024C31.8309 26.0344 32.1051 26.161 32.4215 26.161H48.5793C49.1066 26.161 49.6129 26.393 49.9504 26.7938C50.2879 27.2157 50.4355 27.743 50.3512 28.2493Z" fill="#363636"/>
<path d="M6.30796 33.3328C6.56109 33.3328 6.81421 33.2274 7.00406 33.0375L10.9697 29.1563C11.3705 28.7766 11.3705 28.1227 10.9908 27.743C10.6111 27.3422 9.95718 27.3422 9.5775 27.7219L5.61187 31.6031C5.21109 31.9828 5.21109 32.6367 5.59078 33.0164C5.78062 33.2484 6.05484 33.3328 6.30796 33.3328Z" fill="#363636"/>
<path d="M6.30796 42.0235C6.56109 42.0235 6.81421 41.9181 7.00406 41.7282L11.2439 37.5728C11.6447 37.1931 11.6447 36.5603 11.265 36.1595C10.8853 35.7587 10.2314 35.7587 9.85171 36.1384L5.61187 40.2939C5.21109 40.6735 5.21109 41.3063 5.59078 41.7071C5.78062 41.9181 6.05484 42.0235 6.30796 42.0235Z" fill="#363636"/>
<path d="M9.85132 44.8078L7.06695 47.5289C6.66617 47.9086 6.66617 48.5625 7.04585 48.9422C7.2357 49.1531 7.50992 49.2375 7.76304 49.2375C8.01617 49.2375 8.26929 49.132 8.45913 48.9422L11.2435 46.2422C11.6443 45.8625 11.6443 45.2086 11.2646 44.8289C10.8849 44.4281 10.231 44.4281 9.85132 44.8078Z" fill="#363636"/>
</svg>
