<svg width="60" height="60" viewBox="0 0 60 60" fill="none" xmlns="http://www.w3.org/2000/svg">
<g clip-path="url(#clip0)">
<path d="M41.75 41.5C52.1053 41.5 60.5 33.1053 60.5 22.75C60.5 12.3947 52.1053 4 41.75 4C31.3947 4 23 12.3947 23 22.75C23 33.1053 31.3947 41.5 41.75 41.5Z" fill="#FFE24F"/>
<path d="M58.4317 52.2227C58.4317 52.2227 58.4102 52.2227 58.4317 52.2227H58.4102C58.3887 52.1797 58.3672 52.1367 58.3243 52.1152L50.4825 42.5332C56.3047 33.0371 54.8868 20.5762 46.9805 12.627C37.5059 3.15235 22.0801 3.10938 12.5626 12.584C3.13092 22.0801 3.1524 37.5059 12.6485 46.959C20.5762 54.8652 33.0372 56.3047 42.5547 50.4609L52.0938 58.2598C52.1368 58.3027 52.2227 58.3887 52.2657 58.4102C53.1036 59.1191 54.1133 59.4844 55.1231 59.4844C56.1544 59.4844 57.1641 59.1191 58.0235 58.4102L58.4532 58.002C58.5176 57.9375 58.5821 57.8516 58.6251 57.7656C59.8497 56.1328 59.8067 53.834 58.4317 52.2227ZM56.7774 56.5195C56.7559 56.541 56.7344 56.584 56.7129 56.6055L56.5411 56.7559C55.7032 57.4648 54.5001 57.4648 53.6407 56.7344L53.5762 56.6699C53.5547 56.6484 53.5333 56.627 53.4903 56.6055L43.3067 48.2695C43.1133 48.0977 42.8555 48.0117 42.6192 48.0117C42.4044 48.0117 42.1895 48.0762 41.9961 48.2051L41.9102 48.2695C33.209 53.9629 21.543 52.7598 14.1739 45.4121C5.55865 36.8184 5.53717 22.7891 14.1309 14.1094C22.7676 5.51563 36.7969 5.5586 45.4122 14.1738C52.7598 21.543 53.9629 33.209 48.2696 41.9102L48.2051 42.0176C47.9473 42.4258 47.9688 42.9414 48.2696 43.3066L56.6055 53.4902C56.6485 53.5332 56.6915 53.5762 56.7129 53.6191L56.7344 53.6406C57.4649 54.4785 57.4864 55.6816 56.7774 56.5195Z" fill="#363636"/>
<path d="M29.7715 43.5215C22.209 43.5215 16.0645 37.377 16.0645 29.8145C16.0645 23.0254 20.9414 17.3535 27.5371 16.3008V14.0879C19.6953 15.1836 13.873 21.8223 13.873 29.8145C13.873 38.5801 21.0059 45.7129 29.7715 45.7129C37.7637 45.7129 44.4238 39.8907 45.498 32.0489H43.2852C42.2324 38.6446 36.5605 43.5215 29.7715 43.5215Z" fill="#363636"/>
<path d="M31.3831 14.002L30.1799 13.8731V29.4063H45.7131L45.5842 28.2032C44.8323 20.7266 38.8596 14.7539 31.3831 14.002ZM32.3713 27.2149V16.3653C37.8499 17.418 42.1682 21.7578 43.2209 27.2149H32.3713Z" fill="#363636"/>
</g>
<defs>
<clipPath id="clip0">
<rect width="60" height="60" fill="white"/>
</clipPath>
</defs>
</svg>
