<svg width="58" height="58" viewBox="0 0 58 58" fill="none" xmlns="http://www.w3.org/2000/svg">
<path d="M42 36.5C50.2843 36.5 57 29.7843 57 21.5C57 13.2157 50.2843 6.5 42 6.5C33.7157 6.5 27 13.2157 27 21.5C27 29.7843 33.7157 36.5 42 36.5Z" fill="#FFE24F"/>
<path fill-rule="evenodd" clip-rule="evenodd" d="M9.63345 16.809C9.28192 17.1415 9.0625 17.6133 9.0625 18.1374V39.8626C9.0625 40.8705 9.85804 41.6875 10.8806 41.6875H48.9319C49.936 41.6875 50.75 40.872 50.75 39.8626V18.1374C50.75 17.6123 50.534 17.1389 50.1825 16.806L29.9062 34.4375L9.63345 16.809ZM10.8815 14.5C8.87589 14.5 7.25 16.1213 7.25 18.1142V39.8858C7.25 41.8819 8.8627 43.5 10.8815 43.5H48.931C50.9366 43.5 52.5625 41.8787 52.5625 39.8858V18.1142C52.5625 16.1181 50.9498 14.5 48.931 14.5H10.8815ZM29.9062 32.0813L48.0312 16.3125H11.7812L29.9062 32.0813Z" fill="#262324" stroke="#262324" stroke-width="0.5"/>
</svg>
