<svg width="48" height="48" viewBox="0 0 48 48" fill="none" xmlns="http://www.w3.org/2000/svg">
<path d="M32 36C40.2843 36 47 29.2843 47 21C47 12.7157 40.2843 6 32 6C23.7157 6 17 12.7157 17 21C17 29.2843 23.7157 36 32 36Z" fill="#FFE24F"/>
<path d="M46.2969 20.6152C46.2266 20.1758 46.1211 19.7188 45.998 19.2793C44.75 14.6738 41.3223 10.666 36.6113 8.27539C35.5039 7.71289 34.3438 7.25586 33.166 6.88672C30.9688 6.21875 28.7012 5.86719 26.3984 5.86719C23.6035 5.86719 20.9316 6.3418 18.418 7.27344C17.9609 7.44922 17.7148 7.95898 17.8906 8.43359C18.0664 8.89062 18.5762 9.13672 19.0508 8.96094C21.3535 8.09961 23.832 7.66016 26.3984 7.66016C28.5254 7.66016 30.6172 7.97656 32.6211 8.5918C33.7109 8.92578 34.7832 9.36523 35.7852 9.875C40.0566 12.0371 43.1504 15.6406 44.2578 19.7539C44.3633 20.1406 44.4512 20.5449 44.5215 20.9316C45.3125 25.3965 43.9062 30.0723 40.8301 33.1484C40.4785 33.5 40.2324 33.957 40.1094 34.4141L38.1055 41.3398H33.4648L32.9199 39.2129C32.8145 38.8262 32.4629 38.5449 32.0586 38.5449L20.7734 38.5098C20.3516 38.5273 20 38.791 19.8945 39.1777L19.332 41.3398H14.6914L13.3906 36.7695C13.1445 35.9258 12.5117 35.1875 11.7383 34.8711C9.06641 33.6406 6.67578 32.2344 4.61914 30.6699C4.4082 30.5117 4.28516 30.248 4.28516 29.9668L4.30273 21.4766L5.60352 21.459C5.88477 21.459 6.14844 21.3184 6.30664 21.1074L10.8418 15.0781C11.1582 14.6211 10.9473 14.1465 10.7715 13.7422C10.7188 13.584 10.6484 13.4258 10.5781 13.2852L10.5254 13.1621C10.3496 12.7578 10.1562 12.3535 9.98047 11.9668C9.62891 11.2461 9.25977 10.5254 8.87305 9.80469C8.83789 9.7168 8.78516 9.64648 8.75 9.59375C8.71484 9.52344 8.66211 9.45313 8.62695 9.36523C8.64453 9.36523 8.64453 9.36523 8.66211 9.36523C8.82031 9.36523 8.97852 9.34766 9.17187 9.34766C10.2617 9.33008 11.2812 9.50586 12.1777 9.82227C12.459 9.92773 13.0566 10.209 13.1621 10.2617C13.3555 10.3672 14.498 11.0352 14.7617 11.2285C15.9395 12.1074 16.8887 13.2676 17.5391 14.5684C17.7676 15.0078 18.2949 15.2012 18.7344 14.9727C19.1738 14.7441 19.3672 14.2168 19.1387 13.7773C18.3301 12.1953 17.1875 10.8242 15.7988 9.76953C15.3945 9.4707 14.0586 8.69727 13.9707 8.64453C13.5664 8.41602 12.7578 8.09961 12.7402 8.08203C11.668 7.69531 10.4902 7.50195 9.18945 7.50195C8.96094 7.50195 8.73242 7.50195 8.52148 7.51953C8.38086 7.51953 8.22266 7.53711 8.0293 7.55469C7.99414 7.55469 7.92383 7.57227 7.88867 7.57227C7.87109 7.57227 7.87109 7.57227 7.85352 7.57227C7.32617 7.69531 6.92188 8.04688 6.72852 8.53906C6.55273 9.01367 6.72852 9.4707 6.83398 9.76953C6.92188 9.98047 7.02734 10.1914 7.16797 10.4375C7.20312 10.4902 7.2207 10.5254 7.25586 10.5781C7.625 11.2812 7.99414 11.9844 8.32812 12.6699C8.50391 13.0391 8.67969 13.4258 8.83789 13.7949L8.89062 13.918C8.94336 14.0586 8.99609 14.1816 9.06641 14.3574L5.11133 19.6133L3.37109 19.6309C2.87891 19.6309 2.49219 20.0352 2.49219 20.5273L2.47461 29.9141C2.47461 30.7578 2.86133 31.5488 3.5293 32.041C5.69141 33.6758 8.20508 35.1699 11.0176 36.4531C11.2988 36.5762 11.5801 36.8926 11.668 37.209L13.1621 42.4297C13.2676 42.8164 13.6191 43.0801 14.0234 43.0801H20.0527C20.457 43.0801 20.8262 42.7988 20.9141 42.4121L21.4766 40.25L31.3555 40.3203L31.9004 42.4473C32.0059 42.8516 32.3574 43.1152 32.7617 43.1152H38.791C39.1953 43.1152 39.5469 42.8516 39.6523 42.4648L41.8496 34.8535C41.8848 34.6777 41.9902 34.5195 42.1133 34.3965C45.5762 30.9336 47.1758 25.6602 46.2969 20.6152Z" fill="black"/>
<path d="M11.2812 21.5469C11.2812 23.1992 12.6348 24.5527 14.2871 24.5527C15.9395 24.5527 17.293 23.1992 17.293 21.5469C17.293 19.8945 15.9395 18.541 14.2871 18.541C12.6348 18.541 11.2812 19.8945 11.2812 21.5469ZM15.5 21.5469C15.5 22.1973 14.9375 22.7598 14.2871 22.7598C13.6367 22.7598 13.0742 22.1973 13.0742 21.5469C13.0742 20.8965 13.6367 20.334 14.2871 20.334C14.9375 20.334 15.5 20.8965 15.5 21.5469Z" fill="black"/>
</svg>
