<svg width="60" height="60" viewBox="0 0 60 60" fill="none" xmlns="http://www.w3.org/2000/svg">
<g clip-path="url(#clip0)">
<path d="M26.25 50.625C36.6053 50.625 45 42.2303 45 31.875C45 21.5197 36.6053 13.125 26.25 13.125C15.8947 13.125 7.5 21.5197 7.5 31.875C7.5 42.2303 15.8947 50.625 26.25 50.625Z" fill="white"/>
<path d="M37.025 44.7313C37.2219 44.7969 37.5063 44.8844 37.8344 44.8625C38.3813 44.8406 38.8844 44.6219 39.2781 44.2281C39.6938 43.8125 39.9125 43.2656 39.8906 42.6969C39.8469 39.0438 42.1656 35.85 45.6219 34.7563C45.8625 34.6906 46.1031 34.5594 46.2781 34.4281C46.7375 34.0781 47.0219 33.575 47.1094 33.05C47.2188 32.4813 47.0656 31.9125 46.7156 31.4313C44.5281 28.5 44.5281 24.5625 46.6938 21.6531L46.8469 21.4781C46.9344 21.3688 46.9781 21.2813 47.0219 21.15C47.0438 21.1281 47.0656 21.0406 47.0656 21.0188C47.2406 20.4719 47.175 19.8813 46.9344 19.4C46.6719 18.875 46.2125 18.5031 45.6656 18.3281C42.2094 17.2344 39.8906 14.0625 39.9344 10.4313C39.9344 10.1688 39.8906 9.90626 39.8031 9.68751C39.6281 9.16251 39.2344 8.72501 38.7094 8.46251C38.1844 8.22189 37.6375 8.20001 37.1125 8.37501C36.2594 8.65939 35.3625 8.81251 34.4656 8.81251C31.7969 8.76876 29.2813 7.47814 27.75 5.31251C27.5969 5.09376 27.4219 4.91876 27.2469 4.80939C26.2844 4.13126 24.9281 4.35001 24.25 5.31251C22.7188 7.47814 20.2031 8.76876 17.5563 8.76876C16.6594 8.76876 15.7625 8.61564 14.9531 8.33126C14.2313 8.06876 13.2906 8.26564 12.7219 8.85626C12.3063 9.27189 12.0875 9.81876 12.1094 10.3875C12.1531 14.0406 9.83438 17.2125 6.37813 18.3063C6.13751 18.3719 5.91876 18.4813 5.67813 18.6563C4.73751 19.3563 4.54063 20.7125 5.24063 21.6531C7.42813 24.5844 7.42813 28.5219 5.24063 31.4531C5.10938 31.65 5.00001 31.8688 4.93438 32.0656C4.75938 32.6125 4.80313 33.1594 5.08751 33.7063C5.37188 34.2094 5.80938 34.5813 6.33438 34.7563C9.81251 35.8719 12.1094 39.0656 12.0656 42.6531C12.0438 42.9156 12.0875 43.1781 12.175 43.4406C12.35 43.9656 12.7438 44.4031 13.2688 44.6656C13.7719 44.9063 14.3625 44.9281 14.8875 44.7531C15.7625 44.4688 16.6594 44.3156 17.5563 44.3156C20.225 44.3156 22.6531 45.5844 24.2281 47.7719C24.3594 47.9688 24.5344 48.1438 24.7313 48.275C25.1031 48.5375 25.5188 48.6688 25.9781 48.6688C26.1094 48.6688 26.2188 48.6469 26.35 48.6469C26.9188 48.5375 27.4219 48.2313 27.7281 47.7719C29.85 44.7969 33.5906 43.5719 37.025 44.7313ZM26 46.525C24.0531 43.7906 20.9031 42.15 17.5781 42.15C16.4406 42.15 15.3031 42.3469 14.2313 42.7188C14.2969 38.125 11.3875 34.1 7.01251 32.7219C9.76876 29.025 9.76876 24.0375 6.99063 20.3625C11.3875 18.9844 14.3188 14.9594 14.2313 10.3875C15.3031 10.7594 16.4188 10.9344 17.5563 10.9344C20.9031 10.9344 24.075 9.29376 25.9781 6.55939C27.925 9.29376 31.075 10.9344 34.4438 10.9344C35.5813 10.9344 36.6969 10.7375 37.7469 10.3875C37.7031 14.9594 40.6125 18.9625 44.9875 20.2969L44.9656 20.3188C42.2094 24.0156 42.2313 29.0031 45.0094 32.6781C40.6125 34.0563 37.6813 38.0813 37.7469 42.675H37.725C33.3719 41.2094 28.625 42.7406 26 46.525Z" fill="#363636"/>
<path d="M26 16.6875C20.575 16.6875 16.1562 21.1063 16.1562 26.5313C16.1562 31.9563 20.575 36.375 26 36.375C31.425 36.375 35.8438 31.9563 35.8438 26.5313C35.8438 21.1063 31.425 16.6875 26 16.6875ZM26 34.2313C21.7562 34.2313 18.3219 30.775 18.3219 26.5531C18.3219 22.3313 21.7781 18.875 26 18.875C30.2219 18.875 33.6781 22.3313 33.6781 26.5531C33.6781 30.775 30.2219 34.2313 26 34.2313Z" fill="#363636"/>
<path d="M18.6281 47.9688C18.1249 47.6406 17.4468 47.7719 17.1187 48.275L11.8906 56.3031L9.19995 50.8125C9.02495 50.4406 8.65307 50.2 8.23745 50.2L2.70307 50.1781L8.17182 41.8C8.2812 41.625 8.34682 41.4281 8.34682 41.2094C8.34682 40.6188 7.86557 40.1375 7.25307 40.1375C6.85932 40.1375 6.50932 40.3563 6.33432 40.6625L-0.206305 50.6813C-0.425055 51.0094 -0.44693 51.4469 -0.250055 51.7969C-0.0531802 52.1469 0.29682 52.3656 0.69057 52.3656L7.55932 52.3875L10.7968 58.9938C10.9718 59.3438 11.3218 59.5844 11.6937 59.6063C11.7156 59.6063 11.7374 59.6063 11.7593 59.6063C12.1312 59.6063 12.4593 59.4313 12.6562 59.125L18.9343 49.5C19.2843 48.975 19.1312 48.2969 18.6281 47.9688Z" fill="#363636"/>
<path d="M52.2062 50.6813L45.6218 40.5969C45.2937 40.0938 44.6155 39.9625 44.1124 40.2906C43.6093 40.6188 43.478 41.2969 43.8062 41.8L49.2968 50.2L43.7405 50.2219C43.3249 50.2219 42.953 50.4625 42.778 50.8344L40.0874 56.325L34.8374 48.2969C34.5093 47.7938 33.8312 47.6625 33.328 47.9906C32.8249 48.3188 32.6937 48.9969 33.0218 49.5L39.3218 59.125C39.5187 59.4313 39.8687 59.6063 40.2187 59.6063C40.2405 59.6063 40.2624 59.6063 40.2843 59.6063C40.678 59.5844 41.028 59.3438 41.1812 58.9938L44.3968 52.3875L51.2655 52.3656C51.6593 52.3656 52.0312 52.1469 52.2062 51.7969C52.4468 51.425 52.4249 51.0094 52.2062 50.6813Z" fill="#363636"/>
</g>
<defs>
<clipPath id="clip0">
<rect width="60" height="60" fill="white"/>
</clipPath>
</defs>
</svg>
