<svg width="51" height="53" viewBox="0 0 51 53" fill="none" xmlns="http://www.w3.org/2000/svg">
<path d="M32.25 37.625C42.6053 37.625 51 29.2303 51 18.875C51 8.51966 42.6053 0.125 32.25 0.125C21.8947 0.125 13.5 8.51966 13.5 18.875C13.5 29.2303 21.8947 37.625 32.25 37.625Z" fill="#FFE24F"/>
<g clip-path="url(#clip0)">
<path fill-rule="evenodd" clip-rule="evenodd" d="M12.0309 43.4571C14.9806 45.8436 18.6986 47.1578 22.5001 47.1578C31.6852 47.1578 39.1578 39.6852 39.1578 30.5C39.1578 21.3148 31.6852 13.8422 22.5001 13.8422C18.6986 13.8422 14.9807 15.1564 12.0309 17.5428C9.12461 19.894 7.07254 23.186 6.25279 26.8121C6.14574 27.2856 6.44281 27.7561 6.91627 27.8632C7.38974 27.9701 7.86031 27.6732 7.96736 27.1997C9.51133 20.3699 15.4875 15.6 22.5001 15.6C30.7159 15.6 37.4 22.2841 37.4 30.5C37.4 38.7158 30.7159 45.4001 22.5001 45.4001C15.4875 45.4001 9.51142 40.6302 7.96736 33.8004C7.86031 33.3269 7.38948 33.0297 6.91627 33.1369C6.44281 33.2439 6.14574 33.7145 6.25279 34.188C7.07263 37.814 9.12461 41.1058 12.0309 43.4571Z" fill="#363636"/>
<path fill-rule="evenodd" clip-rule="evenodd" d="M43.2069 21.6861C43.0166 21.2396 42.5003 21.0321 42.0537 21.2222C41.6072 21.4125 41.3995 21.9288 41.5898 22.3754C42.6863 24.9482 43.2422 27.682 43.2422 30.5008C43.2422 41.9381 33.9373 51.243 22.5 51.243C11.0628 51.243 1.75781 41.9381 1.75781 30.5008C1.75781 19.0636 11.0628 9.7587 22.5 9.7587C25.3194 9.7587 28.0532 10.3146 30.6255 11.4111C31.0721 11.6013 31.5883 11.3939 31.7786 10.9472C31.9689 10.5008 31.7612 9.98449 31.3148 9.79412C28.5234 8.60426 25.5577 8.00098 22.5 8.00098C16.4901 8.00098 10.8398 10.3414 6.59011 14.591C2.34044 18.8408 0 24.491 0 30.5008C0 36.5107 2.34044 42.161 6.59011 46.4108C10.8399 50.6604 16.4901 53.0008 22.5 53.0008C28.51 53.0008 34.1602 50.6604 38.4099 46.4108C42.6596 42.1611 45 36.5108 45 30.5008C45 27.4438 44.3967 24.4781 43.2069 21.6861Z" fill="#363636"/>
<path fill-rule="evenodd" clip-rule="evenodd" d="M33.0767 15.5902H36.9639V19.6708C36.9639 20.1562 37.3574 20.5497 37.8428 20.5497C38.3282 20.5497 38.7217 20.1562 38.7217 19.6708V15.5902H42.6089C43.0944 15.5902 43.4878 15.1967 43.4878 14.7113C43.4878 14.226 43.0944 13.8324 42.6089 13.8324H38.7217V9.75183C38.7217 9.2665 38.3282 8.87292 37.8428 8.87292C37.3574 8.87292 36.9639 9.2665 36.9639 9.75183V13.8324H33.0767C32.5912 13.8324 32.1978 14.226 32.1978 14.7113C32.1978 15.1967 32.5912 15.5902 33.0767 15.5902Z" fill="#363636"/>
<path fill-rule="evenodd" clip-rule="evenodd" d="M21.1406 35.2654C21.1406 38.1933 23.5227 40.5754 26.4506 40.5754C29.3786 40.5754 31.7607 38.1933 31.7607 35.2654C31.7607 33.4161 30.8099 31.7854 29.372 30.8343C30.8099 29.8833 31.7607 28.2525 31.7607 26.4032C31.7607 23.4752 29.3786 21.0931 26.4506 21.0931C23.5227 21.0931 21.1406 23.4752 21.1406 26.4032C21.1406 28.2525 22.0914 29.8833 23.5293 30.8343C22.0915 31.7854 21.1406 33.4161 21.1406 35.2654ZM22.8984 26.4032C22.8984 24.4445 24.4919 22.851 26.4506 22.851C28.4094 22.851 30.0029 24.4445 30.0029 26.4032C30.0029 28.3619 28.4094 29.9554 26.4506 29.9554C24.492 29.9554 22.8984 28.3619 22.8984 26.4032ZM26.4506 31.7132C28.4094 31.7132 30.0029 33.3068 30.0029 35.2654C30.0029 37.2241 28.4094 38.8176 26.4506 38.8176C24.4919 38.8176 22.8984 37.2241 22.8984 35.2654C22.8984 33.3068 24.492 31.7132 26.4506 31.7132Z" fill="#363636"/>
<path fill-rule="evenodd" clip-rule="evenodd" d="M17.2732 22.2416C17.2726 22.2342 17.2727 22.2266 17.2719 22.2192C17.2691 22.1921 17.2649 22.1649 17.2595 22.1379C17.2582 22.1315 17.2565 22.1252 17.2551 22.1189C17.25 22.0958 17.2444 22.0729 17.2374 22.0502C17.2328 22.0354 17.2269 22.0212 17.2216 22.0067C17.217 21.9942 17.2131 21.9817 17.2079 21.9694C17.1971 21.9438 17.1851 21.9189 17.172 21.8946C17.1715 21.8936 17.1711 21.8927 17.1706 21.8917C17.1567 21.8662 17.1416 21.8416 17.1253 21.8176C17.1215 21.8119 17.1169 21.8066 17.1128 21.801C17.1 21.7829 17.0868 21.765 17.0727 21.7479C17.0718 21.7468 17.0711 21.7458 17.0702 21.7447C17.0641 21.7373 17.0572 21.731 17.0508 21.7239C17.0388 21.7105 17.0268 21.697 17.014 21.6844C17.004 21.6746 16.9935 21.6656 16.9831 21.6564C16.9722 21.6467 16.9615 21.6367 16.9502 21.6275C16.9385 21.6181 16.9262 21.6094 16.914 21.6005C16.9031 21.5925 16.8923 21.5843 16.881 21.5768C16.8687 21.5687 16.856 21.5615 16.8435 21.554C16.8312 21.5468 16.8192 21.5395 16.8066 21.5329C16.7948 21.5266 16.7826 21.5211 16.7705 21.5155C16.7564 21.509 16.7425 21.5023 16.728 21.4964C16.7169 21.4919 16.7056 21.4881 16.6943 21.484C16.6785 21.4784 16.6628 21.4727 16.6466 21.4679C16.6357 21.4647 16.6245 21.4621 16.6135 21.4594C16.5969 21.4552 16.5805 21.451 16.5636 21.4477C16.5513 21.4454 16.5388 21.4439 16.5264 21.4421C16.5108 21.4398 16.4952 21.4372 16.4792 21.4358C16.4633 21.4343 16.4473 21.434 16.4314 21.4334C16.4202 21.433 16.4092 21.4316 16.3979 21.4316C16.3963 21.4316 16.3948 21.4319 16.3932 21.4319C16.3735 21.432 16.354 21.4335 16.3343 21.4348C16.3249 21.4355 16.3153 21.4355 16.306 21.4365C16.2832 21.4388 16.2607 21.4427 16.2381 21.4468C16.2201 21.4502 16.2025 21.4543 16.1849 21.4587C16.1691 21.4627 16.1533 21.4661 16.1376 21.4709C16.1213 21.476 16.1057 21.4824 16.0898 21.4882C16.0787 21.4925 16.0676 21.4958 16.0566 21.5005C16.0328 21.5105 16.0097 21.5218 15.987 21.5339C15.9837 21.5356 15.9804 21.5371 15.9771 21.5389C15.9523 21.5524 15.9282 21.5671 15.905 21.5829C15.8985 21.5874 15.8923 21.5926 15.8859 21.5972C15.8687 21.6096 15.8516 21.622 15.8354 21.6355C15.8342 21.6365 15.8331 21.6373 15.8319 21.6382L12.3442 24.5732C11.9728 24.8858 11.9252 25.4402 12.2377 25.8116C12.4117 26.0182 12.6602 26.1246 12.9106 26.1246C13.1104 26.1246 13.3113 26.0569 13.4761 25.9181L15.5189 24.199V39.3582C15.5189 39.8435 15.9124 40.2371 16.3979 40.2371C16.8833 40.2371 17.2768 39.8435 17.2768 39.3582V22.3106C17.2768 22.3092 17.2766 22.3079 17.2766 22.3065C17.2764 22.2849 17.2749 22.2633 17.2732 22.2416Z" fill="#363636"/>
<path fill-rule="evenodd" clip-rule="evenodd" d="M7.6001 30.5C7.6001 30.0159 7.20529 29.6211 6.72119 29.6211C6.23709 29.6211 5.84229 30.0159 5.84229 30.5C5.84229 30.9841 6.23709 31.3789 6.72119 31.3789C7.2052 31.3789 7.6001 30.9841 7.6001 30.5Z" fill="#363636"/>
</g>
<defs>
<clipPath id="clip0">
<rect width="45" height="45" fill="white" transform="translate(0 8)"/>
</clipPath>
</defs>
</svg>
