<svg width="56" height="55" viewBox="0 0 56 55" fill="none" xmlns="http://www.w3.org/2000/svg">
<path d="M41 32.5C49.2843 32.5 56 25.7843 56 17.5C56 9.21573 49.2843 2.5 41 2.5C32.7157 2.5 26 9.21573 26 17.5C26 25.7843 32.7157 32.5 41 32.5Z" fill="#FFE24F"/>
<g clip-path="url(#clip0)">
<path d="M52.4218 34.3216L52.4212 19.756C52.4177 19.3568 52.1936 18.992 51.8378 18.8096L26.701 5.91885C26.3934 5.76094 26.0284 5.76094 25.7207 5.91885L18.8543 9.44006C18.3264 9.71077 18.118 10.3582 18.3887 10.8861C18.6594 11.414 19.3065 11.6225 19.8347 11.3518L26.2109 8.08192L46.8987 18.6912H29.2488C28.8054 17.4409 27.6113 16.5428 26.2109 16.5428C24.4339 16.5428 22.9882 17.9885 22.9882 19.7654C22.9882 21.5424 24.4339 22.9881 26.2109 22.9881C27.6112 22.9881 28.8054 22.09 29.2488 20.8397H46.8987L26.2109 31.449L3.4284 19.7656L11.232 15.7636C11.76 15.4929 11.9684 14.8455 11.6977 14.3176C11.427 13.7896 10.7796 13.5812 10.2517 13.8519L0.584058 18.8097C0.225481 18.9935 0 19.3626 0 19.7656C0 20.1685 0.225481 20.5376 0.584058 20.7214L9.33677 25.21V34.4488C9.33677 35.6633 10.0082 36.7621 11.0888 37.3163L24.7405 44.3173C25.2009 44.5534 25.706 44.6713 26.211 44.6713C26.716 44.6713 27.2212 44.5533 27.6815 44.3172L41.3331 37.3163C42.4139 36.7621 43.0852 35.6633 43.0852 34.4488V25.21L50.2735 21.5236V34.3217C48.7823 34.7816 47.6954 36.1725 47.6954 37.8126V48.1252C47.6954 48.7185 48.1763 49.1994 48.7696 49.1994H53.9259C54.5192 49.1994 55.0001 48.7185 55.0001 48.1252V37.8126C55 36.1724 53.9131 34.7815 52.4218 34.3216ZM26.211 20.8398C25.6186 20.8398 25.1367 20.3579 25.1367 19.7656C25.1367 19.1732 25.6186 18.6913 26.211 18.6913C26.8033 18.6913 27.2852 19.1732 27.2852 19.7656C27.2852 20.3579 26.8033 20.8398 26.211 20.8398ZM40.9367 34.4488C40.9367 34.8536 40.713 35.2198 40.3527 35.4046L26.7012 42.4055C26.3942 42.563 26.0276 42.5628 25.7207 42.4055L12.0692 35.4046C11.7089 35.2198 11.4851 34.8536 11.4851 34.4488V26.3118L25.7207 33.6122C25.8745 33.6911 26.0428 33.7305 26.2109 33.7305C26.379 33.7305 26.5472 33.6911 26.701 33.6122L40.9366 26.3118V34.4488H40.9367ZM52.8515 47.051H49.8437V37.8126C49.8437 36.9833 50.5183 36.3087 51.3476 36.3087C52.1769 36.3087 52.8515 36.9833 52.8515 37.8126V47.051Z" fill="#363636"/>
<path d="M15.0432 13.6758C15.3257 13.6758 15.6029 13.5619 15.8027 13.3621C16.0025 13.1612 16.1174 12.8852 16.1174 12.6016C16.1174 12.319 16.0025 12.0419 15.8027 11.8421C15.6029 11.6423 15.3257 11.5273 15.0432 11.5273C14.7607 11.5273 14.4835 11.6423 14.2837 11.8421C14.0839 12.0419 13.969 12.319 13.969 12.6016C13.969 12.8852 14.0839 13.1612 14.2837 13.3621C14.4834 13.5619 14.7606 13.6758 15.0432 13.6758Z" fill="#363636"/>
</g>
<defs>
<clipPath id="clip0">
<rect width="55" height="55" fill="white"/>
</clipPath>
</defs>
</svg>
