<svg width="60" height="60" viewBox="0 0 60 60" fill="none" xmlns="http://www.w3.org/2000/svg">
<path d="M26.25 50.625C36.6053 50.625 45 42.2303 45 31.875C45 21.5197 36.6053 13.125 26.25 13.125C15.8947 13.125 7.5 21.5197 7.5 31.875C7.5 42.2303 15.8947 50.625 26.25 50.625Z" fill="#FFE24F"/>
<path d="M30 58.125C42.4264 58.125 52.5 48.0514 52.5 35.625C52.5 23.1986 42.4264 13.125 30 13.125C17.5736 13.125 7.5 23.1986 7.5 35.625C7.5 48.0514 17.5736 58.125 30 58.125Z" stroke="#363636" stroke-width="2" stroke-linecap="round" stroke-linejoin="round"/>
<path d="M24.9187 5.38132V12.8813" stroke="#363636" stroke-width="2" stroke-linecap="round" stroke-linejoin="round"/>
<path d="M51.7687 14.625L46.4624 19.9125" stroke="#363636" stroke-width="2" stroke-linecap="round" stroke-linejoin="round"/>
<path d="M36.1687 12.8813V5.38132" stroke="#363636" stroke-width="2" stroke-linecap="round" stroke-linejoin="round"/>
<path d="M21.1687 5.38132H39.9187" stroke="#363636" stroke-width="2" stroke-linecap="round" stroke-linejoin="round"/>
<path d="M30 39.375C32.0711 39.375 33.75 37.6961 33.75 35.625C33.75 33.5539 32.0711 31.875 30 31.875C27.9289 31.875 26.25 33.5539 26.25 35.625C26.25 37.6961 27.9289 39.375 30 39.375Z" stroke="#363636" stroke-width="2" stroke-linecap="round" stroke-linejoin="round"/>
<path d="M32.6438 32.9813L40.6125 25.0126" stroke="#363636" stroke-width="2" stroke-linecap="round" stroke-linejoin="round"/>
</svg>
