<svg width="64" height="54" viewBox="0 0 64 54" fill="none" xmlns="http://www.w3.org/2000/svg">
<path d="M44.75 48.5001C55.1053 48.5001 63.5 40.1055 63.5 29.7501C63.5 19.3948 55.1053 11.0001 44.75 11.0001C34.3947 11.0001 26 19.3948 26 29.7501C26 40.1055 34.3947 48.5001 44.75 48.5001Z" fill="#FFE24F"/>
<g clip-path="url(#clip0)">
<path d="M51.4688 37.4769V7.43567C51.4688 5.6619 50.0256 4.21887 48.252 4.21887H40.6055V3.16418C40.6055 1.41952 39.1861 0.00012207 37.4414 0.00012207C35.6967 0.00012207 34.2773 1.41952 34.2773 3.16418V4.21887H17.1914V3.16418C17.1914 1.41952 15.772 0.00012207 14.0273 0.00012207C12.2827 0.00012207 10.8633 1.41952 10.8633 3.16418V4.21887H3.2168C1.44313 4.21887 0 5.6619 0 7.43567V46.5646C0 48.3383 1.44313 49.7814 3.2168 49.7814H17.5923C18.1747 49.7814 18.647 49.3092 18.647 48.7267C18.647 48.1442 18.1747 47.672 17.5923 47.672H3.2168C2.60613 47.672 2.10938 47.1752 2.10938 46.5646V7.43567C2.10938 6.82501 2.60613 6.32825 3.2168 6.32825H10.8633V7.38293C10.8633 9.1276 12.2827 10.547 14.0273 10.547C15.772 10.547 17.1914 9.1276 17.1914 7.38293V6.32825H34.2773V7.38293C34.2773 9.1276 35.6967 10.547 37.4414 10.547C39.1861 10.547 40.6055 9.1276 40.6055 7.38293V6.32825H48.252C48.8626 6.32825 49.3594 6.82501 49.3594 7.43567V12.6564H9.49219C8.90979 12.6564 8.4375 13.1286 8.4375 13.7111C8.4375 14.2936 8.90979 14.7657 9.49219 14.7657H49.3594V35.6946C48.4614 35.1283 47.4668 34.7022 46.4062 34.4468V18.7736C46.4062 18.1911 45.934 17.7189 45.3516 17.7189H6.11719C5.53479 17.7189 5.0625 18.1911 5.0625 18.7736V43.6642C5.0625 44.2467 5.53479 44.7189 6.11719 44.7189H34.1926C34.2581 45.754 34.4829 46.7465 34.8433 47.672H26.0297C25.4473 47.672 24.975 48.1442 24.975 48.7267C24.975 49.3092 25.4473 49.7814 26.0297 49.7814H35.9757C37.7715 52.331 40.7373 54.0001 44.0859 54.0001C49.5526 54.0001 54 49.5527 54 44.0861C54 41.5491 53.0417 39.2322 51.4688 37.4769ZM15.082 7.38293C15.082 7.96449 14.6089 8.43762 14.0273 8.43762C13.4458 8.43762 12.9727 7.96449 12.9727 7.38293V3.16418C12.9727 2.58263 13.4458 2.1095 14.0273 2.1095C14.6089 2.1095 15.082 2.58263 15.082 3.16418V7.38293ZM38.4961 7.38293C38.4961 7.96449 38.023 8.43762 37.4414 8.43762C36.8599 8.43762 36.3867 7.96449 36.3867 7.38293V3.16418C36.3867 2.58263 36.8599 2.1095 37.4414 2.1095C38.023 2.1095 38.4961 2.58263 38.4961 3.16418V7.38293ZM44.0859 34.172C43.5956 34.172 43.1136 34.2084 42.6421 34.2775H38.5594V28.1603H44.2969V34.1746C44.2267 34.1732 44.1565 34.172 44.0859 34.172ZM34.2819 42.6095H30.7125V36.3868H36.45V37.77C35.3254 39.1272 34.555 40.7882 34.2819 42.6095ZM7.17188 28.1603H12.9094V34.2775H7.17188V28.1603ZM15.0187 28.1603H20.7563V34.2775H15.0187V28.1603ZM30.7125 28.1603H36.45V34.2775H30.7125V28.1603ZM28.6031 34.2775H22.8656V28.1603H28.6031V34.2775ZM30.7125 26.0509V19.8282H36.45V26.0509H30.7125ZM28.6031 26.0509H22.8656V19.8282H28.6031V26.0509ZM20.7563 26.0509H15.0187V19.8282H20.7563V26.0509ZM20.7563 36.3868V42.6095H15.0187V36.3868H20.7563ZM22.8656 36.3868H28.6031V42.6095H22.8656V36.3868ZM44.2969 26.0509H38.5594V19.8282H44.2969V26.0509ZM12.9094 19.8282V26.0509H7.17188V19.8282H12.9094ZM7.17188 36.3868H12.9094V42.6095H7.17188V36.3868ZM44.0859 51.8907C39.7824 51.8907 36.2812 48.3896 36.2812 44.0861C36.2812 39.7825 39.7824 36.2814 44.0859 36.2814C48.3895 36.2814 51.8906 39.7825 51.8906 44.0861C51.8906 48.3896 48.3895 51.8907 44.0859 51.8907Z" fill="#363636"/>
<path d="M47.1371 41.5297L43.875 44.7918L42.4236 43.3403C42.0118 42.9285 41.3442 42.9285 40.9319 43.3403C40.5201 43.7522 40.5201 44.42 40.9319 44.8319L43.1292 47.0291C43.327 47.2268 43.5952 47.338 43.8749 47.338C44.1546 47.338 44.4228 47.2268 44.6207 47.0291L48.6285 43.0213C49.0404 42.6094 49.0404 41.9416 48.6285 41.5296C48.2167 41.1179 47.549 41.1179 47.1371 41.5297Z" fill="#363636"/>
<path d="M21.8105 47.672C21.5332 47.672 21.2611 47.7848 21.0649 47.981C20.8688 48.1772 20.7559 48.4493 20.7559 48.7267C20.7559 49.0041 20.8687 49.2762 21.0649 49.4723C21.2611 49.6685 21.5332 49.7814 21.8105 49.7814C22.0879 49.7814 22.36 49.6685 22.5562 49.4723C22.7523 49.2762 22.8652 49.0041 22.8652 48.7267C22.8652 48.4493 22.7524 48.1772 22.5562 47.981C22.36 47.7848 22.0879 47.672 21.8105 47.672Z" fill="#363636"/>
<path d="M6.019 14.4567C6.21527 14.2606 6.32812 13.9884 6.32812 13.7111C6.32812 13.4337 6.21527 13.1616 6.019 12.9654C5.82293 12.7692 5.55082 12.6564 5.27344 12.6564C4.99489 12.6564 4.72395 12.7692 4.52777 12.9654C4.3316 13.1616 4.21875 13.4337 4.21875 13.7111C4.21875 13.9884 4.3315 14.2606 4.52777 14.4567C4.72405 14.6529 4.99489 14.7657 5.27344 14.7657C5.55082 14.7657 5.82293 14.6529 6.019 14.4567Z" fill="#363636"/>
</g>
<defs>
<clipPath id="clip0">
<rect width="54" height="54" fill="white" transform="translate(0 0.00012207)"/>
</clipPath>
</defs>
</svg>
