<svg width="48" height="48" viewBox="0 0 48 48" fill="none" xmlns="http://www.w3.org/2000/svg">
<path d="M21 40.5C29.2843 40.5 36 33.7843 36 25.5C36 17.2157 29.2843 10.5 21 10.5C12.7157 10.5 6 17.2157 6 25.5C6 33.7843 12.7157 40.5 21 40.5Z" fill="#FFE24F"/>
<path d="M29.8398 32.6612C30.0554 31.08 29.6241 29.4808 28.6718 28.2948C27.9171 27.3784 26.821 26.8394 25.671 26.8394H25.653C24.503 26.8394 23.4249 27.3604 22.6702 28.2589C20.9632 30.3073 20.7835 33.0026 22.221 35.2847C22.778 36.1831 23.6765 36.794 24.7187 36.9917C24.9702 37.0456 25.2218 37.0636 25.4734 37.0636C26.246 37.0636 27.0007 36.83 27.6476 36.3628C28.8335 35.5542 29.6241 34.1886 29.8398 32.6612ZM26.6234 34.9253C26.1741 35.2487 25.6171 35.3565 25.078 35.2487C24.521 35.1409 24.0538 34.8175 23.7484 34.3323C22.7421 32.7331 22.8499 30.8464 24.0538 29.4089C24.4671 28.9058 25.0421 28.6362 25.653 28.6362C26.264 28.6362 26.8569 28.9237 27.2702 29.4448C27.9171 30.2534 28.2046 31.3315 28.0609 32.4276C27.9171 33.4519 27.396 34.3683 26.6234 34.9253Z" fill="black"/>
<path d="M42.6695 37.1352C41.4836 35.8415 39.4531 35.5719 37.9617 36.4883C36.6859 37.261 35.8234 38.6446 35.5898 40.2618C35.3383 41.9508 35.7875 43.586 36.8297 44.7719C37.6383 45.7063 38.6984 46.1735 39.7586 46.1735C40.4953 46.1735 41.25 45.9399 41.9148 45.4727C43.1547 44.5922 43.9633 43.1727 44.125 41.5735C44.2867 39.9204 43.7656 38.3032 42.6695 37.1352ZM42.3281 41.3938C42.2203 42.4899 41.6813 43.4422 40.8727 44.0172C39.9922 44.6461 38.932 44.4665 38.1773 43.604C37.4766 42.8133 37.1891 41.6993 37.3688 40.5313C37.5305 39.4352 38.1055 38.5188 38.9141 38.0157C39.2195 37.818 39.5789 37.7282 39.9383 37.7282C40.4773 37.7282 40.9805 37.9618 41.3758 38.375C42.0945 39.1477 42.4539 40.2438 42.3281 41.3938Z" fill="black"/>
<path d="M38.7703 26.9649C38.357 26.6954 37.7999 26.8212 37.5304 27.2345L26.3539 44.8259C26.0843 45.2392 26.2101 45.7962 26.6234 46.0657C26.7671 46.1556 26.9468 46.2095 27.1085 46.2095C27.396 46.2095 27.7015 46.0657 27.8632 45.7962L39.0398 28.2048C39.3093 27.7735 39.1835 27.2165 38.7703 26.9649Z" fill="black"/>
<path d="M12.6618 12.2666C15.5547 12.2666 17.8907 9.91265 17.8907 7.03765C17.8907 4.16265 15.5547 1.79077 12.6618 1.79077C9.7688 1.79077 7.43286 4.14468 7.43286 7.01968C7.43286 9.89468 9.7688 12.2666 12.6618 12.2666ZM12.6618 3.58765C14.5665 3.58765 16.1118 5.13296 16.1118 7.03765C16.1118 8.94233 14.5665 10.4876 12.6618 10.4876C10.7571 10.4876 9.21177 8.94233 9.21177 7.03765C9.21177 5.13296 10.7751 3.58765 12.6618 3.58765Z" fill="black"/>
<path d="M18.9867 19.4001C18.5016 19.3642 18.0703 19.7415 18.0344 20.2267L17.2258 31.9962C17.2258 32.0322 17.2078 32.0681 17.2078 32.0861L16.4531 43.5142C16.4172 44.0173 16.0039 44.3947 15.5188 44.3947H9.82266C9.31953 44.3947 8.90625 43.9994 8.87031 43.5142L8.13359 32.0861C8.11562 31.7087 7.86406 31.4033 7.50469 31.2955C6.42656 30.972 6.42656 30.972 6.33672 29.7681L5.65391 17.6392V17.5314C6.96563 17.1361 8.27734 16.7228 9.60703 16.2915C10.182 16.9744 10.775 17.6572 11.4039 18.358L11.9969 19.0228C12.1586 19.2205 12.4102 19.3283 12.6617 19.3283C12.9133 19.3283 13.1648 19.2205 13.3266 19.0228L14.0453 18.2142C14.6203 17.5673 15.1594 16.9384 15.6984 16.3095C15.7164 16.3095 15.7344 16.3095 15.7703 16.3095L24.575 18.304C24.7008 18.34 24.8266 18.34 24.9523 18.304L32.8766 16.6869C33.3617 16.579 33.6672 16.1119 33.5773 15.6267C33.4695 15.1415 33.0023 14.8181 32.5172 14.9259L24.7906 16.5072L16.0938 14.5126C16.0578 14.5126 16.0219 14.4947 15.968 14.4947C15.8063 14.4767 14.9258 14.4408 14.4227 15.0337C13.8656 15.6986 13.3086 16.3275 12.7156 17.0103L12.6797 17.0642C12.0688 16.3814 11.4938 15.7165 10.9188 15.0517C10.4516 14.4947 9.84062 14.315 9.17578 14.5486C7.82812 14.9798 6.48047 15.4111 5.13281 15.8244C4.32422 16.0759 3.875 16.6869 3.875 17.5134C3.875 17.5853 3.875 17.729 3.875 17.729L4.53984 29.6962L4.55781 29.8939C4.68359 31.7087 4.98906 32.2837 6.39062 32.8048L7.10938 43.64C7.19922 45.0775 8.40313 46.2095 9.84063 46.2095H15.5367C16.9742 46.2095 18.1781 45.0775 18.268 43.64L19.0047 32.2837C19.0047 32.2478 19.0047 32.2298 19.0227 32.1939L19.8313 20.3345C19.8492 19.8494 19.4719 19.4181 18.9867 19.4001Z" fill="black"/>
</svg>
