<svg width="60" height="60" viewBox="0 0 60 60" fill="none" xmlns="http://www.w3.org/2000/svg">
<path d="M20 49.5C28.2843 49.5 35 42.7843 35 34.5C35 26.2157 28.2843 19.5 20 19.5C11.7157 19.5 5 26.2157 5 34.5C5 42.7843 11.7157 49.5 20 49.5Z" fill="#FFE24F"/>
<path d="M30.0018 7.91235C17.8226 7.91235 7.91406 17.8208 7.91406 30C7.91406 42.1792 17.8226 52.0877 30.0018 52.0877C42.181 52.0877 52.0895 42.1792 52.0895 30C52.0895 17.8208 42.181 7.91235 30.0018 7.91235ZM30.0018 50.4471C18.7272 50.4471 9.55469 41.2746 9.55469 30C9.55469 18.7255 18.7272 9.55298 30.0018 9.55298C41.2763 9.55298 50.4489 18.7255 50.4489 30C50.4489 41.2746 41.2763 50.4471 30.0018 50.4471Z" fill="#262324" stroke="#262324"/>
<path d="M38.5938 35.3339L30.8203 29.5864V17.425C30.8203 16.972 30.4531 16.6047 30 16.6047C29.5469 16.6047 29.1797 16.972 29.1797 17.425V30C29.1797 30.2602 29.3031 30.505 29.5124 30.6596L37.6186 36.653C37.7652 36.7615 37.9361 36.8138 38.1055 36.8138C38.3568 36.8138 38.6049 36.6987 38.7658 36.4811C39.0351 36.1169 38.9582 35.6032 38.5938 35.3339Z" fill="#262324" stroke="#262324"/>
</svg>
