<svg width="48" height="48" viewBox="0 0 48 48" fill="none" xmlns="http://www.w3.org/2000/svg">
<g clip-path="url(#clip0)">
<path d="M29 35.5C37.2843 35.5 44 28.7843 44 20.5C44 12.2157 37.2843 5.5 29 5.5C20.7157 5.5 14 12.2157 14 20.5C14 28.7843 20.7157 35.5 29 35.5Z" fill="#FFE24F"/>
<g clip-path="url(#clip1)">
<path d="M42.2499 25.6425V16.5C42.2499 13.8742 36.7874 12.6667 31.7083 12.6667C30.1031 12.6605 28.5003 12.7887 26.9166 13.05V12.6667C26.9166 10.0408 21.4541 8.83334 16.3749 8.83334C11.2958 8.83334 5.83325 10.0408 5.83325 12.6667V41.4167C5.83325 44.0425 11.2958 45.25 16.3749 45.25C18.1954 45.2532 20.012 45.0798 21.7991 44.7325C24.4911 46.5466 27.7185 47.3947 30.9546 47.1384C34.1907 46.8822 37.2444 45.5367 39.6174 43.3216C41.9904 41.1065 43.5426 38.1526 44.0207 34.9418C44.4988 31.731 43.8746 28.4529 42.2499 25.6425ZM36.2891 19.9883C37.6882 19.8037 39.0515 19.4095 40.3333 18.8192V23.055C39.1764 21.8025 37.8073 20.7643 36.2891 19.9883ZM16.3749 16.5C19.3245 16.6085 22.2637 16.0925 24.9999 14.9858V18.4167C24.8466 18.9533 21.9716 20.3333 16.3749 20.3333C10.7783 20.3333 7.90325 18.9342 7.74992 18.4167V14.9858C10.4862 16.0925 13.4254 16.6085 16.3749 16.5ZM16.2599 28C15.79 29.2288 15.5057 30.5208 15.4166 31.8333C10.4333 31.68 7.84575 30.4342 7.74992 29.9167V26.4858C10.4516 27.5729 13.3491 28.0884 16.2599 28ZM7.74992 35.6667V32.2358C10.1778 33.2504 12.7853 33.7654 15.4166 33.75C15.5085 35.0586 15.7794 36.3483 16.2216 37.5833C10.7399 37.5833 7.90325 36.1842 7.74992 35.6667ZM17.1033 26.0833H16.3749C10.7783 26.0833 7.90325 24.6842 7.74992 24.1667V20.7358C10.4862 21.8425 13.4254 22.3585 16.3749 22.25C17.6951 22.2548 19.0141 22.1715 20.3233 22.0008C19.0116 23.1555 17.9206 24.5388 17.1033 26.0833ZM31.7083 14.5833C37.3241 14.5833 40.1991 15.9825 40.3333 16.5C40.4674 17.0175 37.3241 18.4167 31.7083 18.4167C30.1024 18.4203 28.4993 18.2857 26.9166 18.0142V14.9858C28.4993 14.7143 30.1024 14.5797 31.7083 14.5833ZM16.3749 10.75C21.9333 10.75 24.8083 12.13 24.9999 12.6667C24.8083 13.1842 22.1249 14.4683 16.9691 14.5833H16.3749C10.7783 14.5833 7.90325 13.1842 7.74992 12.6667C7.90325 12.1492 10.7783 10.75 16.3749 10.75ZM16.3749 43.3333C10.7783 43.3333 7.90325 41.9342 7.74992 41.4167V37.9858C10.4862 39.0925 13.4254 39.6085 16.3749 39.5H17.0841C17.7941 40.8438 18.7127 42.0665 19.8058 43.1225C18.6675 43.2627 17.5218 43.3331 16.3749 43.3333ZM29.7916 45.25C27.3276 45.25 24.9189 44.5193 22.8701 43.1504C20.8213 41.7815 19.2245 39.8357 18.2816 37.5593C17.3386 35.2828 17.0919 32.7779 17.5726 30.3612C18.0533 27.9445 19.2399 25.7246 20.9822 23.9823C22.7245 22.24 24.9444 21.0534 27.3611 20.5727C29.7778 20.092 32.2827 20.3387 34.5592 21.2817C36.8356 22.2246 38.7814 23.8214 40.1503 25.8702C41.5193 27.919 42.2499 30.3277 42.2499 32.7917C42.2449 36.0943 40.9307 39.2602 38.5954 41.5955C36.2601 43.9307 33.0942 45.2449 29.7916 45.25Z" fill="black"/>
<path d="M27.0077 40V37.552H25.4417V36.382H27.0077V34.78H25.4417V33.412H27.0077V27.148H30.3917C31.9637 27.148 33.1277 27.466 33.8837 28.102C34.6517 28.738 35.0357 29.662 35.0357 30.874C35.0357 32.098 34.6217 33.058 33.7937 33.754C32.9657 34.438 31.7477 34.78 30.1397 34.78H28.6277V36.382H31.5977V37.552H28.6277V40H27.0077ZM28.6277 33.412H29.9057C30.9977 33.412 31.8437 33.232 32.4437 32.872C33.0557 32.512 33.3617 31.864 33.3617 30.928C33.3617 30.112 33.1097 29.506 32.6057 29.11C32.1017 28.714 31.3157 28.516 30.2477 28.516H28.6277V33.412Z" fill="black"/>
</g>
</g>
<defs>
<clipPath id="clip0">
<rect width="48" height="48" fill="white"/>
</clipPath>
<clipPath id="clip1">
<rect width="46" height="46" fill="white" transform="translate(1 5)"/>
</clipPath>
</defs>
</svg>
