<svg width="55" height="55" viewBox="0 0 55 55" fill="none" xmlns="http://www.w3.org/2000/svg">
<path d="M30.666 46.5001C41.0214 46.5001 49.416 38.1055 49.416 27.7501C49.416 17.3948 41.0214 9.00012 30.666 9.00012C20.3107 9.00012 11.916 17.3948 11.916 27.7501C11.916 38.1055 20.3107 46.5001 30.666 46.5001Z" fill="#FFE24F"/>
<g clip-path="url(#clip0)">
<path d="M45.8617 48.8697C46.0614 48.6698 46.3386 48.5549 46.6211 48.5549C46.9036 48.5549 47.1808 48.6698 47.3806 48.8697C47.5804 49.0696 47.6953 49.3466 47.6953 49.6292C47.6953 49.9117 47.5805 50.1888 47.3806 50.3885C47.1808 50.5883 46.9036 50.7034 46.6211 50.7034C46.3386 50.7034 46.0614 50.5884 45.8617 50.3885C45.6619 50.1888 45.5469 49.9117 45.5469 49.6292C45.5469 49.3466 45.6618 49.0695 45.8617 48.8697Z" fill="black"/>
<path d="M4.5628 19.6517C4.7626 19.4517 5.03867 19.3369 5.32227 19.3369C5.60479 19.3369 5.88193 19.4517 6.08174 19.6517C6.28144 19.8515 6.39648 20.1286 6.39648 20.4111C6.39648 20.6937 6.28154 20.9708 6.08174 21.1705C5.88193 21.3703 5.60479 21.4854 5.32227 21.4854C5.03867 21.4854 4.7626 21.3704 4.5628 21.1705C4.36203 20.9708 4.24708 20.6937 4.24708 20.4111C4.24708 20.1286 4.36203 19.8515 4.5628 19.6517Z" fill="black"/>
<path d="M0.314083 0.314761C0.515606 0.113345 0.788887 0.00012207 1.07388 0.00012207L27.499 0.00151855C28.0922 0.00151855 28.5731 0.482554 28.5731 1.07574V4.14768L38.7555 6.87609C39.3286 7.0297 39.6687 7.6187 39.5151 8.19168L34.2378 27.8866L38.8031 32.4519C39.3842 31.6035 40.3598 31.0456 41.4633 31.0456H51.7755C53.5525 31.0456 54.998 32.4913 54.998 34.2681V51.7775C54.998 53.5544 53.5525 55.0001 51.7755 55.0001H41.4632C39.9536 55.0001 38.6837 53.9564 38.3356 52.5531L37.0584 53.6669C36.0724 54.5267 34.8091 55.0002 33.5008 55.0002H1.07367C0.480484 55.0002 -0.000553131 54.5192 -0.000553131 53.926V1.07434C-0.000339508 0.789458 0.112667 0.516177 0.314083 0.314761ZM40.3892 51.7776C40.3892 52.3698 40.8711 52.8518 41.4634 52.8518H51.7756C52.3679 52.8518 52.8498 52.3699 52.8498 51.7776V34.2682C52.8498 33.6759 52.3679 33.194 51.7756 33.194H47.6937V45.5685C47.6937 46.1617 47.2126 46.6427 46.6195 46.6427C46.0263 46.6427 45.5452 46.1617 45.5452 45.5685V33.194H41.4633C40.871 33.194 40.3891 33.6759 40.3891 34.2682V51.7776H40.3892ZM37.1619 8.67326L28.5731 6.37185V10.3524L29.2931 10.5453C29.5684 10.6191 29.8029 10.799 29.9453 11.0458C30.0878 11.2925 30.1264 11.5857 30.0526 11.8609C29.6398 13.4014 30.5573 14.9905 32.0979 15.4033C32.3734 15.4773 32.6083 15.6575 32.7507 15.9048C32.893 16.152 32.9313 16.4457 32.8569 16.7211L28.6697 32.2261H30.8257L31.9367 27.8794C31.9721 27.7411 32.0339 27.6136 32.1168 27.5027L37.1619 8.67326ZM28.5731 15.2786V24.343L30.5324 17.0883C29.7139 16.6657 29.0442 16.0334 28.5731 15.2786ZM13.1405 52.8517H33.501C34.29 52.8517 35.052 52.5662 35.6466 52.0476L38.2408 49.7852V34.928L33.5509 30.2382L32.7004 33.5661C32.5788 34.0417 32.1505 34.3743 31.6597 34.3743L10.5401 34.3756C9.71081 34.3756 9.03621 35.0502 9.03621 35.8795C9.03621 36.7088 9.71081 37.3834 10.5401 37.3834H21.3618C21.955 37.3834 22.436 37.8644 22.436 38.4576C22.436 39.0508 21.955 39.5318 21.3618 39.5318H7.1778C6.34851 39.5318 5.6739 40.2064 5.6739 41.0357C5.6739 41.865 6.34851 42.5396 7.1778 42.5396H21.3618C21.955 42.5396 22.436 43.0206 22.436 43.6138C22.436 44.207 21.955 44.6881 21.3618 44.6881H9.47631C8.64701 44.6881 7.9724 45.3627 7.9724 46.192C7.9724 47.0213 8.64701 47.6959 9.47631 47.6959H21.3618C21.955 47.6959 22.436 48.1769 22.436 48.7701C22.436 49.3633 21.955 49.8443 21.3618 49.8443H13.1405C12.3112 49.8443 11.6366 50.5189 11.6366 51.3482C11.6367 52.1771 12.3113 52.8517 13.1405 52.8517ZM2.14788 52.8517H2.14799H9.81351C9.60522 52.3927 9.48824 51.8838 9.48824 51.3478C9.48824 50.8117 9.60522 50.3029 9.81351 49.8439H9.47631C7.46247 49.8439 5.82407 48.2055 5.82407 46.1916C5.82407 45.6043 5.96426 45.0492 6.21176 44.557C4.66531 44.1323 3.52568 42.7148 3.52568 41.0355C3.52568 40.2208 3.79402 39.4677 4.24659 38.8597V25.245C4.24659 24.6518 4.72762 24.1708 5.3208 24.1708C5.91399 24.1708 6.39502 24.6518 6.39502 25.245V37.4688C6.64746 37.4134 6.90925 37.3834 7.17802 37.3834H7.21325C7.00496 36.9244 6.88798 36.4155 6.88798 35.8795C6.88798 33.8655 8.52638 32.2272 10.5402 32.2272H12.267C10.4334 31.4409 9.14566 29.6184 9.14566 27.5001C9.14566 24.6654 11.4518 22.3591 14.2866 22.3591C17.1212 22.3591 19.4274 24.6654 19.4274 27.5001C19.4274 29.6184 18.1396 31.4409 16.3061 32.2272H22.1781V11.8018C20.2591 11.3836 18.7449 9.86951 18.3268 7.95042H10.2464C9.82833 9.86951 8.31411 11.3836 6.39513 11.8018V15.1416C6.39513 15.7347 5.91409 16.2158 5.32091 16.2158C4.72773 16.2158 4.24669 15.7347 4.24669 15.1416V10.8427C4.24669 10.2496 4.72773 9.76853 5.32091 9.76853C6.9158 9.76853 8.21313 8.47098 8.21313 6.8762C8.21313 6.28301 8.69417 5.80198 9.28735 5.80198H19.2858C19.8789 5.80198 20.36 6.28301 20.36 6.8762C20.36 8.47109 21.6574 9.76853 23.2522 9.76853C23.8454 9.76853 24.3264 10.2496 24.3264 10.8427V32.2271H26.4246V2.14974L2.14788 2.14856V52.8517ZM14.2863 30.4927C15.9364 30.4927 17.2788 29.1502 17.2788 27.5002C17.2788 25.8502 15.9363 24.5077 14.2863 24.5077C12.6363 24.5077 11.2939 25.8501 11.2939 27.5001C11.2939 29.1501 12.6362 30.4927 14.2863 30.4927Z" fill="#363636"/>
</g>
<defs>
<clipPath id="clip0">
<rect width="55" height="55" fill="white" transform="matrix(-1 0 0 1 55 0.00012207)"/>
</clipPath>
</defs>
</svg>
