<svg width="59" height="45" viewBox="0 0 59 45" fill="none" xmlns="http://www.w3.org/2000/svg">
<path d="M15 36.5C23.2843 36.5 30 29.7843 30 21.5C30 13.2157 23.2843 6.5 15 6.5C6.71573 6.5 0 13.2157 0 21.5C0 29.7843 6.71573 36.5 15 36.5Z" fill="#FFE24F"/>
<g clip-path="url(#clip0)">
<path d="M50.4843 19.5085L42.8205 10.8366C42.6537 10.6478 42.4138 10.5397 42.1619 10.5397H14.8377C14.5858 10.5397 14.3459 10.6478 14.1791 10.8366L6.51523 19.5085C6.28636 19.7675 6.23055 20.1365 6.37258 20.4517C6.42611 20.5705 6.50415 20.6732 6.59908 20.7552C6.60092 20.7572 6.60233 20.7595 6.60417 20.7616L27.8422 44.7043C28.0091 44.8924 28.2484 45 28.4998 45C28.7511 45 28.9904 44.8923 29.1573 44.7043L50.3953 20.7616C50.3972 20.7596 50.3987 20.7573 50.4004 20.7552C50.4953 20.6732 50.5733 20.5705 50.6269 20.4517C50.769 20.1365 50.7131 19.7675 50.4843 19.5085ZM40.6034 12.2974L36.6975 18.5942L30.4379 12.2974H40.6034ZM34.8326 19.2116H22.1669L28.4998 12.841L34.8326 19.2116ZM26.5616 12.2975L20.302 18.5943L16.3961 12.2975H26.5616ZM14.7013 12.9001L18.6164 19.2116H9.12347L14.7013 12.9001ZM9.13824 20.9694H19.525L26.7 40.7677L9.13824 20.9694ZM30.3321 40.731L35.3452 27.1631C35.5134 26.7078 35.2807 26.2023 34.8254 26.0341C34.3699 25.8657 33.8645 26.0985 33.6964 26.5539L28.5077 40.5968L21.3947 20.9694H47.8613L30.3321 40.731ZM38.3831 19.2116L42.2982 12.9001L47.876 19.2116H38.3831Z" fill="#363636"/>
<path d="M28.5 0C28.0147 0 27.6211 0.393486 27.6211 0.878906V5.40642C27.6211 5.89184 28.0147 6.28532 28.5 6.28532C28.9853 6.28532 29.3789 5.89184 29.3789 5.40642V0.878906C29.3789 0.393486 28.9853 0 28.5 0Z" fill="#363636"/>
<path d="M36.5032 3.47378C36.16 3.13057 35.6037 3.13057 35.2602 3.47378L32.0587 6.6752C31.7155 7.01841 31.7155 7.57493 32.0587 7.91815C32.2304 8.0898 32.4553 8.17558 32.6802 8.17558C32.9052 8.17558 33.1301 8.08971 33.3017 7.91815L36.5032 4.71673C36.8464 4.37352 36.8464 3.81699 36.5032 3.47378Z" fill="#363636"/>
<path d="M24.7697 6.6752L21.5683 3.47378C21.2252 3.13057 20.6688 3.13057 20.3253 3.47378C19.9821 3.81699 19.9821 4.37352 20.3253 4.71673L23.5268 7.91815C23.6984 8.0898 23.9233 8.17558 24.1483 8.17558C24.3732 8.17558 24.5981 8.08971 24.7697 7.91815C25.1129 7.57493 25.1129 7.01841 24.7697 6.6752Z" fill="#363636"/>
<path d="M35.6567 24.4652C36.1421 24.4652 36.5356 24.0717 36.5356 23.5863C36.5356 23.1009 36.1421 22.7074 35.6567 22.7074C35.1713 22.7074 34.7778 23.1009 34.7778 23.5863C34.7778 24.0717 35.1713 24.4652 35.6567 24.4652Z" fill="#363636"/>
</g>
<path d="M57.8594 9.68555C58.0879 9.68555 58.3164 9.59766 58.4922 9.42188C58.8438 9.07031 58.8438 8.49023 58.4922 8.13867L55.4863 5.13281L58.5098 2.10937C58.8613 1.75781 58.8613 1.17773 58.5098 0.826172C58.1582 0.474609 57.5781 0.474609 57.2266 0.826172L54.2031 3.84961L51.1797 0.826172C50.8281 0.474609 50.248 0.474609 49.8965 0.826172C49.5449 1.17773 49.5449 1.75781 49.8965 2.10937L52.9199 5.13281L49.8965 8.13867C49.5449 8.49023 49.5449 9.07031 49.8965 9.42188C50.0723 9.59766 50.3008 9.68555 50.5293 9.68555C50.7578 9.68555 50.9863 9.59766 51.1621 9.42188L54.1855 6.39844L57.209 9.42188C57.4023 9.59766 57.6309 9.68555 57.8594 9.68555Z" fill="#363636"/>
<defs>
<clipPath id="clip0">
<rect width="45" height="45" fill="white" transform="translate(6)"/>
</clipPath>
</defs>
</svg>
