<svg width="55" height="56" viewBox="0 0 55 56" fill="none" xmlns="http://www.w3.org/2000/svg">
<path d="M18.75 55.5001C29.1053 55.5001 37.5 47.1055 37.5 36.7501C37.5 26.3948 29.1053 18.0001 18.75 18.0001C8.39466 18.0001 0 26.3948 0 36.7501C0 47.1055 8.39466 55.5001 18.75 55.5001Z" fill="#FFE24F"/>
<g clip-path="url(#clip0)">
<path fill-rule="evenodd" clip-rule="evenodd" d="M23.4097 50.1322C13.3993 48.3354 5.89826 40.2309 4.68179 30.3397L5.56131 31.2498C5.97379 31.6762 6.65399 31.6879 7.08074 31.2758C7.50707 30.8634 7.51882 30.1832 7.10634 29.7564L4.20804 26.7582C4.01712 26.5598 3.75066 26.4347 3.45483 26.4293C3.4435 26.4289 3.43217 26.4289 3.42084 26.4293C3.14977 26.4322 2.90303 26.5363 2.71546 26.7045C2.71546 26.705 2.71546 26.705 2.71504 26.7054C2.71462 26.7054 2.71421 26.7058 2.71421 26.7062C2.68819 26.7297 2.66301 26.7545 2.63909 26.7809L2.63867 26.7813C2.63825 26.7817 2.63783 26.7822 2.63742 26.7826C2.60175 26.822 2.56902 26.864 2.53922 26.9085L0.18853 30.3363C-0.147164 30.8256 -0.0225373 31.4945 0.466736 31.8297C0.956429 32.1654 1.62488 32.0408 1.96015 31.5515L2.56146 30.675C3.17159 35.4632 5.15176 40.0064 8.2884 43.7188C12.0658 48.1898 17.3009 51.2182 23.0304 52.2466C23.0946 52.2584 23.1584 52.2638 23.2213 52.2638C23.7316 52.2638 24.1843 51.8992 24.2775 51.3793C24.3824 50.7952 23.9938 50.2367 23.4097 50.1322Z" fill="#363636"/>
<path fill-rule="evenodd" clip-rule="evenodd" d="M3.8145 23.0921C3.89591 23.1114 3.97773 23.1202 4.05788 23.1202C4.54673 23.1202 4.98817 22.7849 5.10356 22.2885C7.17983 13.3339 14.3658 6.49914 23.4106 4.87522C23.9947 4.77031 24.3833 4.2118 24.2784 3.62812C24.1735 3.04401 23.615 2.65586 23.0313 2.76077C18.1881 3.6298 13.7363 5.89279 10.157 9.3047C6.58901 12.7061 4.11788 17.0282 3.01051 21.8034C2.87624 22.3812 3.23627 22.9582 3.8145 23.0921Z" fill="#363636"/>
<path fill-rule="evenodd" clip-rule="evenodd" d="M51.1861 31.9145C50.6083 31.7798 50.0313 32.1402 49.897 32.718C47.8207 41.6727 40.6348 48.5074 31.5895 50.1313C31.0058 50.2362 30.6173 50.7947 30.7222 51.3784C30.8153 51.8983 31.2681 52.2629 31.7784 52.2629C31.8413 52.2629 31.9051 52.2575 31.9693 52.2457C36.8121 51.3767 41.2642 49.1137 44.8431 45.7018C48.4116 42.3004 50.8827 37.9783 51.99 33.2031C52.1239 32.6253 51.7639 32.0483 51.1861 31.9145Z" fill="#363636"/>
<path fill-rule="evenodd" clip-rule="evenodd" d="M54.5329 23.1768C54.0436 22.8411 53.3748 22.9657 53.0391 23.455L52.4382 24.3316C51.8281 19.5433 49.8479 15.0001 46.7113 11.2878C42.9339 6.81677 37.6983 3.7884 31.9693 2.75991C31.3856 2.65501 30.8271 3.04316 30.7222 3.62726C30.6173 4.21137 31.0058 4.76946 31.5895 4.87436C41.5999 6.67117 49.1014 14.7757 50.3179 24.6669L49.4379 23.7567C49.0259 23.33 48.3457 23.3186 47.9189 23.7307C47.4922 24.1432 47.4808 24.823 47.8933 25.2497L50.7916 28.2483C50.9804 28.4443 51.2427 28.5689 51.5343 28.5769C51.5444 28.5773 51.5549 28.5773 51.565 28.5773H51.5872H51.5876C51.8549 28.5718 52.0983 28.4686 52.2834 28.302C52.3111 28.2773 52.3375 28.2508 52.3622 28.2231H52.3627C52.3631 28.2223 52.3635 28.2219 52.3639 28.221C52.3988 28.1824 52.4311 28.1413 52.46 28.0981L54.8111 24.6702C55.1464 24.181 55.0222 23.5125 54.5329 23.1768Z" fill="#363636"/>
<path fill-rule="evenodd" clip-rule="evenodd" d="M27.5 50.4948C26.9083 50.4948 26.4258 50.9773 26.4258 51.569C26.4258 52.1606 26.9083 52.6432 27.5 52.6432C28.0917 52.6432 28.5742 52.1606 28.5742 51.569C28.5742 50.9773 28.0917 50.4948 27.5 50.4948Z" fill="#363636"/>
<path fill-rule="evenodd" clip-rule="evenodd" d="M27.5 4.51184C28.0917 4.51184 28.5742 4.02928 28.5742 3.43762C28.5742 2.84596 28.0917 2.3634 27.5 2.3634C26.9083 2.3634 26.4258 2.84596 26.4258 3.43762C26.4258 4.02928 26.9083 4.51184 27.5 4.51184Z" fill="#363636"/>
</g>
<path fill-rule="evenodd" clip-rule="evenodd" d="M18.2014 18.2488C19.0103 17.4414 20.1274 16.9425 21.3614 16.9425C22.5954 16.9425 23.7125 17.4414 24.5214 18.2488C25.3299 19.0561 25.8302 20.171 25.8302 21.4026C25.8302 22.6338 25.3299 23.7491 24.5214 24.556C23.7125 25.3634 22.5954 25.8627 21.3614 25.8627C20.1274 25.8627 19.0103 25.3634 18.2014 24.556C17.3929 23.7491 16.8926 22.6338 16.8926 21.4026C16.8926 20.171 17.3929 19.0561 18.2014 18.2488ZM21.3614 19.0876C22.0022 19.0876 22.5819 19.3469 23.0015 19.7657C23.4211 20.1845 23.6805 20.7631 23.6805 21.4026C23.6805 22.0417 23.4211 22.6208 23.0015 23.0395C22.5819 23.4583 22.0022 23.7172 21.3614 23.7172C20.7211 23.7172 20.1409 23.4579 19.7213 23.0395C19.3017 22.6208 19.0423 22.0417 19.0423 21.4026C19.0423 20.7631 19.3017 20.1845 19.7213 19.7657C20.1409 19.3469 20.7211 19.0876 21.3614 19.0876ZM20.4671 36.3985L33 17.4284C33.3246 16.9354 33.988 16.7986 34.482 17.1225C34.976 17.4465 35.1131 18.1086 34.7885 18.6017L22.2557 37.5717C21.9311 38.0648 21.2677 38.2015 20.7736 37.8776C20.2796 37.5537 20.1426 36.8915 20.4671 36.3985ZM30.7342 30.4437C31.5427 29.6367 32.6603 29.1374 33.8942 29.1374C35.1282 29.1374 36.2453 29.6367 37.0538 30.4437C37.8628 31.251 38.3631 32.3659 38.3631 33.5975C38.3631 34.8291 37.8628 35.944 37.0538 36.7514C36.2453 37.5583 35.1282 38.0576 33.8942 38.0576C32.6603 38.0576 31.5432 37.5583 30.7342 36.7514C29.9257 35.944 29.4254 34.8291 29.4254 33.5975C29.4254 32.3664 29.9257 31.251 30.7342 30.4437ZM33.8942 31.2829C34.5346 31.2829 35.1148 31.5422 35.534 31.9606C35.954 32.3798 36.2134 32.9584 36.2134 33.5975C36.2134 34.237 35.954 34.8157 35.534 35.2344C35.1148 35.6532 34.5346 35.9121 33.8942 35.9121C33.2535 35.9121 32.6737 35.6532 32.2541 35.2344C31.8345 34.8157 31.5747 34.237 31.5747 33.5975C31.5747 32.9584 31.8345 32.3794 32.2541 31.9606C32.6737 31.5418 33.2535 31.2829 33.8942 31.2829Z" fill="#363636"/>
<defs>
<clipPath id="clip0">
<rect width="55" height="55" fill="white" transform="translate(0 0.00012207)"/>
</clipPath>
</defs>
</svg>
