<svg width="45" height="45" viewBox="0 0 45 45" fill="none" xmlns="http://www.w3.org/2000/svg">
<path d="M30 38.5C38.2843 38.5 45 31.7843 45 23.5C45 15.2157 38.2843 8.5 30 8.5C21.7157 8.5 15 15.2157 15 23.5C15 31.7843 21.7157 38.5 30 38.5Z" fill="#FFE24F"/>
<g clip-path="url(#clip0)">
<path d="M11.0474 11.0737C10.5622 11.0737 10.1685 11.4675 10.1685 11.9526C10.1685 12.4378 10.5622 12.8315 11.0474 12.8315C11.5325 12.8315 11.9263 12.4378 11.9263 11.9526C11.9263 11.4675 11.5325 11.0737 11.0474 11.0737Z" fill="#363636"/>
<path d="M18.9571 27.5084H16.3205V24.8718C16.3205 24.3865 15.927 23.9929 15.4416 23.9929C14.9563 23.9929 14.5628 24.3865 14.5628 24.8718V27.5084H11.9263C11.4409 27.5084 11.0474 27.9019 11.0474 28.3872C11.0474 28.8724 11.4409 29.2661 11.9263 29.2661H14.5628V31.9026C14.5628 32.388 14.9564 32.7815 15.4416 32.7815C15.9269 32.7815 16.3205 32.388 16.3205 31.9026V29.2661H18.9571C19.4424 29.2661 19.836 28.8725 19.836 28.3872C19.836 27.9019 19.4425 27.5084 18.9571 27.5084Z" fill="#363636"/>
<path d="M42.6779 28.2994C40.7351 24.9344 36.4393 23.7828 33.0737 25.726L29.5038 27.7871V20.155C29.5038 19.2115 29.1918 18.2752 28.625 17.5184L24.2307 11.6596V9.16471C25.2536 8.8019 25.9884 7.82508 25.9884 6.67925V2.63654C25.9883 1.18274 24.8055 0 23.3517 0H7.53221C6.07841 0 4.89558 1.18274 4.89558 2.63654V6.67934C4.89558 7.82499 5.63043 8.80198 6.6533 9.16479V11.6597L2.25868 17.5189C1.69214 18.2753 1.38013 19.2115 1.38013 20.155V37.1759C1.38013 39.5989 3.35143 41.5702 5.77439 41.5702H19.8986C21.8692 44.8734 26.1184 45.9788 29.4491 44.0556L40.1046 37.9035C43.4405 35.9771 44.6305 31.6827 42.6779 28.2994ZM6.6533 2.63654C6.6533 2.15191 7.04758 1.75764 7.53212 1.75764H23.3516C23.8363 1.75764 24.2305 2.15191 24.2305 2.63654V6.67934C24.2305 7.16397 23.8363 7.55815 23.3516 7.55815H7.53221C7.04758 7.55815 6.65339 7.16388 6.65339 6.67934V2.63654H6.6533ZM3.66528 18.573L8.23524 12.4799C8.34933 12.3278 8.41103 12.1427 8.41103 11.9525V9.31597H22.4728V11.0737H14.5631C14.0778 11.0737 13.6842 11.4673 13.6842 11.9526C13.6842 12.4379 14.0778 12.8315 14.5631 12.8315H22.9123L27.2183 18.5727C27.4997 18.9484 27.6745 19.398 27.7274 19.8624H3.15657C3.20931 19.3979 3.38412 18.9483 3.66528 18.573ZM5.77448 39.8124C4.32068 39.8124 3.13794 38.6297 3.13794 37.1759V36.2883H19.1055C18.8268 37.4278 18.8286 38.6449 19.1477 39.8125H5.77448V39.8124ZM19.7948 34.5393H3.13785V21.62H27.746V28.8018L22.4182 31.8781C21.3073 32.5198 20.4094 33.4332 19.7948 34.5393ZM28.5704 42.5333C26.0482 43.9898 22.8253 43.1285 21.3679 40.6045C19.9035 38.0562 20.7909 34.8478 23.2972 33.4002L28.0677 30.6459L33.3408 39.779L28.5704 42.5333ZM39.2257 36.3814L34.8631 38.9002L29.5899 29.7669L33.9526 27.2483C36.4764 25.7912 39.6982 26.6541 41.1556 29.1781C42.6195 31.7148 41.7293 34.9356 39.2257 36.3814Z" fill="#363636"/>
</g>
<defs>
<clipPath id="clip0">
<rect width="45" height="45" fill="white"/>
</clipPath>
</defs>
</svg>
