<svg width="48" height="48" viewBox="0 0 48 48" fill="none" xmlns="http://www.w3.org/2000/svg">
<path d="M21 40.5C29.2843 40.5 36 33.7843 36 25.5C36 17.2157 29.2843 10.5 21 10.5C12.7157 10.5 6 17.2157 6 25.5C6 33.7843 12.7157 40.5 21 40.5Z" fill="#FFE24F"/>
<path d="M19.0859 23.6016C19.2441 23.4258 19.3496 23.1973 19.332 22.9688L19.3145 22.2832V22.2656C19.3145 21.8613 19.2441 19.7871 19.0332 18.4512C18.875 17.5195 18.2773 16.7109 17.416 16.2891C16.6426 15.9023 15.4648 15.4453 14.5156 15.1113C14.6562 14.8828 14.7793 14.6543 14.8848 14.4082C15.4297 14.1445 15.8691 13.6875 16.0977 13.1602C16.3086 12.7734 16.4141 12.334 16.4141 11.8945C16.4141 11.6133 16.3613 11.3145 16.2734 11.0508C16.2207 10.8223 16.1152 10.5937 15.9746 10.4004C16.0801 9.1875 15.7285 7.95703 14.9727 6.99023C14.0234 5.77734 12.582 5.07422 10.9648 5.03906H10.5957C9.01367 5.07422 7.57227 5.79492 6.62305 6.99023C5.90234 7.92188 5.55078 9.15234 5.65625 10.3828C5.51562 10.5762 5.42773 10.8047 5.35742 11.0332C5.26953 11.2969 5.2168 11.5957 5.2168 11.877C5.2168 12.3164 5.32227 12.7559 5.49805 13.0898C5.74414 13.6699 6.18359 14.127 6.72852 14.3906C6.83398 14.6367 6.95703 14.8828 7.09766 15.0938C6.11328 15.4453 4.95312 15.9023 4.19727 16.2715C3.35352 16.6934 2.73828 17.502 2.58008 18.4336C2.35156 19.7871 2.29883 21.8613 2.28125 22.2656L2.26367 22.9512C2.26367 23.1973 2.35156 23.4258 2.50977 23.584C2.66797 23.7598 2.89648 23.8477 3.14258 23.8477H18.418C18.6992 23.8652 18.9277 23.7773 19.0859 23.6016ZM4.0918 22.0898C4.10937 21.4746 4.17969 19.8047 4.35547 18.75C4.42578 18.3633 4.67188 18.0469 5.00586 17.8711C6.02539 17.3613 7.99414 16.6582 8.80273 16.377C9.1543 16.2539 9.40039 15.9199 9.40039 15.5332V15.375C9.40039 15.1113 9.29492 14.8828 9.10156 14.707C8.73242 14.3906 8.46875 13.9512 8.32812 13.459C8.24023 13.1602 8.01172 12.9316 7.71289 12.8438C7.4668 12.7734 7.25586 12.5977 7.11523 12.2988C7.04492 12.1582 7.00977 12 7.00977 11.8418C7.00977 11.7363 7.02734 11.6484 7.0625 11.543C7.08008 11.5078 7.08008 11.4902 7.08008 11.4551C7.09766 11.3848 7.13281 11.3145 7.18555 11.2793C7.41406 11.0684 7.51953 10.7695 7.4668 10.4531C7.30859 9.5918 7.51953 8.69531 8.06445 8.00977C8.67969 7.21875 9.62891 6.76172 10.6484 6.72656H10.9648C12.0195 6.74414 12.9688 7.21875 13.584 8.00977C14.1113 8.69531 14.3398 9.5918 14.1816 10.4531C14.1289 10.752 14.2344 11.0684 14.4629 11.2793C14.5156 11.332 14.5508 11.3848 14.5684 11.4551C14.5684 11.4902 14.5859 11.5254 14.6035 11.5605C14.6387 11.6484 14.6562 11.7539 14.6562 11.8418C14.6562 12 14.6211 12.1582 14.5156 12.3516C14.4102 12.5977 14.1992 12.7734 13.9531 12.8438C13.6543 12.9316 13.4258 13.1602 13.3379 13.459C13.1973 13.9512 12.9336 14.373 12.5469 14.707C12.3535 14.8828 12.248 15.1113 12.248 15.375V15.5332C12.248 15.9023 12.4941 16.2539 12.8457 16.377C13.4609 16.5879 15.5703 17.3262 16.6426 17.8711C16.9766 18.0469 17.2227 18.3633 17.293 18.75C17.4512 19.6289 17.5215 21.0527 17.5566 22.0898H4.0918Z" fill="black"/>
<path d="M46.7012 22.2832C46.7012 22.2832 46.7012 22.2656 46.7012 22.2832C46.6836 21.8613 46.6309 19.7871 46.4023 18.4512C46.2441 17.5195 45.6465 16.7109 44.7852 16.2891C44.0117 15.9023 42.834 15.4453 41.8848 15.1113C42.0254 14.8828 42.1484 14.6543 42.2539 14.4082C42.7988 14.1445 43.2383 13.6875 43.4668 13.1602C43.6777 12.7734 43.7832 12.334 43.7832 11.8945C43.7832 11.6133 43.7305 11.3145 43.6426 11.0508C43.5898 10.8223 43.4844 10.5937 43.3437 10.4004C43.4492 9.1875 43.0977 7.95703 42.3418 6.99023C41.3926 5.77734 39.9512 5.07422 38.334 5.03906H37.9648C36.3828 5.07422 34.9414 5.79492 33.9922 6.99023C33.2363 7.95703 32.8848 9.1875 32.9902 10.418C32.8496 10.6113 32.7617 10.8223 32.6914 11.0684C32.6035 11.332 32.5508 11.6309 32.5508 11.9121C32.5508 12.3516 32.6562 12.791 32.832 13.125C33.0781 13.7051 33.5176 14.1621 34.0625 14.4258C34.168 14.6719 34.291 14.918 34.4316 15.1289C33.4473 15.4805 32.2871 15.9375 31.5312 16.3066C30.6875 16.7285 30.0723 17.5371 29.9141 18.4687C29.6855 19.8223 29.6328 21.8965 29.6152 22.3008L29.5977 22.9863C29.5977 23.2324 29.6855 23.4609 29.8437 23.6191C30.002 23.7949 30.2305 23.8828 30.4766 23.8828H45.752C45.998 23.8828 46.209 23.7949 46.3848 23.6191C46.543 23.4434 46.6484 23.2148 46.6309 22.9863L46.7012 22.2832ZM31.4434 22.0898C31.4609 21.4746 31.5312 19.8223 31.707 18.75C31.7773 18.3633 32.0234 18.0469 32.3574 17.8711C33.377 17.3613 35.3457 16.6582 36.1543 16.377C36.5059 16.2539 36.752 15.9199 36.752 15.5332V15.375C36.752 15.1113 36.6465 14.8828 36.4531 14.707C36.084 14.3906 35.8027 13.9512 35.6797 13.459C35.5918 13.1602 35.3633 12.9316 35.0645 12.8437C34.8184 12.7734 34.6074 12.5977 34.4668 12.2988C34.3965 12.1582 34.3613 12 34.3613 11.8418C34.3613 11.7363 34.3789 11.6484 34.4141 11.543C34.4316 11.5078 34.4316 11.4902 34.4492 11.4551C34.4668 11.3848 34.502 11.332 34.5547 11.2793C34.7832 11.0684 34.8887 10.7695 34.8359 10.4531C34.6777 9.5918 34.8887 8.69531 35.4336 8.00977C36.0488 7.21875 36.998 6.76172 38.0176 6.72656H38.334C39.3887 6.74414 40.3379 7.21875 40.9531 8.00977C41.4805 8.69531 41.709 9.5918 41.5508 10.4531C41.498 10.752 41.6035 11.0684 41.832 11.2793C41.8848 11.332 41.9199 11.3848 41.9375 11.4551C41.9375 11.4902 41.9551 11.5254 41.9727 11.5605C42.0078 11.6484 42.0254 11.7539 42.0254 11.8418C42.0254 12 41.9902 12.1582 41.8848 12.3516C41.7793 12.5977 41.5684 12.7734 41.3223 12.8437C41.0234 12.9316 40.7949 13.1602 40.707 13.459C40.5664 13.9512 40.3027 14.373 39.916 14.707C39.7227 14.8828 39.6172 15.1113 39.6172 15.375V15.5332C39.6172 15.9023 39.8633 16.2539 40.2148 16.377C40.8301 16.5879 42.9395 17.3262 44.0117 17.8711C44.3457 18.0469 44.5918 18.3633 44.6621 18.75C44.8203 19.6289 44.8906 21.0527 44.9258 22.0898H31.4434Z" fill="black"/>
<path d="M32.7266 40.582C32.5684 39.6504 31.9531 38.8418 31.1094 38.4199C30.3535 38.0508 29.1934 37.5938 28.209 37.2422C28.3496 37.0137 28.4727 36.7852 28.5781 36.5391C29.123 36.2578 29.5625 35.8184 29.791 35.291C30.002 34.9043 30.1074 34.4648 30.1074 34.0254C30.1074 33.7266 30.0547 33.4453 29.9668 33.1641C29.9141 32.9355 29.8086 32.7246 29.668 32.5313C29.7734 31.3184 29.4219 30.0879 28.666 29.1035C27.7168 27.8906 26.2754 27.1875 24.6582 27.1523H24.2891C22.707 27.1875 21.2656 27.9082 20.3164 29.1035C19.5605 30.0703 19.209 31.3008 19.3145 32.5313C19.1738 32.7246 19.0859 32.9355 19.0156 33.1816C18.9277 33.4629 18.875 33.7441 18.875 34.0254C18.875 34.4648 18.9805 34.9043 19.1563 35.2383C19.4023 35.8184 19.8418 36.2754 20.3867 36.5391C20.4922 36.7852 20.6152 37.0313 20.7559 37.2422C19.7715 37.5938 18.6113 38.0508 17.8555 38.4199C17.0117 38.8418 16.4141 39.6504 16.2383 40.582C16.0098 41.9355 15.957 43.9922 15.9395 44.4141L15.9219 45.0996C15.9219 45.3457 16.0098 45.5742 16.168 45.7324C16.3262 45.9082 16.5547 45.9961 16.8008 45.9961H32.0762C32.3223 45.9961 32.5332 45.9082 32.709 45.7324C32.8672 45.5566 32.9727 45.3281 32.9551 45.0996L32.9375 44.3965C33.0078 44.0098 32.9551 41.9355 32.7266 40.582ZM17.7676 44.2383C17.7852 43.623 17.8555 41.9531 18.0313 40.8984C18.1016 40.5117 18.3477 40.1953 18.6816 40.0195C19.7012 39.5098 21.6699 38.8066 22.4785 38.5254C22.8301 38.4023 23.0762 38.0684 23.0762 37.6816V37.5234C23.0762 37.2598 22.9707 37.0313 22.7773 36.8555C22.4082 36.5391 22.127 36.0996 22.0039 35.6074C21.916 35.3086 21.6875 35.0801 21.3887 34.9922C21.1426 34.9219 20.9316 34.7461 20.791 34.4473C20.7207 34.3066 20.6855 34.1484 20.6855 33.9902C20.6855 33.8848 20.7031 33.7969 20.7383 33.6914C20.7559 33.6563 20.7559 33.6387 20.7559 33.6035C20.7734 33.5332 20.8086 33.4629 20.8613 33.4277C21.0898 33.2168 21.1953 32.918 21.1426 32.6016C20.9844 31.7402 21.1953 30.8438 21.7402 30.1582C22.3555 29.3672 23.3047 28.9102 24.3242 28.875H24.6406C25.6953 28.8926 26.6445 29.3672 27.2598 30.1582C27.8047 30.8438 28.0156 31.7402 27.8574 32.6016C27.8047 32.9004 27.9102 33.2168 28.1387 33.4277C28.1914 33.4805 28.2266 33.5332 28.2441 33.6035C28.2441 33.6387 28.2617 33.6738 28.2793 33.709C28.3145 33.7969 28.332 33.9023 28.332 33.9902C28.332 34.1484 28.2969 34.3066 28.1914 34.5C28.0859 34.7461 27.875 34.9219 27.6289 34.9922C27.3301 35.0801 27.1016 35.3086 27.0137 35.6074C26.873 36.0996 26.6094 36.5215 26.2227 36.8555C26.0293 37.0313 25.9238 37.2598 25.9238 37.5234V37.6816C25.9238 38.0508 26.1699 38.4023 26.5215 38.5254C27.3125 38.8066 29.2988 39.5098 30.3184 40.0195C30.6699 40.1953 30.8984 40.5117 30.9688 40.8984C31.127 41.7773 31.1973 43.2012 31.2324 44.2383H17.7676Z" fill="black"/>
<path d="M39.7226 26.1329C39.248 26.0802 38.8086 26.4317 38.7559 26.9239C38.3867 30.6153 36.6289 33.9728 33.8164 36.3634C33.4473 36.6798 33.3945 37.2423 33.7109 37.6114C33.8867 37.8224 34.1328 37.9278 34.3789 37.9278C34.5898 37.9278 34.7832 37.8575 34.959 37.7169C38.1406 35.0099 40.1094 31.2482 40.5137 27.0997C40.5488 26.6075 40.1973 26.1681 39.7226 26.1329Z" fill="black"/>
<path d="M10.2618 26.9239C10.2091 26.4317 9.76964 26.0802 9.29503 26.1329C8.80284 26.1857 8.45128 26.6075 8.50401 27.0997C8.90831 31.2482 10.8946 35.0274 14.0587 37.7169C14.2169 37.8575 14.4278 37.9278 14.6388 37.9278C14.8849 37.9278 15.131 37.8224 15.3067 37.6114C15.6232 37.2423 15.5704 36.6798 15.2013 36.3634C12.3888 33.9728 10.631 30.6153 10.2618 26.9239Z" fill="black"/>
<path d="M19.5077 12.0352C19.6132 12.0352 19.7011 12.0176 19.8065 11.9824C22.7948 10.9277 26.205 10.9277 29.1932 11.9824C29.6503 12.1406 30.16 11.9121 30.3182 11.4375C30.4764 10.9805 30.2479 10.4707 29.7733 10.3125C26.3983 9.11719 22.5663 9.11719 19.2089 10.3125C18.7518 10.4707 18.5058 10.9805 18.664 11.4375C18.8046 11.8066 19.1561 12.0352 19.5077 12.0352Z" fill="black"/>
</svg>
