<svg width="48" height="48" viewBox="0 0 48 48" fill="none" xmlns="http://www.w3.org/2000/svg">
<g clip-path="url(#clip0)">
<path d="M30 48.5C38.2843 48.5 45 41.7843 45 33.5C45 25.2157 38.2843 18.5 30 18.5C21.7157 18.5 15 25.2157 15 33.5C15 41.7843 21.7157 48.5 30 48.5Z" fill="#FFE24F"/>
<path d="M35.5 22.0501C34.9 22.2001 34.6 22.9501 34.9 23.5501C35.65 25.3501 35.95 27.3001 35.95 29.2501C35.95 38.2501 28.6 45.4501 19.75 45.4501C10.9 45.4501 3.55005 38.2501 3.55005 29.2501C3.55005 20.2501 10.75 13.0501 19.75 13.0501C21.4 13.0501 23.2 13.3501 24.85 13.8001C25.45 13.9501 26.05 13.6501 26.2 13.0501C26.35 12.4501 26.05 11.8501 25.45 11.7001C23.65 11.1001 21.7 10.8001 19.75 10.8001C9.55005 10.8001 1.30005 19.0501 1.30005 29.2501C1.30005 39.4501 9.55005 47.7001 19.75 47.7001C29.9501 47.7001 38.2 39.4501 38.2 29.2501C38.2 27.0001 37.75 24.7501 37 22.6501C36.85 22.2001 36.1 21.9001 35.5 22.0501ZM19.75 25.5001C20.35 25.5001 20.9501 25.0501 20.9501 24.3001C20.9501 23.5501 20.5 23.1001 19.75 23.1001C16.45 23.1001 13.75 25.8001 13.75 29.1001C13.75 32.4001 16.45 35.1001 19.75 35.1001C23.05 35.1001 25.75 32.4001 25.75 29.1001C25.75 28.5001 25.3 27.9001 24.55 27.9001C23.8 27.9001 23.5 28.6501 23.5 29.2501C23.5 31.3501 21.85 33.0001 19.75 33.0001C17.65 33.0001 16 31.3501 16 29.2501C16 27.1501 17.65 25.5001 19.75 25.5001ZM25.3 19.6501C25.6 19.0501 25.3 18.4501 24.7001 18.1501C23.2001 17.4001 21.4 17.1001 19.75 17.1001C13 17.1001 7.45005 22.5001 7.45005 29.2501C7.45005 36.0001 13 41.5501 19.75 41.5501C26.5 41.5501 32.05 36.0001 32.05 29.2501C32.05 27.4501 31.75 25.8001 31 24.3001C30.7 23.7001 30.1 23.4001 29.5 23.7001C28.9 24.0001 28.75 24.6001 28.9 25.2001C29.5 26.5501 29.8 27.9001 29.8 29.2501C29.8 34.8001 25.3 39.3001 19.75 39.3001C14.2 39.3001 9.70005 34.8001 9.70005 29.2501C9.70005 23.7001 14.2 19.2001 19.75 19.2001C21.25 19.2001 22.6 19.5001 23.8 20.1001C24.4 20.4001 25 20.1001 25.3 19.6501ZM45.7 12.1501C45.55 11.7001 45.25 11.4001 44.8 11.4001L38.65 10.3501L37.6 4.20006C37.6 3.75006 37.3 3.45006 36.85 3.30006C36.4 3.15006 35.95 3.30006 35.65 3.60006L28.3 10.9501C28 11.2501 27.85 11.5501 28 12.0001L29.2 18.3001L19.75 27.7501H19.6C18.7 27.7501 17.9501 28.5001 17.9501 29.4001C17.9501 30.3001 18.7 31.0501 19.6 31.0501C20.5 31.0501 21.25 30.3001 21.25 29.4001L30.85 19.8001L37 21.0001H37.15C37.45 21.0001 37.75 20.8501 37.9 20.7001L45.25 13.3501C45.7 13.0501 45.85 12.6001 45.7 12.1501ZM30.4 12.0001L35.8 6.60006L36.55 10.8001L31.3 16.0501L30.4 12.0001ZM37 18.6001L32.95 17.8501L38.2 12.6001L42.25 13.3501L37 18.6001Z" fill="#262324"/>
</g>
<defs>
<clipPath id="clip0">
<rect width="48" height="48" fill="white"/>
</clipPath>
</defs>
</svg>
