<svg width="84" height="81" viewBox="0 0 84 81" fill="none" xmlns="http://www.w3.org/2000/svg">
<path d="M40.5 81C62.8675 81 81 62.8675 81 40.5C81 18.1325 62.8675 0 40.5 0C18.1325 0 0 18.1325 0 40.5C0 62.8675 18.1325 81 40.5 81Z" fill="#FFE24F"/>
<path d="M62.2008 68.2312H84V46.8501H71.6007C71.715 34.7601 82.782 32.4766 82.782 32.4766C82.782 32.4766 82.8403 32.0716 82.782 24.7329C64.3312 28.3358 62.3665 42.4634 62.2067 46.8501H62.202V46.9712C62.1775 47.7217 62.202 48.1919 62.202 48.1919L62.2008 68.2312Z" fill="#241F20"/>
<path d="M28.0145 48.1931V68.2312H49.8125V46.8501H37.412C37.5263 34.7601 48.5933 32.4766 48.5933 32.4766C48.5933 32.4766 48.6517 32.0716 48.5933 24.7329C30.1425 28.3358 28.1778 42.4634 28.018 46.8501H28.0133V46.9712C27.99 47.7217 28.0145 48.1931 28.0145 48.1931Z" fill="#241F20"/>
</svg>
