<svg width="48" height="48" viewBox="0 0 48 48" fill="none" xmlns="http://www.w3.org/2000/svg">
<path d="M30 33C38.2843 33 45 26.2843 45 18C45 9.71573 38.2843 3 30 3C21.7157 3 15 9.71573 15 18C15 26.2843 21.7157 33 30 33Z" fill="#FFE24F"/>
<path d="M18.9434 36.4727C19.418 36.4727 19.8223 36.0859 19.8223 35.5938V34.3633C20.7715 34.1875 21.5449 33.8184 22.1953 33.2383C23.0215 32.5 23.4785 31.5156 23.4785 30.4785C23.4961 29.4238 23.0566 28.4219 22.2481 27.6836C21.4746 26.9277 20.3496 26.541 19.2773 26.1719C17.5195 25.5566 16.4297 25.0996 16.2715 23.9043C16.1484 23.043 16.7988 22.1289 17.7129 21.8652C18.7324 21.5664 20.0859 21.6895 21.3691 22.1992C21.8262 22.375 22.3184 22.1641 22.5117 21.707C22.6875 21.25 22.4766 20.7578 22.0195 20.5645C21.2813 20.2656 20.543 20.0898 19.8047 20.002V18.8242C19.8047 18.3496 19.418 17.9453 18.9258 17.9453C18.4512 17.9453 18.0469 18.332 18.0469 18.8242V20.002C17.7656 20.0371 17.4844 20.0898 17.2207 20.1777C15.4805 20.6875 14.3027 22.4277 14.5312 24.1328C14.8477 26.4707 16.9746 27.2266 18.6973 27.8242C19.6289 28.1582 20.5254 28.457 21.0352 28.9492C21.4746 29.3711 21.7207 29.8984 21.7207 30.4609C21.7207 31.0059 21.457 31.5332 21.0176 31.9375C20.5078 32.3945 19.8047 32.6582 18.9082 32.7285C18.2051 32.7637 17.3965 32.6934 16.4121 32.5176C16.166 32.4648 15.9375 32.4297 15.709 32.3594C15.252 32.2188 14.7598 32.4824 14.6191 32.9395C14.4785 33.3965 14.7422 33.8887 15.1992 34.0293C15.4805 34.1172 15.7793 34.1699 16.0957 34.2402C16.834 34.3809 17.4844 34.4512 18.082 34.4863V35.6113C18.082 36.0684 18.4688 36.4727 18.9434 36.4727Z" fill="black"/>
<path d="M29.3496 18.5781H31.5645C30.1758 16.4863 28.2773 14.7637 26.0625 13.5859L25.8164 13.4629L28.1367 4.9375C28.207 4.67383 28.1543 4.39258 27.9785 4.16406C27.8027 3.93555 27.5391 3.8125 27.2754 3.8125H10.752C10.4707 3.8125 10.207 3.95312 10.0488 4.16406C9.89062 4.375 9.82031 4.67383 9.89062 4.9375L12.2109 13.4453L11.9648 13.5684C7.00781 16.2051 3.94922 21.3203 3.94922 26.9102V40.375C3.94922 40.8672 4.35352 41.2715 4.8457 41.2715H23.25C23.2324 41.166 23.2324 41.0605 23.2324 40.9375V39.4785H5.72461V26.9102C5.72461 21.8828 8.64258 17.1895 13.1602 14.9746L13.2305 14.9395H18.9961C19.4883 14.9395 19.8926 14.5352 19.8926 14.043C19.8926 13.5508 19.4883 13.1465 18.9961 13.1465H13.9688L11.9121 5.58789H26.0801L24.041 13.1465H23.7773C23.25 13.1465 22.8633 13.5508 22.8633 14.043C22.8633 14.5352 23.2676 14.9395 23.7598 14.9395H24.7793L24.8496 14.9746C26.5723 15.8359 28.1191 17.0664 29.3496 18.5781Z" fill="black"/>
<path d="M45.5039 20.1426H27.0293C26.168 20.1426 25.4824 20.8457 25.4824 21.6895V25.4512C25.4824 26.3125 26.1855 26.998 27.0293 26.998C27.5039 26.998 27.9082 26.6113 27.9082 26.1191C27.9082 25.6973 27.627 25.3633 27.2227 25.2754V21.8828H45.3106V25.2754C44.9238 25.3633 44.6426 25.7148 44.6426 26.1191C44.6426 26.5937 45.0293 26.998 45.5215 26.998C46.3828 26.998 47.0684 26.2949 47.0684 25.4512V21.6895C47.0508 20.8457 46.3652 20.1426 45.5039 20.1426Z" fill="black"/>
<path d="M45.5039 28.2285H27.0293C26.168 28.2285 25.4824 28.9316 25.4824 29.7754V33.5371C25.4824 34.3984 26.1855 35.084 27.0293 35.084H45.5039C46.3652 35.084 47.0508 34.3809 47.0508 33.5371V29.7754C47.0508 28.9316 46.3652 28.2285 45.5039 28.2285ZM45.3105 33.3438H27.2227V29.9688H45.3105V33.3438Z" fill="black"/>
<path d="M45.5039 36.3145C45.0293 36.3145 44.625 36.7012 44.625 37.1934C44.625 37.6152 44.9062 37.9492 45.293 38.0371V41.4297H27.2227V38.0371C27.6094 37.9492 27.9082 37.5977 27.9082 37.1934C27.9082 36.7188 27.5215 36.3145 27.0293 36.3145C26.168 36.3145 25.4824 37.0176 25.4824 37.8613V41.623C25.4824 42.4844 26.1855 43.1699 27.0293 43.1699H45.5039C46.3652 43.1699 47.0508 42.4668 47.0508 41.623V37.8613C47.0508 37 46.3652 36.3145 45.5039 36.3145Z" fill="black"/>
</svg>
