<svg width="45" height="51" viewBox="0 0 45 51" fill="none" xmlns="http://www.w3.org/2000/svg">
<path d="M25 50.5C33.2843 50.5 40 43.7843 40 35.5C40 27.2157 33.2843 20.5 25 20.5C16.7157 20.5 10 27.2157 10 35.5C10 43.7843 16.7157 50.5 25 50.5Z" fill="#FFE24F"/>
<path d="M18.8173 25.995V27.675H15.4873L15.1273 29.25C15.3873 29.21 15.6123 29.19 15.8023 29.19C16.8723 29.19 17.7323 29.525 18.3823 30.195C18.9723 30.795 19.2673 31.595 19.2673 32.595C19.2673 33.655 18.9273 34.525 18.2473 35.205C17.5673 35.885 16.6523 36.225 15.5023 36.225C14.6323 36.225 13.9123 36.085 13.3423 35.805C12.9123 35.595 12.5073 35.31 12.1273 34.95L12.7723 33.27C13.0623 33.66 13.4073 33.96 13.8073 34.17C14.2673 34.42 14.7523 34.545 15.2623 34.545C15.9023 34.545 16.4123 34.345 16.7923 33.945C17.1423 33.575 17.3173 33.09 17.3173 32.49C17.3173 31.92 17.1223 31.46 16.7323 31.11C16.3423 30.77 15.8223 30.6 15.1723 30.6C14.4523 30.6 13.7323 30.815 13.0123 31.245L14.1973 25.995H18.8173Z" fill="#363636"/>
<path d="M32.5312 29.5312C32.0461 29.5312 31.6523 29.925 31.6523 30.4102C31.6523 30.8953 32.0461 31.2891 32.5312 31.2891C33.0164 31.2891 33.4102 30.8953 33.4102 30.4102C33.4102 29.925 33.0164 29.5312 32.5312 29.5312Z" fill="#363636"/>
<path d="M10.5469 14.5898C11.0323 14.5898 11.4258 14.1964 11.4258 13.7109V10.1953C11.4258 9.70985 11.0323 9.31641 10.5469 9.31641C10.0614 9.31641 9.66797 9.70985 9.66797 10.1953V13.7109C9.66797 14.1964 10.0614 14.5898 10.5469 14.5898Z" fill="#363636"/>
<path d="M41.4844 20.7422V13.7109C41.4844 11.2878 39.513 9.31641 37.0898 9.31641H32.168V2.63672C32.168 1.18275 30.9852 0 29.5312 0H13.1836C11.7296 0 10.5469 1.18275 10.5469 2.63672V5.80078H7.91016C6.45618 5.80078 5.27344 6.98353 5.27344 8.4375V9.31641H4.39453C1.97136 9.31641 0 11.2878 0 13.7109V40.6055C0 43.0286 1.97136 45 4.39453 45H31.2891C33.4111 45 35.1868 43.488 35.595 41.4844H37.0898C39.513 41.4844 41.4844 39.513 41.4844 37.0898V34.8047H42.3633C43.8173 34.8047 45 33.6219 45 32.168V24.2578C45 22.3194 43.4228 20.7422 41.4844 20.7422ZM43.2422 24.2578C43.2422 25.2287 42.4553 26.0156 41.4844 26.0156V22.5C42.4536 22.5 43.2422 23.2886 43.2422 24.2578ZM37.0898 11.0742C38.5438 11.0742 39.7266 12.257 39.7266 13.7109V26.0156H35.6836V20.7422C35.6836 18.6201 34.1716 16.8444 32.168 16.4362V11.0742H37.0898ZM12.3047 2.63672C12.3047 2.15195 12.6988 1.75781 13.1836 1.75781H29.5312C30.016 1.75781 30.4102 2.15195 30.4102 2.63672V16.3477H26.3672V8.4375C26.3672 6.98353 25.1844 5.80078 23.7305 5.80078H12.3047V2.63672ZM21.0938 16.3477V7.55859H23.7305C24.2152 7.55859 24.6094 7.95273 24.6094 8.4375V16.3477H21.0938ZM15.8203 16.3477V7.55859H19.3359V16.3477H15.8203ZM7.03125 8.4375C7.03125 7.95273 7.42538 7.55859 7.91016 7.55859H14.0625V16.3477H7.03125V8.4375ZM4.39453 11.0742H5.27344V16.3477H4.58267C3.13007 16.3477 1.75781 15.2957 1.75781 13.7109C1.75781 12.257 2.94056 11.0742 4.39453 11.0742ZM31.2891 43.2422H4.39453C2.94056 43.2422 1.75781 42.0594 1.75781 40.6055V17.1723C2.54368 17.7577 3.53073 18.1055 4.58267 18.1055H31.2891C32.743 18.1055 33.9258 19.2882 33.9258 20.7422V26.0156H30.7734C29.3195 26.0156 28.1367 27.1984 28.1367 28.6523V32.168C28.1367 33.6219 29.3195 34.8047 30.7734 34.8047H33.9258V40.6055C33.9258 42.0594 32.743 43.2422 31.2891 43.2422ZM39.7266 37.0898C39.7266 38.5438 38.5438 39.7266 37.0898 39.7266H35.6836V34.8047H39.7266V37.0898ZM42.3633 33.0469H30.7734C30.2887 33.0469 29.8945 32.6527 29.8945 32.168V28.6523C29.8945 28.1676 30.2887 27.7734 30.7734 27.7734H41.4844C42.1116 27.7734 42.7135 27.6093 43.2422 27.3027V32.168C43.2422 32.6527 42.8481 33.0469 42.3633 33.0469Z" fill="#363636"/>
<path d="M40.0898 29.5312H36.0469C35.5614 29.5312 35.168 29.9247 35.168 30.4102C35.168 30.8956 35.5614 31.2891 36.0469 31.2891H40.0898C40.5753 31.2891 40.9688 30.8956 40.9688 30.4102C40.9688 29.9247 40.5753 29.5312 40.0898 29.5312Z" fill="#363636"/>
</svg>
