<svg width="48" height="48" viewBox="0 0 48 48" fill="none" xmlns="http://www.w3.org/2000/svg">
<g clip-path="url(#clip0)">
<path d="M21 34.5C29.2843 34.5 36 27.7843 36 19.5C36 11.2157 29.2843 4.5 21 4.5C12.7157 4.5 6 11.2157 6 19.5C6 27.7843 12.7157 34.5 21 34.5Z" fill="#FFE24F"/>
<path d="M44.1211 18.248C43.7696 17.8789 43.2071 17.8613 42.8379 18.2129L36.6153 24.1191L33.9434 21.3418C33.5918 20.9727 33.0293 20.9727 32.6602 21.3242C32.2911 21.6758 32.2911 22.2383 32.6426 22.6074L35.9473 26.0352C36.1231 26.2285 36.3692 26.3164 36.5977 26.3164C36.8262 26.3164 37.0547 26.2285 37.2129 26.0703L44.086 19.5488C44.4551 19.1797 44.4727 18.5996 44.1211 18.248Z" fill="black"/>
<path d="M15.0293 25.5254C15.6094 28.5312 18.2637 30.7109 21.3223 30.7109C24.3809 30.7109 27.0352 28.5312 27.6153 25.5254L28.459 21.1484C28.7227 19.2324 28.1426 17.2988 26.8594 15.8398C25.5938 14.3809 23.7481 13.5371 21.8145 13.5371H20.8125C18.8789 13.5371 17.0332 14.3809 15.7676 15.8398C14.502 17.2988 13.9043 19.2324 14.1856 21.2012L15.0293 25.5254ZM17.1387 17.0176C18.0703 15.9453 19.4063 15.3477 20.8301 15.3477H21.8321C23.2383 15.3477 24.5918 15.9629 25.5235 17.0176C26.4551 18.0723 26.877 19.4961 26.7012 20.8496L25.8399 25.1738C25.418 27.3359 23.5196 28.9004 21.3223 28.9004C19.125 28.9004 17.2266 27.3359 16.8223 25.1738L15.9961 20.9023C15.7852 19.4961 16.2246 18.0898 17.1387 17.0176Z" fill="black"/>
<path d="M34.7696 36.9336C34.5938 36.0722 33.961 35.3515 33.1348 35.0703L27.2637 32.9785C26.9473 32.873 26.5958 32.9433 26.3497 33.1718L21.3399 37.8476L16.3302 33.1718C16.0841 32.9433 15.7325 32.873 15.4161 32.9785L9.52742 35.0703C8.70125 35.3691 8.06843 36.0722 7.89265 36.9336L6.06453 45.5293C5.95906 46.0039 6.08211 46.4961 6.38093 46.8652C6.67976 47.2343 7.13679 47.4629 7.62898 47.4629H35.0157C35.5079 47.4629 35.9473 47.2519 36.2637 46.8652C36.5626 46.4785 36.6856 46.0039 36.5802 45.5293L34.7696 36.9336ZM7.89265 45.6523L9.66804 37.3203C9.72078 37.0742 9.89656 36.8633 10.1427 36.7929L15.4864 34.8945L20.7071 39.7812C21.0587 40.1152 21.6036 40.1152 21.9376 39.7812L27.1583 34.8945L32.502 36.7929C32.7305 36.8808 32.9239 37.0742 32.9766 37.3203L34.752 45.6523H7.89265Z" fill="black"/>
<path d="M8.85938 26.6855C9.08789 26.6855 9.31641 26.5977 9.49219 26.4219C9.84375 26.0703 9.84375 25.4902 9.49219 25.1387L6.48633 22.1328L9.50977 19.1094C9.86133 18.7578 9.86133 18.1777 9.50977 17.8262C9.1582 17.4746 8.57813 17.4746 8.22656 17.8262L5.20313 20.8496L2.17969 17.8262C1.82812 17.4746 1.24805 17.4746 0.896484 17.8262C0.544922 18.1777 0.544922 18.7578 0.896484 19.1094L3.91992 22.1328L0.896484 25.1387C0.544922 25.4902 0.544922 26.0703 0.896484 26.4219C1.07227 26.5977 1.30078 26.6855 1.5293 26.6855C1.75781 26.6855 1.98633 26.5977 2.16211 26.4219L5.18555 23.3984L8.20899 26.4219C8.40234 26.5977 8.63086 26.6855 8.85938 26.6855Z" fill="black"/>
</g>
<defs>
<clipPath id="clip0">
<rect width="48" height="48" fill="white"/>
</clipPath>
</defs>
</svg>
