<svg width="58" height="50" viewBox="0 0 58 50" fill="none" xmlns="http://www.w3.org/2000/svg">
<path d="M15 30.5C23.2843 30.5 30 23.7843 30 15.5C30 7.21573 23.2843 0.5 15 0.5C6.71573 0.5 0 7.21573 0 15.5C0 23.7843 6.71573 30.5 15 30.5Z" fill="#FFE24F"/>
<g clip-path="url(#clip0)">
<path d="M43.374 11.1078L37.9639 5.69781C37.5139 5.24787 36.9156 5 36.2791 5H18.7947C17.4809 5 16.4121 6.06881 16.4121 7.3826V12.6292H7.31083C5.99703 12.6292 4.92822 13.6981 4.92822 15.0119V30.2889C4.92822 31.4462 6.72832 31.4445 6.72832 30.2889V15.0118C6.72832 14.6906 6.9896 14.4292 7.31083 14.4292H24.4135V18.4527C24.4135 19.7665 25.4824 20.8353 26.7962 20.8353H30.788V47.6174C30.788 47.9385 30.5267 48.1999 30.2055 48.1999H7.31083C6.98969 48.1999 6.72832 47.9386 6.72832 47.6174V37.6577C6.72832 36.5004 4.92822 36.502 4.92822 37.6577V47.6174C4.92822 48.9312 5.99703 50 7.31083 50H30.2054C31.5192 50 32.588 48.9312 32.588 47.6174V42.3708H41.6892C43.003 42.3708 44.0718 41.3019 44.0718 39.9881V12.7926C44.0717 12.1562 43.8239 11.5578 43.374 11.1078ZM41.1265 11.4062H38.2799C37.9588 11.4062 37.6974 11.1449 37.6974 10.8236V7.97708L41.1265 11.4062ZM26.2135 18.4528V15.6062L29.6425 19.0352H26.7961C26.4749 19.0352 26.2135 18.774 26.2135 18.4528ZM41.6892 40.5707H32.588V20.4219C32.588 19.7853 32.3401 19.187 31.8901 18.7371L26.4802 13.3271C26.0302 12.8771 25.4319 12.6292 24.7954 12.6292H18.2122V7.3826C18.2122 7.06147 18.4735 6.80009 18.7947 6.80009H35.8974V10.8236C35.8974 12.1374 36.9662 13.2063 38.28 13.2063H42.2718V39.9882C42.2716 40.3094 42.0103 40.5707 41.6892 40.5707Z" fill="#363636"/>
<path d="M10.9474 24.2004H17.1638C18.3194 24.2004 18.3211 22.4003 17.1638 22.4003H10.9474C9.79177 22.4003 9.79015 24.2004 10.9474 24.2004Z" fill="#363636"/>
<path d="M10.9474 27.9709H26.4702C27.6258 27.9709 27.6275 26.1708 26.4702 26.1708H10.9474C9.79177 26.1708 9.79015 27.9709 10.9474 27.9709Z" fill="#363636"/>
<path d="M10.9474 31.9759H26.4702C27.6258 31.9759 27.6275 30.1758 26.4702 30.1758H10.9474C9.79177 30.1758 9.79015 31.9759 10.9474 31.9759Z" fill="#363636"/>
<path d="M10.9474 35.8636H26.4702C27.6258 35.8636 27.6275 34.0635 26.4702 34.0635H10.9474C9.79177 34.0635 9.79015 35.8636 10.9474 35.8636Z" fill="#363636"/>
<path d="M10.9474 39.7513H26.4702C27.6258 39.7513 27.6275 37.9512 26.4702 37.9512H10.9474C9.79177 37.9512 9.79015 39.7513 10.9474 39.7513Z" fill="#363636"/>
<path d="M5.82807 34.8562C6.26927 34.8562 6.65161 34.5231 6.71795 34.0882C6.84422 33.2603 5.81223 32.7292 5.20776 33.3047C4.632 33.8527 5.03252 34.8562 5.82807 34.8562Z" fill="#363636"/>
</g>
<path d="M56.8594 14.6855C57.0879 14.6855 57.3164 14.5977 57.4922 14.4219C57.8438 14.0703 57.8438 13.4902 57.4922 13.1387L54.4863 10.1328L57.5098 7.10937C57.8613 6.75781 57.8613 6.17773 57.5098 5.82617C57.1582 5.47461 56.5781 5.47461 56.2266 5.82617L53.2031 8.84961L50.1797 5.82617C49.8281 5.47461 49.248 5.47461 48.8965 5.82617C48.5449 6.17773 48.5449 6.75781 48.8965 7.10937L51.9199 10.1328L48.8965 13.1387C48.5449 13.4902 48.5449 14.0703 48.8965 14.4219C49.0723 14.5977 49.3008 14.6855 49.5293 14.6855C49.7578 14.6855 49.9863 14.5977 50.1621 14.4219L53.1855 11.3984L56.209 14.4219C56.4023 14.5977 56.6309 14.6855 56.8594 14.6855Z" fill="#363636"/>
<defs>
<clipPath id="clip0">
<rect width="45" height="45" fill="white" transform="translate(2 5)"/>
</clipPath>
</defs>
</svg>
