<svg width="68" height="68" viewBox="0 0 68 68" fill="none" xmlns="http://www.w3.org/2000/svg">
<path d="M33.9905 0.796875C31.1085 0.796875 28.2265 1.50078 25.7163 2.92188C21.214 5.47188 18.0265 10.2664 17.4952 15.4195C17.0038 20.2141 18.6772 24.9555 20.4171 29.4578C22.4226 34.6242 33.9772 59.8586 33.9772 59.8586C33.9772 59.8586 45.6116 34.4383 47.6304 29.1922C49.3702 24.65 51.0437 19.8688 50.446 15.0477C49.7554 9.45625 45.8374 4.43594 40.671 2.19141C38.5858 1.26172 36.2882 0.796875 33.9905 0.796875ZM33.9905 25.2078C29.6077 25.2078 26.0483 21.6484 26.0483 17.2656C26.0483 12.8828 29.6077 9.32344 33.9905 9.32344C38.3733 9.32344 41.9327 12.8828 41.9327 17.2656C41.9327 21.6484 38.3866 25.2078 33.9905 25.2078Z" fill="#363636"/>
<path d="M38.8086 52.7397C38.2641 53.9218 37.7594 55.0241 37.2945 56.0202C42.182 56.4983 45.7414 58.039 45.7414 59.8452C45.7414 62.0499 40.482 63.8296 34.0008 63.8296C27.5195 63.8296 22.2602 62.0499 22.2602 59.8452C22.2602 58.039 25.8195 56.4983 30.6937 56.0202C30.2289 55.0374 29.7109 53.9218 29.1797 52.7397C21.1844 53.5765 15.3008 56.4452 15.3008 59.8452C15.3008 63.9093 23.6812 67.203 34.0008 67.203C44.3203 67.203 52.7008 63.9093 52.7008 59.8452C52.7008 56.4452 46.8039 53.5765 38.8086 52.7397Z" fill="#363636"/>
</svg>
