<svg width="45" height="49" viewBox="0 0 45 49" fill="none" xmlns="http://www.w3.org/2000/svg">
<path d="M30 30.5C38.2843 30.5 45 23.7843 45 15.5C45 7.21573 38.2843 0.5 30 0.5C21.7157 0.5 15 7.21573 15 15.5C15 23.7843 21.7157 30.5 30 30.5Z" fill="#FFE24F"/>
<path d="M44.2625 42.4536L35.5144 33.7054C35.1711 33.3622 34.6147 33.3622 34.2714 33.7054L33.8861 34.0907L31.4589 31.6634C32.8751 29.7241 33.8885 27.5021 34.405 25.1467C34.509 24.6726 34.209 24.2039 33.7348 24.1C33.2604 23.9963 32.7919 24.2961 32.688 24.7702C31.1279 31.8843 24.701 37.0477 17.4063 37.0477C8.77974 37.0477 1.76132 30.0293 1.76132 21.4027C1.76132 12.7761 8.77956 5.75781 17.4062 5.75781C24.9117 5.75781 31.3754 11.1003 32.7751 18.4611C32.8658 18.9379 33.3257 19.251 33.8027 19.1603C34.2796 19.0696 34.5926 18.6095 34.502 18.1327C32.9447 9.94369 25.7548 4 17.4062 4C7.81021 4 0.00341797 11.8068 0.00341797 21.4028C0.00341797 30.9988 7.81021 38.8056 17.4062 38.8056C21.0919 38.8056 24.6988 37.6234 27.6625 35.4618L30.0888 37.8881L29.7036 38.2733C29.3604 38.6165 29.3604 39.173 29.7036 39.5163L38.4517 48.2644C38.9421 48.7548 39.5863 49 40.2305 49C40.8746 49 41.5187 48.7548 42.0092 48.2644L44.2625 46.0111C45.2432 45.0303 45.2432 43.4344 44.2625 42.4536ZM29.0352 34.3485C29.496 33.9338 29.9333 33.4957 30.3456 33.0364L32.6431 35.3339L31.3319 36.6451L29.0352 34.3485ZM43.0194 44.7682L40.766 47.0215C40.4706 47.317 39.99 47.3168 39.6947 47.0215L31.5681 38.895L34.8928 35.5701L43.0194 43.6966C43.3148 43.9921 43.3148 44.4728 43.0194 44.7682Z" fill="#363636"/>
<path d="M12.474 16.6566H8.73641C8.25107 16.6566 7.8575 17.0501 7.8575 17.5355C7.8575 18.0209 8.25107 18.4144 8.73641 18.4144H9.72623V23.0899C9.72623 23.6357 9.28221 24.0797 8.73641 24.0797C8.19061 24.0797 7.74658 23.6357 7.74658 23.0899C7.74658 22.6044 7.35301 22.211 6.86768 22.211C6.38234 22.211 5.98877 22.6044 5.98877 23.0899C5.98877 24.6049 7.22135 25.8376 8.73649 25.8376C10.2516 25.8376 11.4842 24.605 11.4842 23.0899V18.4144H12.474C12.9594 18.4144 13.3529 18.0209 13.3529 17.5355C13.3529 17.0501 12.9594 16.6566 12.474 16.6566Z" fill="#363636"/>
<path d="M17.628 16.6566C15.0968 16.6566 13.0376 18.7159 13.0376 21.2471C13.0376 23.7782 15.097 25.8376 17.6281 25.8376C20.1593 25.8376 22.2187 23.7782 22.2187 21.2471C22.2187 18.7159 20.1593 16.6566 17.628 16.6566ZM17.628 24.0798C16.0661 24.0798 14.7953 22.809 14.7953 21.2471C14.7953 19.6852 16.066 18.4144 17.628 18.4144C19.19 18.4144 20.4608 19.6852 20.4608 21.2471C20.4608 22.809 19.1899 24.0798 17.628 24.0798Z" fill="#363636"/>
<path d="M28.822 19.4691C28.8221 17.9183 27.5604 16.6565 26.0095 16.6565H24.2056C23.7202 16.6565 23.3267 17.05 23.3267 17.5354V21.4027V25.27C23.3267 25.7554 23.7202 26.1489 24.2056 26.1489H26.0094C27.5603 26.1489 28.822 24.8872 28.822 23.3363C28.822 22.5877 28.5275 21.9072 28.049 21.4026C28.5275 20.8983 28.822 20.2178 28.822 19.4691ZM26.0095 24.3912H25.0846V22.2817H26.0094C26.591 22.2817 27.0641 22.7548 27.0641 23.3364C27.0642 23.918 26.5911 24.3912 26.0095 24.3912ZM26.0094 20.5239H25.0846V18.4144H26.0094C26.591 18.4144 27.0641 18.8875 27.0641 19.4691C27.0641 20.0507 26.591 20.5239 26.0094 20.5239Z" fill="#363636"/>
<path d="M33.9294 20.5238C33.444 20.5238 33.0505 20.9174 33.0505 21.4028L33.0503 21.4653C33.0485 21.9507 33.4404 22.3458 33.9258 22.3476C33.927 22.3476 33.9281 22.3476 33.9293 22.3476C34.413 22.3476 34.8063 21.9563 34.8081 21.4721L34.8083 21.4027C34.8083 20.9173 34.4147 20.5238 33.9294 20.5238Z" fill="#363636"/>
<path d="M26.5961 12.212C21.5282 7.14427 13.2823 7.14427 8.21444 12.212C7.87123 12.5552 7.87123 13.1117 8.21444 13.4549C8.55765 13.7982 9.114 13.7982 9.45748 13.4549C13.8399 9.07259 20.9705 9.07259 25.3531 13.4549C25.5248 13.6266 25.7497 13.7123 25.9746 13.7123C26.1996 13.7123 26.4244 13.6265 26.5961 13.4549C26.9393 13.1118 26.9393 12.5552 26.5961 12.212Z" fill="#363636"/>
<path d="M9.47545 29.368L9.45805 29.3505C9.11458 29.0073 8.55823 29.0073 8.21493 29.3505C7.87172 29.6938 7.87172 30.2503 8.21493 30.5936C8.21572 30.5943 8.22231 30.6009 8.22301 30.6016L8.22706 30.6055C8.39897 30.7784 8.62494 30.865 8.85108 30.865C9.07485 30.865 9.29879 30.7801 9.47001 30.6101C9.81436 30.2684 9.817 29.7126 9.47545 29.368Z" fill="#363636"/>
<path d="M26.5962 29.3505C26.253 29.0074 25.6966 29.0073 25.3531 29.3505C21.7762 32.9275 16.2152 33.6739 11.8301 31.1659C11.4087 30.9249 10.8718 31.0711 10.6308 31.4925C10.3898 31.9139 10.536 32.4508 10.9574 32.6918C12.9636 33.8392 15.1824 34.3977 17.3878 34.3977C20.7577 34.3977 24.0961 33.0935 26.5963 30.5936C26.9395 30.2505 26.9395 29.6938 26.5962 29.3505Z" fill="#363636"/>
</svg>
