<svg width="39" height="39" viewBox="0 0 39 39" fill="none" xmlns="http://www.w3.org/2000/svg">
<path d="M19.4948 0.457031C17.8419 0.457031 16.189 0.860742 14.7493 1.67578C12.1671 3.13828 10.339 5.88809 10.0343 8.84355C9.75244 11.5934 10.7122 14.3127 11.7101 16.8949C12.8603 19.858 19.4872 34.3307 19.4872 34.3307C19.4872 34.3307 26.1599 19.7514 27.3177 16.7426C28.3155 14.1375 29.2753 11.3953 28.9325 8.63027C28.5364 5.42344 26.2894 2.54414 23.3263 1.25684C22.1304 0.723633 20.8126 0.457031 19.4948 0.457031ZM19.4948 14.4574C16.9812 14.4574 14.9397 12.416 14.9397 9.90234C14.9397 7.38867 16.9812 5.34727 19.4948 5.34727C22.0085 5.34727 24.0499 7.38867 24.0499 9.90234C24.0499 12.416 22.0161 14.4574 19.4948 14.4574Z" fill="#363636"/>
<path d="M22.2578 30.2478C21.9455 30.9258 21.6561 31.558 21.3895 32.1293C24.1926 32.4035 26.234 33.2871 26.234 34.323C26.234 35.5875 23.2176 36.6082 19.5004 36.6082C15.7832 36.6082 12.7668 35.5875 12.7668 34.323C12.7668 33.2871 14.8082 32.4035 17.6037 32.1293C17.3371 31.5656 17.04 30.9258 16.7354 30.2478C12.1498 30.7277 8.77539 32.373 8.77539 34.323C8.77539 36.6539 13.5818 38.543 19.5004 38.543C25.4189 38.543 30.2254 36.6539 30.2254 34.323C30.2254 32.373 26.8434 30.7277 22.2578 30.2478Z" fill="#363636"/>
</svg>
