<svg width="60" height="60" viewBox="0 0 60 60" fill="none" xmlns="http://www.w3.org/2000/svg">
<path d="M30.75 49.5C41.1053 49.5 49.5 41.1053 49.5 30.75C49.5 20.3947 41.1053 12 30.75 12C20.3947 12 12 20.3947 12 30.75C12 41.1053 20.3947 49.5 30.75 49.5Z" fill="#FFE24F"/>
<path d="M51.4897 25.507C50.7726 24.6422 49.7179 24.157 48.5999 24.157H33.6444L36.3866 9.20157C36.5765 8.14688 36.3233 7.0711 35.6694 6.22735C35.0366 5.40469 34.0874 4.89844 33.0749 4.83516C32.9694 4.83516 32.8851 4.83516 32.8007 4.83516C32.3155 4.83516 31.8304 4.89844 31.3452 4.98282C30.4593 5.15157 29.6155 5.44688 28.814 5.88985C28.7929 5.91094 28.7718 5.91094 28.7507 5.93203C26.9788 6.92344 25.6288 8.52657 24.9749 10.4461L20.039 24.157H5.12568C3.18506 24.157 1.60303 25.7391 1.60303 27.6797V49.0899C1.64521 50.9883 3.22725 52.5281 5.12568 52.5281H14.3647C16.3265 54.2367 18.8155 55.1649 21.389 55.1649C21.4101 55.1649 21.4312 55.1649 21.4522 55.1649H44.7819C46.7226 55.1649 48.3257 53.6039 48.3679 51.6633L52.3546 28.5867C52.5233 27.4898 52.2069 26.3719 51.4897 25.507ZM13.2257 50.5242H5.12568C4.30303 50.5242 3.62803 49.8703 3.62803 49.0688V27.6797C3.62803 26.857 4.30303 26.182 5.12568 26.182H13.2257V50.5242ZM50.3507 28.2492L46.364 51.4102C46.364 51.4734 46.3429 51.5156 46.3429 51.5789C46.3429 52.4438 45.6257 53.1609 44.7608 53.1609H21.4312C21.4101 53.1609 21.4101 53.1609 21.389 53.1609C19.2796 53.1609 17.2335 52.3805 15.6304 50.9883L15.5671 50.9039C15.4827 50.7984 15.3562 50.693 15.2296 50.6297V26.1609H20.7351C21.1569 26.1609 21.5366 25.8867 21.6843 25.507L26.8733 11.1211C27.3796 9.64453 28.4132 8.4211 29.7843 7.66172C29.8054 7.64063 29.8265 7.64063 29.8476 7.61953C30.4382 7.30313 31.0499 7.0711 31.7038 6.94453C32.0624 6.88125 32.4421 6.83907 32.8007 6.83907C32.8218 6.83907 32.864 6.83907 32.9061 6.83907C33.3491 6.88125 33.771 7.09219 34.0452 7.45078C34.3405 7.83047 34.4671 8.33672 34.3827 8.82188L31.4296 24.9797C31.3663 25.275 31.4507 25.5703 31.6405 25.8023C31.8304 26.0344 32.1046 26.1609 32.421 26.1609H48.5788C49.1061 26.1609 49.6124 26.393 49.9499 26.7938C50.2874 27.2156 50.4351 27.743 50.3507 28.2492Z" fill="#363636"/>
<path d="M6.30699 33.3328C6.56011 33.3328 6.81324 33.2274 7.00308 33.0375L10.9687 29.1563C11.3695 28.7766 11.3695 28.1227 10.9898 27.743C10.6101 27.3422 9.95621 27.3422 9.57652 27.7219L5.61089 31.6031C5.21011 31.9828 5.21011 32.6367 5.5898 33.0164C5.77964 33.2484 6.05386 33.3328 6.30699 33.3328Z" fill="#363636"/>
<path d="M6.30699 42.0234C6.56011 42.0234 6.81324 41.918 7.00308 41.7281L11.2429 37.5727C11.6437 37.193 11.6437 36.5602 11.264 36.1594C10.8843 35.7586 10.2304 35.7586 9.85074 36.1383L5.61089 40.2938C5.21011 40.6734 5.21011 41.3063 5.5898 41.707C5.77964 41.918 6.05386 42.0234 6.30699 42.0234Z" fill="#363636"/>
<path d="M9.85059 44.8078L7.06622 47.5289C6.66543 47.9086 6.66543 48.5625 7.04512 48.9422C7.23497 49.1531 7.50918 49.2375 7.76231 49.2375C8.01543 49.2375 8.26856 49.132 8.4584 48.9422L11.2428 46.2422C11.6436 45.8625 11.6436 45.2086 11.2639 44.8289C10.8842 44.4281 10.2303 44.4281 9.85059 44.8078Z" fill="#363636"/>
</svg>
