<svg width="60" height="60" viewBox="0 0 60 60" fill="none" xmlns="http://www.w3.org/2000/svg">
<path d="M35 46C46.598 46 56 36.598 56 25C56 13.402 46.598 4 35 4C23.402 4 14 13.402 14 25C14 36.598 23.402 46 35 46Z" fill="#FFE24F"/>
<path d="M53.7498 11.5H46.5663C46.8185 10.2852 46.5781 9.01995 45.8978 7.98233C45.6621 7.71369 45.3694 7.50106 45.041 7.35994C44.7127 7.21883 44.357 7.1528 43.9998 7.16666C40.5821 7.67065 37.3913 9.17893 34.8325 11.5H27.4277C24.7923 9.14037 21.5067 7.63019 17.9998 7.16666C17.6427 7.1528 17.287 7.21883 16.9586 7.35994C16.6303 7.50106 16.3376 7.71369 16.1018 7.98233C15.4216 9.01995 15.1812 10.2852 15.4334 11.5H8.24984C8.10755 11.4999 7.96664 11.5279 7.83517 11.5823C7.70369 11.6367 7.58423 11.7165 7.48362 11.8171C7.38301 11.9177 7.30321 12.0372 7.2488 12.1687C7.19439 12.3001 7.16642 12.441 7.1665 12.5833V21.25C7.16642 21.3923 7.19439 21.5332 7.2488 21.6647C7.30321 21.7961 7.38301 21.9156 7.48362 22.0162C7.58423 22.1168 7.70369 22.1966 7.83517 22.251C7.96664 22.3054 8.10755 22.3334 8.24984 22.3333H9.33317V53.75C9.33309 53.8923 9.36105 54.0332 9.41547 54.1647C9.46988 54.2961 9.54967 54.4156 9.65029 54.5162C9.7509 54.6168 9.87036 54.6966 10.0018 54.751C10.1333 54.8054 10.2742 54.8334 10.4165 54.8333H51.5832C51.7255 54.8334 51.8664 54.8054 51.9978 54.751C52.1293 54.6966 52.2488 54.6168 52.3494 54.5162C52.45 54.4156 52.5298 54.2961 52.5842 54.1647C52.6386 54.0332 52.6666 53.8923 52.6665 53.75V22.3333H53.7498C53.8921 22.3334 54.033 22.3054 54.1645 22.251C54.296 22.1966 54.4154 22.1168 54.516 22.0162C54.6167 21.9156 54.6965 21.7961 54.7509 21.6647C54.8053 21.5332 54.8332 21.3923 54.8332 21.25V12.5833C54.8332 12.441 54.8053 12.3001 54.7509 12.1687C54.6965 12.0372 54.6167 11.9177 54.516 11.8171C54.4154 11.7165 54.296 11.6367 54.1645 11.5823C54.033 11.5279 53.8921 11.4999 53.7498 11.5ZM36.7857 23.842L35.6759 23.4727C35.541 23.4275 35.3986 23.4094 35.2566 23.4193C35.1147 23.4293 34.9762 23.4671 34.8489 23.5307C34.7216 23.5943 34.6082 23.6824 34.515 23.7899C34.4218 23.8974 34.3508 24.0222 34.3059 24.1572L34.1895 24.5042L32.827 20.8699L32.8269 20.8691L32.4616 19.8952C32.9634 19.7135 33.4271 19.4402 33.829 19.0892C34.2049 19.2765 34.7036 19.52 35.2907 19.7951L36.7857 23.842ZM26.8047 19.888C27.4063 19.6222 27.9192 19.386 28.3087 19.203C28.6776 19.4998 29.093 19.7337 29.538 19.8952L29.1728 20.8691L29.1726 20.8699L27.8101 24.5043L27.6938 24.1573C27.6488 24.0224 27.5776 23.8977 27.4844 23.7903C27.3912 23.6829 27.2778 23.5949 27.1505 23.5313C27.0233 23.4677 26.8848 23.4299 26.743 23.4198C26.6011 23.4098 26.4586 23.4278 26.3237 23.4728L25.2668 23.8251L26.8047 19.888ZM33.1665 15.8333C33.1665 16.2619 33.0394 16.6808 32.8014 17.0371C32.5633 17.3934 32.2249 17.6711 31.829 17.8351C31.4331 17.9991 30.9974 18.042 30.5771 17.9584C30.1568 17.8748 29.7708 17.6684 29.4678 17.3654C29.1648 17.0624 28.9584 16.6763 28.8748 16.256C28.7912 15.8357 28.8341 15.4001 28.9981 15.0042C29.1621 14.6083 29.4398 14.2699 29.7961 14.0318C30.1524 13.7937 30.5713 13.6667 30.9998 13.6667C31.5742 13.6674 32.1249 13.8959 32.5311 14.3021C32.9372 14.7083 33.1658 15.2589 33.1665 15.8333ZM28.8332 27.9474L30.9385 22.3333H31.0612L33.1665 27.9474V52.6667H28.8332V27.9474ZM44.2558 9.39575C44.6568 9.8623 44.3638 11.8057 44.2072 12.8499C44.0958 13.478 44.0265 14.1127 43.9998 14.75L44.0104 15.4525C44.0347 16.6829 44.0877 19.2441 43.3481 19.9995C42.7131 20.6431 38.051 18.7362 35.0664 17.2795C35.4403 16.2867 35.4206 15.1885 35.0113 14.2097C37.9613 11.478 41.8552 9.33333 43.9998 9.33333C44.09 9.3207 44.1816 9.34303 44.2558 9.39575ZM17.7438 9.39575C17.8181 9.34303 17.9097 9.3207 17.9998 9.33333C21.4346 9.93262 24.5997 11.5801 27.061 14.0496C26.8156 14.577 26.6817 15.1494 26.6677 15.731C26.6537 16.3125 26.76 16.8907 26.9798 17.4292C23.9028 18.8373 19.2745 20.63 18.6515 19.9995C17.912 19.2441 17.9649 16.6829 17.9893 15.4525L17.9998 14.75C17.9731 14.1127 17.9039 13.478 17.7925 12.8499C17.6358 11.8057 17.3429 9.8623 17.7438 9.39575ZM9.33317 13.6667H15.7221C15.783 14.0249 15.8201 14.3868 15.8332 14.75L15.8237 15.408C15.7043 17.0097 15.8648 18.62 16.2979 20.1667H9.33317V13.6667ZM11.4998 22.3333H23.5227L22.4072 25.1887C22.3322 25.3805 22.3134 25.5897 22.353 25.7918C22.3927 25.9938 22.4891 26.1804 22.631 26.3297C22.7729 26.4789 22.9544 26.5846 23.1542 26.6343C23.354 26.6841 23.5639 26.6759 23.7592 26.6106L25.9809 25.87L26.6665 27.9247V52.6667H11.4998V22.3333ZM50.4998 52.6667H35.3332V27.9247L36.0187 25.87L38.2404 26.6106C38.4341 26.6753 38.6421 26.6839 38.8405 26.6355C39.0388 26.5871 39.2195 26.4836 39.3616 26.337C39.5037 26.1903 39.6014 26.0065 39.6436 25.8067C39.6858 25.6069 39.6706 25.3993 39.5999 25.2078L38.5385 22.3333H50.4998V52.6667ZM52.6665 20.1667H45.7018C46.1349 18.62 46.2953 17.0097 46.176 15.408L46.1665 14.75C46.1796 14.3868 46.2167 14.0249 46.2776 13.6667H52.6665V20.1667Z" fill="black"/>
</svg>
