<svg width="59" height="57" viewBox="0 0 59 57" fill="none" xmlns="http://www.w3.org/2000/svg">
<path d="M19.668 47.5C30.0233 47.5 38.418 39.1053 38.418 28.75C38.418 18.3947 30.0233 10 19.668 10C9.31263 10 0.917969 18.3947 0.917969 28.75C0.917969 39.1053 9.31263 47.5 19.668 47.5Z" fill="#FFE24F"/>
<path d="M48.3125 56.1094H12.6875C10.232 56.1094 8.23438 54.1117 8.23438 51.6562V5.34375C8.23438 2.8883 10.232 0.890625 12.6875 0.890625H36.8698C38.0592 0.890625 39.1778 1.3542 40.0181 2.19495L51.4613 13.6381C52.3025 14.4793 52.7656 15.5971 52.7656 16.7865V51.6562C52.7656 54.1117 50.768 56.1094 48.3125 56.1094ZM12.6875 2.67188C11.214 2.67188 10.0156 3.87021 10.0156 5.34375V51.6562C10.0156 53.1298 11.214 54.3281 12.6875 54.3281H48.3125C49.786 54.3281 50.9844 53.1298 50.9844 51.6562V16.7865C50.9844 16.0833 50.6989 15.3949 50.202 14.8975L38.7588 3.45429C38.2542 2.94975 37.5831 2.67188 36.8698 2.67188H12.6875Z" fill="#363636" stroke="#363636" stroke-width="0.5"/>
<g clip-path="url(#clip0)">
<path d="M76.207 17.3008H40.582C38.1266 17.3008 36.1289 15.3031 36.1289 12.8477V-33.4648C36.1289 -35.9203 38.1266 -37.918 40.582 -37.918H64.7643C65.9537 -37.918 67.0723 -37.4544 67.9127 -36.6136L79.3558 -25.1705C80.197 -24.3293 80.6602 -23.2115 80.6602 -22.0221V12.8477C80.6602 15.3031 78.6625 17.3008 76.207 17.3008ZM40.582 -36.1367C39.1085 -36.1367 37.9102 -34.9384 37.9102 -33.4648V12.8477C37.9102 14.3212 39.1085 15.5195 40.582 15.5195H76.207C77.6806 15.5195 78.8789 14.3212 78.8789 12.8477V-22.0221C78.8789 -22.7253 78.5935 -23.4137 78.0965 -23.9111L66.6533 -35.3543C66.1488 -35.8588 65.4777 -36.1367 64.7643 -36.1367H40.582Z" fill="#363636" stroke="#363636" stroke-width="0.5"/>
</g>
<path d="M44.4003 35.7675C44.3691 35.5404 44.1865 35.2554 43.9906 35.0639C43.4295 34.5117 42.196 34.2223 40.3167 34.1955C39.0432 34.1822 37.5113 34.2935 35.8992 34.5206C35.1778 34.1065 34.4342 33.6523 33.8508 33.1045C32.2789 31.6395 30.9696 29.6044 30.1503 27.3645C30.2037 27.1552 30.2482 26.9726 30.2928 26.7855C30.2928 26.7855 31.1745 21.7624 30.9429 20.0613C30.9117 19.8298 30.8895 19.763 30.8271 19.5804L30.7514 19.3845C30.511 18.8278 30.0389 18.24 29.2997 18.2712L28.8633 18.2578H28.8544C28.0261 18.2578 27.3582 18.6809 27.18 19.3088C26.6457 21.2859 27.1978 24.2473 28.1998 28.077L27.9415 28.7004C27.2246 30.4549 26.325 32.2184 25.5324 33.7725L25.43 33.9729C24.5928 35.6072 23.8357 36.9966 23.1455 38.1722L22.4375 38.5462C22.384 38.573 21.1683 39.2187 20.8833 39.3879C18.4653 40.8352 16.8621 42.4739 16.595 43.7742C16.5103 44.1928 16.5727 44.7227 17.0046 44.9677L17.6904 45.315C17.9888 45.462 18.305 45.5377 18.6256 45.5377C20.3489 45.5377 22.3484 43.3913 25.1049 38.5819C28.2844 37.5488 31.9092 36.6848 35.0843 36.2128C37.5024 37.571 40.4771 38.5195 42.3563 38.5195C42.6903 38.5195 42.9797 38.4884 43.2113 38.426C43.572 38.328 43.8748 38.1232 44.0618 37.8471C44.427 37.2994 44.4982 36.5423 44.4003 35.7675ZM18.2515 44.2329C18.5632 43.3734 19.8101 41.6723 21.6492 40.1672C21.765 40.0737 22.05 39.8065 22.3083 39.5571C20.3846 42.6253 19.0976 43.8455 18.2515 44.2329ZM29.1439 19.1484C29.696 19.1484 30.0122 20.5423 30.0389 21.8515C30.0657 23.1607 29.7584 24.078 29.3799 24.7594C29.0637 23.753 28.9123 22.1677 28.9123 21.1301C28.9123 21.1301 28.89 19.1484 29.1439 19.1484ZM25.8931 37.0233C26.2805 36.333 26.6813 35.6027 27.091 34.8323C28.0929 32.9398 28.7253 31.4613 29.1928 30.2456C30.128 31.9467 31.2947 33.394 32.6618 34.5518C32.8355 34.6943 33.0181 34.8413 33.2051 34.9882C30.4219 35.5359 28.0128 36.2084 25.8931 37.0233ZM43.4517 36.8674C43.2825 36.9698 42.7971 37.0322 42.4854 37.0322C41.479 37.0322 40.2277 36.5735 38.4776 35.8209C39.15 35.772 39.769 35.7452 40.3212 35.7452C41.3321 35.7452 41.6304 35.7408 42.6235 35.9946C43.6121 36.2484 43.6254 36.7605 43.4517 36.8674Z" fill="#363636" stroke="#363636" stroke-width="0.5"/>
<defs>
<clipPath id="clip0">
<rect width="19.4043" height="24.2553" fill="white" transform="translate(32.3203 1.21265)"/>
</clipPath>
</defs>
</svg>
