<svg width="55" height="55" viewBox="0 0 55 55" fill="none" xmlns="http://www.w3.org/2000/svg">
<path d="M22.25 39.625C32.6053 39.625 41 31.2303 41 20.875C41 10.5197 32.6053 2.125 22.25 2.125C11.8947 2.125 3.5 10.5197 3.5 20.875C3.5 31.2303 11.8947 39.625 22.25 39.625Z" fill="#FFE24F"/>
<g clip-path="url(#clip0)">
<path d="M25.3789 37.3039C25.7989 36.8839 25.7989 36.2041 25.3789 35.7841C24.9584 35.3653 24.2773 35.3653 23.8564 35.7841C23.4368 36.2041 23.4368 36.8839 23.8564 37.3039C24.2773 37.7227 24.9584 37.7227 25.3789 37.3039Z" fill="#363636"/>
<path d="M20.2832 11.8131C20.2832 18.3268 25.5929 23.6265 32.1194 23.6265C38.6458 23.6265 43.9555 18.3268 43.9555 11.8131C43.9555 5.29934 38.6458 0 32.1194 0C25.5929 0 20.2832 5.29934 20.2832 11.8131ZM41.8037 11.8131C41.8037 17.1426 37.4593 21.4785 32.1194 21.4785C26.7794 21.4785 22.435 17.1426 22.435 11.8131C22.435 6.48392 26.7794 2.14802 32.1194 2.14802C37.4593 2.14802 41.8037 6.48392 41.8037 11.8131Z" fill="#363636"/>
<path d="M12.4479 54.6824C12.865 55.102 13.544 55.1066 13.9666 54.6912L19.1834 49.5618C20.0696 48.6772 20.3391 47.3676 19.9494 46.2292L21.0715 45.1491C21.6757 44.5667 22.4712 44.2457 23.3121 44.2457H37.6166C40.1544 44.2457 42.553 43.273 44.3714 41.5068C44.4462 41.4342 43.8034 42.19 54.1301 29.8717C55.6618 28.0631 55.4327 25.3474 53.6189 23.817C51.8165 22.301 49.1164 22.5187 47.5806 24.2962L41.2311 30.8095C40.4293 29.8247 39.2067 29.2108 37.8857 29.2108H25.8868C24.1794 28.4979 22.3678 28.137 20.4985 28.137C15.317 28.137 10.7927 30.5254 8.36465 35.0036C7.34172 34.8102 6.26288 35.119 5.48675 35.8936L0.367918 41.0175C-0.0499975 41.4359 -0.0508383 42.1127 0.366236 42.5324L12.4479 54.6824ZM20.4981 30.2846C22.1462 30.2846 23.7396 30.6157 25.2351 31.2686C25.3714 31.3282 25.5181 31.3588 25.6665 31.3588H37.8857C39.0524 31.3588 40.0379 32.3084 40.0379 33.5064C40.0379 34.691 39.0726 35.6544 37.8857 35.6544H29.1065C28.5124 35.6544 28.0306 36.1353 28.0306 36.7282C28.0306 37.3216 28.5124 37.802 29.1065 37.802H37.8857C40.2591 37.802 42.1897 35.8751 42.1897 33.5064C42.1897 33.3176 42.1763 33.1304 42.1519 32.945C48.2941 26.6436 49.1602 25.7582 49.1972 25.7141C49.964 24.8107 51.3254 24.6961 52.231 25.4582C53.1375 26.2231 53.2523 27.581 52.4833 28.4895L42.8321 40.0046C41.4228 41.3549 39.5725 42.0981 37.6166 42.0981H23.3121C21.9103 42.0981 20.5834 42.6331 19.5769 43.6036L18.6624 44.4844L10.2327 36.0715C12.2028 32.3827 15.8997 30.2846 20.4981 30.2846ZM7.00958 37.4114C7.36442 37.0572 7.90931 36.9934 8.34194 37.2603C8.5282 37.3736 7.9934 36.8877 17.6618 46.5238C18.0919 46.953 18.0688 47.637 17.6677 48.0373L13.2203 52.4101L2.64753 41.7775L7.00958 37.4114Z" fill="#363636"/>
<path d="M32.9128 6.995C33.5328 6.995 34.0378 7.05 34.4278 7.16C34.8278 7.26 35.2028 7.46 35.5528 7.76C36.2328 8.36 36.5728 9.175 36.5728 10.205C36.5728 11.095 36.2978 11.815 35.7478 12.365C35.1378 12.955 34.2928 13.25 33.2128 13.25H31.9528V14.195H34.7128V15.545H31.9528V17H30.0028V15.545H28.9528V14.195H30.0028V13.25H28.9528V11.615H30.0028V6.995H32.9128ZM31.9528 8.675V11.615H32.7478C33.3178 11.615 33.7428 11.51 34.0228 11.3C34.3828 11.02 34.5628 10.63 34.5628 10.13C34.5628 9.64 34.3778 9.26 34.0078 8.99C33.7078 8.78 33.2478 8.675 32.6278 8.675H31.9528Z" fill="#363636"/>
</g>
<defs>
<clipPath id="clip0">
<rect width="55" height="55" fill="white"/>
</clipPath>
</defs>
</svg>
