<svg width="67" height="61" viewBox="0 0 67 61" fill="none" xmlns="http://www.w3.org/2000/svg">
<path d="M18.75 37.5C29.1053 37.5 37.5 29.1053 37.5 18.75C37.5 8.39466 29.1053 0 18.75 0C8.39466 0 0 8.39466 0 18.75C0 29.1053 8.39466 37.5 18.75 37.5Z" fill="#FFE24F"/>
<path d="M34.3522 60.2468C19.1216 60.2468 6.72852 47.8542 6.72852 32.6236C6.72852 17.393 19.1216 5 34.3522 5C39.6483 5 44.8011 6.50913 49.2535 9.3669C50.1276 9.92972 50.3837 11.0949 49.8209 11.9713C49.2563 12.8477 48.0934 13.1011 47.217 12.5387C43.3747 10.07 38.9251 8.76684 34.3522 8.76684C21.1981 8.76684 10.4954 19.4696 10.4954 32.6236C10.4954 45.7772 21.1981 56.48 34.3522 56.48C47.5057 56.48 58.2085 45.7772 58.2085 32.6236C58.2085 31.8373 58.1708 31.0589 58.0981 30.2933C57.9979 29.2559 58.7561 28.3367 59.7907 28.2365C60.8304 28.1409 61.7468 28.8945 61.8475 29.9291C61.9326 30.8156 61.9753 31.7146 61.9753 32.6236C61.9753 47.8542 49.5827 60.2468 34.3522 60.2468Z" fill="#363636"/>
<path d="M37.4906 38.9015C37.0087 38.9015 36.5264 38.718 36.1599 38.3493L24.8594 27.0488C24.1237 26.3126 24.1237 25.1198 24.8594 24.3841C25.5951 23.6484 26.7879 23.6484 27.5236 24.3841L37.4934 34.3539L63.7831 8.06375C64.5193 7.32804 65.712 7.32804 66.4477 8.06375C67.1835 8.79946 67.1835 9.99223 66.4477 10.7279L38.8241 38.3516C38.4549 38.718 37.973 38.9015 37.4906 38.9015Z" fill="#363636"/>
</svg>
