<svg width="46" height="46" viewBox="0 0 46 46" fill="none" xmlns="http://www.w3.org/2000/svg">
<path d="M26 42.5C34.2843 42.5 41 35.7843 41 27.5C41 19.2157 34.2843 12.5 26 12.5C17.7157 12.5 11 19.2157 11 27.5C11 35.7843 17.7157 42.5 26 42.5Z" fill="#FFE24F"/>
<path d="M3.97846 11.0488C3.35997 9.41873 2.87267 7.71287 2.51657 5.98806C2.38537 5.32467 2.25418 4.68024 2.14172 4.01685C2.06675 3.59986 2.01053 3.16392 1.93556 2.72798C1.89807 2.51948 1.87933 2.29204 1.84185 2.08354V1.95086C1.84185 1.91296 1.8231 1.85609 1.8231 1.81819C1.91682 1.81819 2.01053 1.83714 2.10424 1.85609L2.27292 1.87505C2.70399 1.93191 3.11632 1.98877 3.54739 2.06459C4.39079 2.19727 5.21545 2.3489 6.00262 2.51948C7.65194 2.87961 9.28251 3.35346 10.8381 3.94103C11.3067 4.11162 11.8127 3.88417 12.0001 3.41032C12.1688 2.93647 11.9439 2.42471 11.4754 2.23517C9.84478 1.60969 8.13924 1.11689 6.39621 0.73781C5.59029 0.567224 4.72815 0.396639 3.84727 0.263961C3.41619 0.188145 2.96638 0.131283 2.53531 0.0744209L2.34789 0.0554669C1.93556 -0.00139504 1.39203 -0.077211 0.811024 0.188145C0.342468 0.415592 0.0425925 0.908396 0.00510806 1.51492C-0.0136342 1.78028 0.0238503 2.02668 0.0425925 2.21622L0.0613347 2.32994C0.0988192 2.55739 0.117561 2.78484 0.155046 3.01229C0.211273 3.44823 0.286242 3.90312 0.36121 4.33907C0.473664 5.02141 0.60486 5.70375 0.754797 6.3861C1.12964 8.20568 1.65442 9.98735 2.29166 11.7311C2.42286 12.0912 2.76022 12.3187 3.13506 12.3187C3.24751 12.3187 3.34123 12.2997 3.45368 12.2618C3.92224 12.0533 4.14714 11.5226 3.97846 11.0488Z" fill="black"/>
<path d="M45.7363 41.7923C45.249 41.2995 45.1365 40.4087 45.0053 39.5178C44.7429 37.6793 43.9745 34.2865 41.6505 32.1826C40.6384 31.2728 39.4576 30.7232 38.1457 30.5526C36.159 30.2872 34.0786 31.0075 32.4668 32.5238C30.8549 34.0401 29.9928 36.0682 30.1052 38.1152C30.3114 42.0197 33.9661 44.1805 37.0399 44.8628C37.902 45.0524 38.7829 45.2419 39.2889 45.7347C39.4576 45.9053 39.7013 46.0001 39.9449 46.0001C40.0761 46.0001 40.1886 45.9811 40.3198 45.9243C40.9195 45.64 40.882 44.9576 40.8633 44.6733C40.7883 43.574 40.1323 42.8727 39.6263 42.323C39.4389 42.1145 39.2514 41.906 39.1015 41.7165C38.9328 41.4701 38.8579 41.2047 38.9141 40.9962C38.9703 40.8067 39.1203 40.6551 39.3826 40.5224C39.9449 40.257 40.7321 40.3139 41.2194 40.674C41.5193 40.8825 41.7629 41.2237 42.044 41.5648C42.4564 42.0956 42.9249 42.6831 43.6184 43.0433C43.9558 43.2138 44.2931 43.3276 44.7242 43.3844C45.0053 43.4034 45.6426 43.4413 45.9237 42.8348C46.0736 42.4936 45.9987 42.0766 45.7363 41.7923ZM42.269 39.1956C41.2569 38.4564 39.7575 38.3237 38.6142 38.8734C37.8833 39.2335 37.3585 39.8211 37.1711 40.5224C36.9836 41.2426 37.1523 42.0577 37.6209 42.74C37.7333 42.9106 37.8645 43.0622 37.9957 43.2138C37.7896 43.157 37.6021 43.1191 37.4147 43.0812C34.9595 42.5505 32.0544 40.9015 31.8857 38.0205C31.8108 36.5231 32.4668 35.0068 33.685 33.8506C34.7346 32.865 36.0465 32.3153 37.321 32.3153C37.5084 32.3153 37.7146 32.3343 37.902 32.3532C38.8579 32.4859 39.72 32.8839 40.451 33.5473C41.8379 34.7983 42.85 37.0728 43.2248 39.8211C43.2435 39.9538 43.2623 40.0864 43.281 40.2381C42.9999 39.859 42.6813 39.4799 42.269 39.1956Z" fill="black"/>
<path d="M33.7038 26.6478L32.8042 24.1838C32.4293 23.1793 32.017 22.1747 31.5672 21.208L39.1015 13.5886C39.6826 13.001 39.8512 12.1101 39.4951 11.352C39.139 10.5938 38.3893 10.1389 37.5647 10.1958L24.8012 11.1435C21.9337 8.11085 18.635 5.62788 14.9615 3.78935C14.8678 3.73249 14.7741 3.69458 14.6429 3.63772C14.3056 3.46713 13.8932 3.54295 13.6308 3.8083L3.77242 13.7591C3.51003 14.0245 3.43506 14.4415 3.60374 14.8016L3.73494 15.067C5.57168 18.8009 8.00817 22.1557 11.0257 25.0557L10.0886 37.9823C10.0323 38.8163 10.4821 39.5934 11.2318 39.9346C11.4942 40.0673 11.7754 40.1241 12.0565 40.1241C12.5625 40.1241 13.0686 39.9156 13.4434 39.5365L20.9778 31.8981C21.9337 32.353 22.927 32.77 23.9016 33.1301L26.3381 34.0399C26.6567 34.1536 27.0315 34.0778 27.2752 33.8314L33.4789 27.5955C33.7413 27.3491 33.835 26.9701 33.7038 26.6478ZM26.4505 32.1255L24.5576 31.4053C23.433 30.9883 22.3085 30.4955 21.2214 29.9648C20.8841 29.7942 20.4718 29.87 20.1906 30.1354L12.2064 38.2287C12.1877 38.2477 12.1127 38.3235 12.0003 38.2666C11.8878 38.2098 11.8878 38.1339 11.9066 38.096L12.8624 24.7335C12.8811 24.4492 12.7687 24.1838 12.5813 23.9943C9.65748 21.2839 7.27722 18.0996 5.49671 14.5742L14.4368 5.53311C17.9416 7.33374 21.0903 9.7409 23.7891 12.6788C23.9766 12.8873 24.2389 12.982 24.5201 12.9631L37.7146 11.9775C37.7521 11.9775 37.8271 11.9775 37.8833 12.0722C37.9395 12.186 37.8646 12.2618 37.8458 12.2807L29.8616 20.3551C29.5992 20.6205 29.5243 21.0375 29.6929 21.3976C30.2177 22.4969 30.705 23.6342 31.1361 24.8093L31.8296 26.7237L26.4505 32.1255Z" fill="black"/>
<path d="M14.699 14.8205C13.8743 15.6544 13.4058 16.7727 13.4058 17.9668C13.4058 19.1609 13.8556 20.2792 14.699 21.1132C15.5236 21.9472 16.6294 22.421 17.8102 22.421C18.9909 22.421 20.0967 21.9661 20.9214 21.1132C22.6269 19.3884 22.6269 16.5642 20.9214 14.8205C19.1971 13.0957 16.4233 13.0957 14.699 14.8205ZM19.6469 19.8243C19.1596 20.3171 18.5036 20.6014 17.8102 20.6014C17.1167 20.6014 16.4607 20.3361 15.9734 19.8243C15.4861 19.3315 15.205 18.6681 15.205 17.9668C15.205 17.2655 15.4861 16.6021 15.9734 16.1093C16.4795 15.5976 17.1542 15.3322 17.8102 15.3322C18.4849 15.3322 19.1409 15.5976 19.6469 16.1093C20.659 17.1328 20.659 18.8008 19.6469 19.8243Z" fill="black"/>
</svg>
