<svg width="55" height="55" viewBox="0 0 55 55" fill="none" xmlns="http://www.w3.org/2000/svg">
<path d="M30.6666 46.5C41.022 46.5 49.4166 38.1053 49.4166 27.75C49.4166 17.3947 41.022 9 30.6666 9C20.3113 9 11.9166 17.3947 11.9166 27.75C11.9166 38.1053 20.3113 46.5 30.6666 46.5Z" fill="#FFE24F"/>
<g clip-path="url(#clip0)">
<path d="M45.8614 48.8696C46.0611 48.6696 46.3382 48.5548 46.6208 48.5548C46.9033 48.5548 47.1804 48.6696 47.3802 48.8696C47.58 49.0695 47.695 49.3465 47.695 49.629C47.695 49.9115 47.5801 50.1887 47.3802 50.3884C47.1804 50.5882 46.9033 50.7032 46.6208 50.7032C46.3382 50.7032 46.0611 50.5883 45.8614 50.3884C45.6616 50.1887 45.5465 49.9115 45.5465 49.629C45.5465 49.3465 45.6615 49.0694 45.8614 48.8696Z" fill="black"/>
<path d="M4.56286 19.6515C4.76266 19.4516 5.03873 19.3368 5.32233 19.3368C5.60485 19.3368 5.882 19.4516 6.0818 19.6515C6.2815 19.8513 6.39655 20.1285 6.39655 20.411C6.39655 20.6935 6.2816 20.9707 6.0818 21.1704C5.882 21.3702 5.60485 21.4852 5.32233 21.4852C5.03873 21.4852 4.76266 21.3703 4.56286 21.1704C4.36209 20.9707 4.24714 20.6935 4.24714 20.411C4.24714 20.1285 4.36209 19.8513 4.56286 19.6515Z" fill="black"/>
<path d="M0.314144 0.314639C0.515667 0.113223 0.788948 0 1.07394 0L27.4991 0.00139648C28.0923 0.00139648 28.5732 0.482432 28.5732 1.07562V4.14756L38.7556 6.87597C39.3287 7.02958 39.6688 7.61857 39.5152 8.19156L34.2379 27.8865L38.8032 32.4518C39.3842 31.6034 40.3598 31.0455 41.4634 31.0455H51.7756C53.5525 31.0455 54.9981 32.4911 54.9981 34.268V51.7773C54.9981 53.5543 53.5525 55 51.7756 55H41.4633C39.9537 55 38.6837 53.9563 38.3357 52.5529L37.0584 53.6668C36.0724 54.5266 34.8091 55.0001 33.5008 55.0001H1.07373C0.480545 55.0001 -0.000492096 54.5191 -0.000492096 53.9259V1.07422C-0.000278473 0.789336 0.112728 0.516055 0.314144 0.314639ZM40.3893 51.7775C40.3893 52.3697 40.8712 52.8517 41.4635 52.8517H51.7757C52.368 52.8517 52.8499 52.3698 52.8499 51.7775V34.2681C52.8499 33.6758 52.368 33.1939 51.7757 33.1939H47.6937V45.5684C47.6937 46.1615 47.2127 46.6426 46.6195 46.6426C46.0263 46.6426 45.5453 46.1615 45.5453 45.5684V33.1939H41.4634C40.8711 33.1939 40.3892 33.6758 40.3892 34.2681V51.7775H40.3893ZM37.162 8.67313L28.5732 6.37173V10.3522L29.2931 10.5452C29.5685 10.619 29.803 10.7989 29.9454 11.0457C30.0878 11.2924 30.1265 11.5856 30.0527 11.8608C29.6399 13.4013 30.5574 14.9904 32.0979 15.4032C32.3735 15.4771 32.6084 15.6574 32.7507 15.9047C32.8931 16.1518 32.9314 16.4455 32.857 16.721L28.6698 32.226H30.8257L31.9368 27.8793C31.9721 27.7409 32.034 27.6134 32.1168 27.5026L37.162 8.67313ZM28.5732 15.2785V24.3429L30.5325 17.0881C29.714 16.6655 29.0442 16.0333 28.5732 15.2785ZM13.1405 52.8516H33.5011C34.2901 52.8516 35.052 52.566 35.6467 52.0475L38.2408 49.7851V34.9279L33.551 30.2381L32.7004 33.566C32.5788 34.0416 32.1506 34.3741 31.6597 34.3741L10.5402 34.3754C9.71087 34.3754 9.03627 35.05 9.03627 35.8793C9.03627 36.7086 9.71087 37.3832 10.5402 37.3832H21.3618C21.955 37.3832 22.4361 37.8643 22.4361 38.4575C22.4361 39.0506 21.955 39.5317 21.3618 39.5317H7.17786C6.34857 39.5317 5.67396 40.2063 5.67396 41.0356C5.67396 41.8649 6.34857 42.5395 7.17786 42.5395H21.3618C21.955 42.5395 22.4361 43.0205 22.4361 43.6137C22.4361 44.2069 21.955 44.6879 21.3618 44.6879H9.47637C8.64707 44.6879 7.97247 45.3625 7.97247 46.1918C7.97247 47.0211 8.64707 47.6957 9.47637 47.6957H21.3618C21.955 47.6957 22.4361 48.1768 22.4361 48.77C22.4361 49.3631 21.955 49.8442 21.3618 49.8442H13.1405C12.3112 49.8442 11.6366 50.5188 11.6366 51.3481C11.6367 52.177 12.3113 52.8516 13.1405 52.8516ZM2.14795 52.8516H2.14805H9.81357C9.60528 52.3925 9.4883 51.8837 9.4883 51.3477C9.4883 50.8116 9.60528 50.3028 9.81357 49.8438H9.47637C7.46253 49.8438 5.82413 48.2054 5.82413 46.1915C5.82413 45.6041 5.96432 45.0491 6.21182 44.5569C4.66537 44.1321 3.52574 42.7147 3.52574 41.0354C3.52574 40.2207 3.79408 39.4675 4.24665 38.8595V25.2449C4.24665 24.6517 4.72768 24.1707 5.32087 24.1707C5.91405 24.1707 6.39508 24.6517 6.39508 25.2449V37.4686C6.64753 37.4133 6.90931 37.3832 7.17808 37.3832H7.21331C7.00502 36.9242 6.88804 36.4154 6.88804 35.8793C6.88804 33.8654 8.52644 32.2271 10.5403 32.2271H12.2671C10.4335 31.4408 9.14573 29.6183 9.14573 27.5C9.14573 24.6652 11.4519 22.359 14.2866 22.359C17.1213 22.359 19.4275 24.6652 19.4275 27.5C19.4275 29.6183 18.1396 31.4408 16.3061 32.2271H22.1781V11.8017C20.2592 11.3835 18.7449 9.86938 18.3269 7.95029H10.2465C9.82839 9.86938 8.31417 11.3835 6.39519 11.8017V15.1414C6.39519 15.7346 5.91415 16.2157 5.32097 16.2157C4.72779 16.2157 4.24675 15.7346 4.24675 15.1414V10.8426C4.24675 10.2494 4.72779 9.76841 5.32097 9.76841C6.91586 9.76841 8.2132 8.47086 8.2132 6.87607C8.2132 6.28289 8.69423 5.80186 9.28741 5.80186H19.2858C19.879 5.80186 20.36 6.28289 20.36 6.87607C20.36 8.47097 21.6575 9.76841 23.2523 9.76841C23.8454 9.76841 24.3265 10.2494 24.3265 10.8426V32.227H26.4246V2.14962L2.14795 2.14844V52.8516ZM14.2864 30.4926C15.9365 30.4926 17.2789 29.1501 17.2789 27.5001C17.2789 25.8501 15.9364 24.5075 14.2864 24.5075C12.6364 24.5075 11.2939 25.85 11.2939 27.5C11.2939 29.15 12.6363 30.4926 14.2864 30.4926Z" fill="#363636"/>
</g>
<defs>
<clipPath id="clip0">
<rect width="55" height="55" fill="white" transform="matrix(-1 0 0 1 55 0)"/>
</clipPath>
</defs>
</svg>
