<svg width="54" height="45" viewBox="0 0 54 45" fill="none" xmlns="http://www.w3.org/2000/svg">
<path d="M15 32.5C23.2843 32.5 30 25.7843 30 17.5C30 9.21573 23.2843 2.5 15 2.5C6.71573 2.5 0 9.21573 0 17.5C0 25.7843 6.71573 32.5 15 32.5Z" fill="#FFE24F"/>
<path d="M24.1573 36V27.675H22.7173V25.995H26.1073V36H24.1573Z" fill="#363636"/>
<path d="M41.5312 29.5312C41.0461 29.5312 40.6523 29.925 40.6523 30.4102C40.6523 30.8953 41.0461 31.2891 41.5312 31.2891C42.0164 31.2891 42.4102 30.8953 42.4102 30.4102C42.4102 29.925 42.0164 29.5312 41.5312 29.5312Z" fill="#363636"/>
<path d="M19.5469 14.5898C20.0323 14.5898 20.4258 14.1964 20.4258 13.7109V10.1953C20.4258 9.70985 20.0323 9.31641 19.5469 9.31641C19.0614 9.31641 18.668 9.70985 18.668 10.1953V13.7109C18.668 14.1964 19.0614 14.5898 19.5469 14.5898Z" fill="#363636"/>
<path d="M50.4844 20.7422V13.7109C50.4844 11.2878 48.513 9.31641 46.0898 9.31641H41.168V2.63672C41.168 1.18275 39.9852 0 38.5312 0H22.1836C20.7296 0 19.5469 1.18275 19.5469 2.63672V5.80078H16.9102C15.4562 5.80078 14.2734 6.98353 14.2734 8.4375V9.31641H13.3945C10.9714 9.31641 9 11.2878 9 13.7109V40.6055C9 43.0286 10.9714 45 13.3945 45H40.2891C42.4111 45 44.1868 43.488 44.595 41.4844H46.0898C48.513 41.4844 50.4844 39.513 50.4844 37.0898V34.8047H51.3633C52.8173 34.8047 54 33.6219 54 32.168V24.2578C54 22.3194 52.4228 20.7422 50.4844 20.7422ZM52.2422 24.2578C52.2422 25.2287 51.4553 26.0156 50.4844 26.0156V22.5C51.4536 22.5 52.2422 23.2886 52.2422 24.2578ZM46.0898 11.0742C47.5438 11.0742 48.7266 12.257 48.7266 13.7109V26.0156H44.6836V20.7422C44.6836 18.6201 43.1716 16.8444 41.168 16.4362V11.0742H46.0898ZM21.3047 2.63672C21.3047 2.15195 21.6988 1.75781 22.1836 1.75781H38.5312C39.016 1.75781 39.4102 2.15195 39.4102 2.63672V16.3477H35.3672V8.4375C35.3672 6.98353 34.1844 5.80078 32.7305 5.80078H21.3047V2.63672ZM30.0938 16.3477V7.55859H32.7305C33.2152 7.55859 33.6094 7.95273 33.6094 8.4375V16.3477H30.0938ZM24.8203 16.3477V7.55859H28.3359V16.3477H24.8203ZM16.0312 8.4375C16.0312 7.95273 16.4254 7.55859 16.9102 7.55859H23.0625V16.3477H16.0312V8.4375ZM13.3945 11.0742H14.2734V16.3477H13.5827C12.1301 16.3477 10.7578 15.2957 10.7578 13.7109C10.7578 12.257 11.9406 11.0742 13.3945 11.0742ZM40.2891 43.2422H13.3945C11.9406 43.2422 10.7578 42.0594 10.7578 40.6055V17.1723C11.5437 17.7577 12.5307 18.1055 13.5827 18.1055H40.2891C41.743 18.1055 42.9258 19.2882 42.9258 20.7422V26.0156H39.7734C38.3195 26.0156 37.1367 27.1984 37.1367 28.6523V32.168C37.1367 33.6219 38.3195 34.8047 39.7734 34.8047H42.9258V40.6055C42.9258 42.0594 41.743 43.2422 40.2891 43.2422ZM48.7266 37.0898C48.7266 38.5438 47.5438 39.7266 46.0898 39.7266H44.6836V34.8047H48.7266V37.0898ZM51.3633 33.0469H39.7734C39.2887 33.0469 38.8945 32.6527 38.8945 32.168V28.6523C38.8945 28.1676 39.2887 27.7734 39.7734 27.7734H50.4844C51.1116 27.7734 51.7135 27.6093 52.2422 27.3027V32.168C52.2422 32.6527 51.8481 33.0469 51.3633 33.0469Z" fill="#363636"/>
<path d="M49.0898 29.5312H45.0469C44.5614 29.5312 44.168 29.9247 44.168 30.4102C44.168 30.8956 44.5614 31.2891 45.0469 31.2891H49.0898C49.5753 31.2891 49.9688 30.8956 49.9688 30.4102C49.9688 29.9247 49.5753 29.5312 49.0898 29.5312Z" fill="#363636"/>
</svg>
