<svg width="45" height="45" viewBox="0 0 45 45" fill="none" xmlns="http://www.w3.org/2000/svg">
<path d="M30 41.5C38.2843 41.5 45 34.7843 45 26.5C45 18.2157 38.2843 11.5 30 11.5C21.7157 11.5 15 18.2157 15 26.5C15 34.7843 21.7157 41.5 30 41.5Z" fill="#FFE24F"/>
<g clip-path="url(#clip0)">
<path d="M38.7892 8.0668C39.3796 8.06825 39.9461 7.83373 40.3627 7.4154C41.1122 6.66502 41.2274 5.48973 40.6378 4.60811C40.0483 3.72648 38.9181 3.38401 37.9383 3.79006C36.9585 4.19612 36.4019 5.23766 36.6089 6.27787C36.8158 7.31808 37.7286 8.06734 38.7892 8.06753V8.0668ZM38.2595 5.31147C38.4489 5.1221 38.7249 5.04815 38.9835 5.11746C39.2422 5.18677 39.4443 5.38882 39.5136 5.6475C39.5829 5.90618 39.5089 6.18219 39.3196 6.37155C39.0229 6.65455 38.5562 6.65455 38.2595 6.37155C38.1187 6.23108 38.0396 6.04038 38.0396 5.84151C38.0396 5.64264 38.1187 5.45194 38.2595 5.31147Z" fill="#363636"/>
<path d="M16.1721 12.6819C15.8826 12.4023 15.4225 12.4063 15.1379 12.6909C14.8534 12.9754 14.8494 13.4355 15.129 13.725L15.6549 14.251C15.9438 14.539 16.4115 14.5384 16.6995 14.2495C16.9876 13.9606 16.9869 13.493 16.6981 13.2049L16.1721 12.6819Z" fill="#363636"/>
<path d="M18.2761 14.7858C17.9866 14.5062 17.5265 14.5102 17.2419 14.7948C16.9574 15.0794 16.9534 15.5395 17.233 15.8289L23.0166 21.6148C23.306 21.8943 23.7661 21.8903 24.0507 21.6058C24.3352 21.3212 24.3392 20.8611 24.0597 20.5716L18.2761 14.7858Z" fill="#363636"/>
<path d="M4.81198 30.7542C5.20804 31.1527 5.7961 31.2918 6.3287 31.1127L15.5308 28.0571L9.87042 33.7175C9.29262 34.2964 9.29262 35.2338 9.87042 35.8126L17.2327 43.1749C17.7832 43.7238 18.4934 44.0841 19.2614 44.204C19.5203 44.3139 19.1699 44.2409 27.6639 44.2623C28.0713 44.2623 28.4016 43.932 28.4016 43.5246C28.4016 43.1172 28.0713 42.7869 27.6639 42.7869H22.8688L35.7351 29.9228L36.1563 29.5023L37.2076 28.4503C39.2356 26.4184 39.2356 23.1281 37.2076 21.0961L33.6393 17.5234L41.9908 10.9763C43.5303 9.78865 44.4883 7.99921 44.623 6.05951C44.7488 4.4204 44.1566 2.80744 43 1.63919C41.8326 0.481241 40.219 -0.111206 38.5797 0.0162358C36.64 0.150377 34.8504 1.10813 33.6629 2.64763L27.1069 10.9955L23.0089 6.89755C22.1092 5.93907 20.8031 5.4723 19.4997 5.64345C18.2269 5.85384 17.0596 6.47977 16.18 7.42353L15.128 8.4755L10.9231 12.6804L1.45616 22.1481C0.759848 22.8443 0.368652 23.7886 0.368652 24.7732C0.368652 25.7579 0.759848 26.7022 1.45616 27.3984L4.81198 30.7542ZM34.8196 3.55427C35.7463 2.34657 37.1454 1.59314 38.6638 1.48427C39.8831 1.37785 41.0871 1.81616 41.9527 2.68157C42.8182 3.54698 43.2567 4.75089 43.1505 5.97025C43.0416 7.48878 42.2882 8.88816 41.0805 9.81517L32.5844 16.473L30.49 14.3786L28.1581 12.0467L34.8196 3.55427ZM21.9658 7.94066L26.6525 12.6273L32.003 17.9779L36.1637 22.1385C37.6161 23.5942 37.6161 25.9508 36.1637 27.4065L35.634 27.9369L16.6935 9L17.2239 8.46959C18.4979 7.19337 20.4107 6.38705 21.9658 7.94066ZM15.6503 10.0402L34.5917 28.9807L34.1608 29.4108L31.4276 32.1403L12.4871 13.2049L15.6503 10.0402ZM2.49927 23.1912L11.4439 14.2473L30.3845 33.1871L21.4398 42.1318C20.5654 43.0038 19.1503 43.0038 18.2758 42.1318L16.1689 40.0227L18.8018 37.3906C18.9936 37.2054 19.0705 36.9311 19.003 36.6731C18.9355 36.4152 18.734 36.2138 18.4761 36.1463C18.2182 36.0788 17.9439 36.1557 17.7587 36.3475L15.1229 38.9796L10.9091 34.7621L16.5695 29.1017C16.9903 28.679 17.1174 28.0456 16.8921 27.4933C16.6669 26.941 16.1331 26.5771 15.5367 26.5692C15.3724 26.5695 15.2093 26.5964 15.0535 26.6489L5.85509 29.7111L5.12477 28.9807L7.75837 26.3464C8.04642 26.0577 8.04593 25.5902 7.75727 25.3022C7.46861 25.0141 7.00109 25.0146 6.71305 25.3033L4.07944 27.9376L3.02452 26.8768L8.81329 21.0873C9.09286 20.7978 9.08886 20.3377 8.8043 20.0532C8.51975 19.7686 8.05964 19.7646 7.77018 20.0442L2.07288 25.7385C1.66045 24.8849 1.83134 23.864 2.49927 23.1912Z" fill="#363636"/>
<path d="M18.8062 31.8217C19.0018 31.8216 19.1894 31.7439 19.3277 31.6055L19.8537 31.0796C20.1264 30.7892 20.1193 30.3348 19.8378 30.0531C19.5562 29.7714 19.1019 29.764 18.8113 30.0364L18.2853 30.5624C18.0744 30.7734 18.0113 31.0906 18.1255 31.3663C18.2397 31.6419 18.5086 31.8216 18.8069 31.8217H18.8062Z" fill="#363636"/>
<path d="M10.3919 19.2003C10.5876 19.2008 10.7754 19.123 10.9134 18.9841L11.4394 18.4582C11.6312 18.2729 11.7081 17.9987 11.6406 17.7407C11.5731 17.4828 11.3716 17.2814 11.1137 17.2139C10.8558 17.1464 10.5815 17.2233 10.3963 17.4151L9.87031 17.941C9.65939 18.152 9.59631 18.4693 9.71046 18.7449C9.82462 19.0205 10.0935 19.2002 10.3919 19.2003Z" fill="#363636"/>
<path d="M30.6147 42.7869C30.2072 42.7869 29.877 43.1172 29.877 43.5246C29.877 43.9321 30.2072 44.2623 30.6147 44.2623H32.8278C33.2352 44.2623 33.5655 43.9321 33.5655 43.5246C33.5655 43.1172 33.2352 42.7869 32.8278 42.7869H30.6147Z" fill="#363636"/>
<path d="M28.4014 39.836C28.4014 40.2435 28.7316 40.5737 29.1391 40.5737H35.7784C36.1858 40.5737 36.5161 40.2435 36.5161 39.836C36.5161 39.4286 36.1858 39.0983 35.7784 39.0983H29.1391C28.7316 39.0983 28.4014 39.4286 28.4014 39.836Z" fill="#363636"/>
<path d="M40.9425 39.0983H38.7294C38.322 39.0983 37.9917 39.4286 37.9917 39.836C37.9917 40.2435 38.322 40.5737 38.7294 40.5737H40.9425C41.3499 40.5737 41.6802 40.2435 41.6802 39.836C41.6802 39.4286 41.3499 39.0983 40.9425 39.0983Z" fill="#363636"/>
<path d="M38.7292 36.8853C39.1366 36.8853 39.4669 36.555 39.4669 36.1476C39.4669 35.7401 39.1366 35.4099 38.7292 35.4099H32.8275C32.4201 35.4099 32.0898 35.7401 32.0898 36.1476C32.0898 36.555 32.4201 36.8853 32.8275 36.8853H38.7292Z" fill="#363636"/>
<path d="M43.8932 35.4099H41.6801C41.2727 35.4099 40.9424 35.7401 40.9424 36.1476C40.9424 36.555 41.2727 36.8853 41.6801 36.8853H43.8932C44.3006 36.8853 44.6309 36.555 44.6309 36.1476C44.6309 35.7401 44.3006 35.4099 43.8932 35.4099Z" fill="#363636"/>
</g>
<defs>
<clipPath id="clip0">
<rect width="45" height="45" fill="white"/>
</clipPath>
</defs>
</svg>
