<svg width="48" height="48" viewBox="0 0 48 48" fill="none" xmlns="http://www.w3.org/2000/svg">
<path d="M21 30.5C29.2843 30.5 36 23.7843 36 15.5C36 7.21573 29.2843 0.5 21 0.5C12.7157 0.5 6 7.21573 6 15.5C6 23.7843 12.7157 30.5 21 30.5Z" fill="#FFE24F"/>
<path d="M26.699 27.716L20.8369 33.2757L18.3173 30.6554C17.9982 30.3195 17.4775 30.3195 17.1415 30.6386C16.8056 30.9578 16.8056 31.4785 17.1247 31.8144L20.2154 35.0394C20.3833 35.2074 20.6017 35.2914 20.8033 35.2914C21.0048 35.2914 21.2064 35.2242 21.3744 35.073L27.8244 28.9421C28.1603 28.623 28.1771 28.1023 27.8579 27.7664C27.5556 27.4136 27.0349 27.3968 26.699 27.716Z" fill="black"/>
<path d="M40.0526 19.9727H4.94717C3.13311 19.9727 1.63818 21.4508 1.63818 23.2816V39.4906C1.63818 41.3047 3.11631 42.7996 4.94717 42.7996H40.0526C41.8667 42.7996 43.3616 41.3215 43.3616 39.4906V23.2816C43.3448 21.4508 41.8667 19.9727 40.0526 19.9727ZM41.6987 39.4738C41.6987 40.3809 40.9597 41.1199 40.0526 41.1199H4.94717C4.04014 41.1199 3.30107 40.3809 3.30107 39.4738V23.2648C3.30107 22.3578 4.04014 21.6188 4.94717 21.6188H40.0526C40.9597 21.6188 41.6987 22.3578 41.6987 23.2648V39.4738Z" fill="black"/>
<path d="M9.81826 37.9453H6.97959V35.6945C6.97959 35.241 6.61006 34.8715 6.15654 34.8715C5.70303 34.8715 5.3335 35.241 5.3335 35.6945V38.7683C5.3335 39.2219 5.70303 39.5914 6.15654 39.5914H9.81826C10.2718 39.5914 10.6413 39.2219 10.6413 38.7683C10.6413 38.3148 10.2718 37.9453 9.81826 37.9453Z" fill="black"/>
<path d="M9.81846 23.1472H6.13994C5.68643 23.1472 5.31689 23.5167 5.31689 23.9703V27.0441C5.31689 27.4976 5.68643 27.8671 6.13994 27.8671C6.59346 27.8671 6.96299 27.4976 6.96299 27.0441V24.7933H9.80166C10.2552 24.7933 10.6247 24.4238 10.6247 23.9703C10.6415 23.5167 10.272 23.1472 9.81846 23.1472Z" fill="black"/>
<path d="M38.86 34.8882C38.4065 34.8882 38.037 35.2578 38.037 35.7113V37.9453H35.1983C34.7448 37.9453 34.3752 38.3148 34.3752 38.7683C34.3752 39.2218 34.7448 39.5914 35.1983 39.5914H38.86C39.3135 39.5914 39.6831 39.2218 39.6831 38.7683V35.6945C39.6831 35.2578 39.3135 34.8882 38.86 34.8882Z" fill="black"/>
<path d="M38.86 23.1472H35.1983C34.7448 23.1472 34.3752 23.5167 34.3752 23.9703C34.3752 24.4238 34.7448 24.7933 35.1983 24.7933H38.037V27.0441C38.037 27.4976 38.4065 27.8671 38.86 27.8671C39.3135 27.8671 39.6831 27.4976 39.6831 27.0441V23.9703C39.6831 23.5167 39.3135 23.1472 38.86 23.1472Z" fill="black"/>
<path d="M12.6568 18.3601C12.8752 18.3601 13.0768 18.2761 13.2447 18.125L18.8885 12.4812C19.7955 13.4554 21.0721 14.0769 22.5166 14.0769C23.9443 14.0769 25.2377 13.4554 26.1279 12.4812L31.7717 18.125C31.9396 18.2929 32.1412 18.3601 32.3596 18.3601C32.5779 18.3601 32.7795 18.2761 32.9475 18.125C33.2666 17.8058 33.2666 17.2851 32.9475 16.9492L27.035 11.0535C27.2869 10.4656 27.4213 9.81052 27.4213 9.13865C27.4213 6.41755 25.2041 4.21716 22.4998 4.21716C19.7955 4.21716 17.5783 6.43435 17.5783 9.13865C17.5783 9.81052 17.7127 10.4656 17.9646 11.0535L12.0689 16.9492C11.7498 17.2683 11.7498 17.789 12.0689 18.125C12.2369 18.2761 12.4385 18.3601 12.6568 18.3601ZM22.4998 5.86326C24.2971 5.86326 25.7752 7.32458 25.7752 9.13865C25.7752 10.9527 24.3139 12.414 22.4998 12.414C20.6857 12.414 19.2244 10.9527 19.2244 9.13865C19.2244 7.32458 20.7025 5.86326 22.4998 5.86326Z" fill="black"/>
</svg>
