<svg width="48" height="48" viewBox="0 0 48 48" fill="none" xmlns="http://www.w3.org/2000/svg">
<g clip-path="url(#clip0)">
<path d="M19 36.5C27.2843 36.5 34 29.7843 34 21.5C34 13.2157 27.2843 6.5 19 6.5C10.7157 6.5 4 13.2157 4 21.5C4 29.7843 10.7157 36.5 19 36.5Z" fill="#FFE24F"/>
<path d="M15.5985 12.3796V18.0343H4.27197V39.1406C4.27197 42.6812 7.14228 45.5687 10.6829 45.6203H10.8548H45.7282V12.3796H15.5985ZM10.7517 43.9875C8.0876 43.9875 5.90479 41.8218 5.90479 39.1406V19.6671H15.5813V39.1406C15.5985 41.8046 13.4157 43.9875 10.7517 43.9875ZM44.0954 43.9875H15.2376L16.011 42.9046C16.8017 41.8046 17.2142 40.4984 17.2142 39.1578V14.0125H44.0782V43.9875H44.0954Z" fill="black"/>
<path d="M21.6313 25.7859H39.6094C40.0734 25.7859 40.4516 25.4078 40.4516 24.9437V20.1828C40.4516 19.7187 40.0734 19.3406 39.6094 19.3406H21.6313C21.1672 19.3406 20.7891 19.7187 20.7891 20.1828V24.9609C20.8063 25.4078 21.1672 25.7859 21.6313 25.7859ZM22.4734 21.0078H38.7844V24.1187H22.4734V21.0078Z" fill="black"/>
<path d="M21.4767 32.2313H39.7814C40.2455 32.2313 40.6236 31.8531 40.6236 31.3891C40.6236 30.925 40.2455 30.5469 39.7814 30.5469H21.4767C21.0126 30.5469 20.6345 30.925 20.6345 31.3891C20.6345 31.8531 21.0126 32.2313 21.4767 32.2313Z" fill="black"/>
<path d="M21.4767 38.6592H39.7814C40.2455 38.6592 40.6236 38.2811 40.6236 37.817C40.6236 37.353 40.2455 36.9749 39.7814 36.9749H21.4767C21.0126 36.9749 20.6345 37.353 20.6345 37.817C20.6345 38.2811 21.0126 38.6592 21.4767 38.6592Z" fill="black"/>
</g>
<defs>
<clipPath id="clip0">
<rect width="48" height="48" fill="white"/>
</clipPath>
</defs>
</svg>
