<svg width="42" height="40" viewBox="0 0 42 40" fill="none" xmlns="http://www.w3.org/2000/svg">
<path d="M20 40C31.0457 40 40 31.0457 40 20C40 8.9543 31.0457 0 20 0C8.9543 0 0 8.9543 0 20C0 31.0457 8.9543 40 20 40Z" fill="#FFE24F"/>
<path d="M30.7104 34.0649H41.9993V23.1868H35.5782C35.6374 17.0358 41.3685 15.874 41.3685 15.874C41.3685 15.874 41.3987 15.668 41.3685 11.9342C31.8136 13.7673 30.7962 20.955 30.7134 23.1868H30.711V23.2484C30.6983 23.6303 30.711 23.8695 30.711 23.8695L30.7104 34.0649Z" fill="#241F20"/>
<path d="M13.0059 23.8701V34.0649H24.2942V23.1868H17.8725C17.9317 17.0358 23.6628 15.874 23.6628 15.874C23.6628 15.874 23.693 15.668 23.6628 11.9342C14.1079 13.7673 13.0905 20.955 13.0078 23.1868H13.0053V23.2484C12.9933 23.6303 13.0059 23.8701 13.0059 23.8701Z" fill="#241F20"/>
</svg>
