<svg width="45" height="45" viewBox="0 0 45 45" fill="none" xmlns="http://www.w3.org/2000/svg">
<path d="M15 33.5C23.2843 33.5 30 26.7843 30 18.5C30 10.2157 23.2843 3.5 15 3.5C6.71573 3.5 0 10.2157 0 18.5C0 26.7843 6.71573 33.5 15 33.5Z" fill="#FFE24F"/>
<path d="M22.5 39.4629C22.0148 39.4629 21.6211 39.8566 21.6211 40.3418C21.6211 40.8212 22.009 41.2207 22.5 41.2207C22.9911 41.2207 23.3789 40.8211 23.3789 40.3418C23.3789 39.8566 22.9852 39.4629 22.5 39.4629Z" fill="#363636"/>
<path d="M4.05157 34.3372C2.82514 33.5576 1.19231 33.9208 0.411842 35.147C-0.3681 36.3735 -0.00458424 38.0067 1.22228 38.7877C7.4292 42.7357 15.1848 45 22.5003 45C29.8165 45 37.5721 42.7357 43.7787 38.7875C45.0053 38.0066 45.3688 36.3734 44.5887 35.1465C43.8084 33.9209 42.1757 33.5576 40.9489 34.3372C40.1207 34.8638 39.2574 35.3588 38.3681 35.8195L35.0752 26.3672H38.3207C38.8061 26.3672 39.1996 25.9736 39.1996 25.4883C39.1996 23.0651 37.2282 21.0938 34.805 21.0938H34.7171V14.9414C34.7171 12.5183 32.7407 10.5469 30.3112 10.5469H14.2975L12.1442 3.16397C11.6007 1.30113 9.86588 0 7.92544 0H4.92221C4.64641 0 4.38661 0.129463 4.22058 0.349717C4.05447 0.569883 4.00138 0.855264 4.07714 1.12043L10.7444 24.4539C10.9237 25.0836 11.3206 25.6059 11.8479 25.9456L8.12275 36.544C6.70305 35.8908 5.3346 35.1517 4.05157 34.3372ZM41.892 35.8207C42.301 35.5607 42.8456 35.6817 43.1056 36.0901C43.3657 36.4991 43.2442 37.0441 42.835 37.3045C36.9031 41.078 29.4913 43.2422 22.5003 43.2422C15.5099 43.2422 8.09823 41.078 2.16596 37.3046C1.75657 37.044 1.63502 36.4991 1.89491 36.0905C2.15506 35.6818 2.69963 35.5608 3.10903 35.821C7.70597 38.739 13.4567 40.8027 18.8969 41.3707C19.3794 41.4196 19.8119 41.0707 19.8623 40.5878C19.9128 40.105 19.5622 39.6729 19.0794 39.6224C17.1029 39.4161 15.0693 38.9994 13.0604 38.4026L17.31 26.3672H29.4372L33.5098 37.9029C30.9976 38.7735 28.4138 39.3664 25.9227 39.6222C25.4398 39.6717 25.0886 40.1034 25.1382 40.5863C25.1878 41.0693 25.6202 41.4204 26.1023 41.3708C31.467 40.8197 37.2232 38.7892 41.892 35.8207ZM29.18 21.0938H17.3737L15.8356 15.8203H29.18V21.0938ZM36.7766 36.594C36.2431 36.8379 35.7028 37.0698 35.157 37.2884L31.3014 26.3672H33.2138L36.7766 36.594ZM34.805 22.8516C35.9509 22.8516 36.9284 23.5862 37.2912 24.6094H34.7171V22.8516H34.805ZM30.3112 12.3047C31.7714 12.3047 32.9593 13.4875 32.9593 14.9414C32.9593 15.8824 32.9593 23.6573 32.9593 24.6094H30.9378C30.9378 23.6585 30.9378 15.8816 30.9378 14.9414C30.9378 14.4561 30.5444 14.0625 30.0589 14.0625H15.3229L14.8103 12.3047H30.3112ZM6.08747 1.75781H7.92544C9.08972 1.75781 10.1306 2.53854 10.4567 3.65625C10.6398 4.28414 15.6267 21.382 15.8707 22.2188C15.9801 22.5938 16.3238 22.8516 16.7145 22.8516H29.18V24.6094H13.2797C12.885 24.6094 12.5429 24.3515 12.4347 23.9716L6.08747 1.75781ZM13.5629 26.3672H15.4457L11.3872 37.862C10.8339 37.6685 10.2845 37.4614 9.74038 37.2418L13.5629 26.3672Z" fill="#363636"/>
</svg>
