<svg width="55" height="56" viewBox="0 0 55 56" fill="none" xmlns="http://www.w3.org/2000/svg">
<path d="M18.75 55.5C29.1053 55.5 37.5 47.1053 37.5 36.75C37.5 26.3947 29.1053 18 18.75 18C8.39466 18 0 26.3947 0 36.75C0 47.1053 8.39466 55.5 18.75 55.5Z" fill="#FFE24F"/>
<g clip-path="url(#clip0)">
<path fill-rule="evenodd" clip-rule="evenodd" d="M23.4097 50.1321C13.3993 48.3353 5.89826 40.2308 4.68179 30.3396L5.56131 31.2497C5.97379 31.676 6.65399 31.6878 7.08074 31.2757C7.50707 30.8632 7.51882 30.183 7.10634 29.7563L4.20804 26.7581C4.01712 26.5596 3.75066 26.4346 3.45483 26.4291C3.4435 26.4287 3.43217 26.4287 3.42084 26.4291C3.14977 26.4321 2.90303 26.5362 2.71546 26.7044C2.71546 26.7048 2.71546 26.7048 2.71504 26.7053C2.71462 26.7053 2.71421 26.7057 2.71421 26.7061C2.68819 26.7296 2.66301 26.7544 2.63909 26.7808L2.63867 26.7812C2.63825 26.7816 2.63783 26.782 2.63742 26.7825C2.60175 26.8219 2.56902 26.8639 2.53922 26.9084L0.18853 30.3362C-0.147164 30.8255 -0.0225373 31.4943 0.466736 31.8296C0.956429 32.1653 1.62488 32.0407 1.96015 31.5514L2.56146 30.6748C3.17159 35.4631 5.15176 40.0063 8.2884 43.7186C12.0658 48.1897 17.3009 51.218 23.0304 52.2465C23.0946 52.2583 23.1584 52.2637 23.2213 52.2637C23.7316 52.2637 24.1843 51.8991 24.2775 51.3792C24.3824 50.7951 23.9938 50.2365 23.4097 50.1321Z" fill="#363636"/>
<path fill-rule="evenodd" clip-rule="evenodd" d="M3.81352 23.0919C3.89493 23.1112 3.97675 23.12 4.0569 23.12C4.54575 23.12 4.98719 22.7848 5.10259 22.2884C7.17885 13.3337 14.3648 6.49901 23.4096 4.8751C23.9937 4.77019 24.3823 4.21168 24.2774 3.62799C24.1725 3.04389 23.614 2.65574 23.0303 2.76065C18.1871 3.62967 13.7354 5.89267 10.156 9.30457C6.58803 12.706 4.11691 17.028 3.00954 21.8033C2.87526 22.3811 3.23529 22.9581 3.81352 23.0919Z" fill="#363636"/>
<path fill-rule="evenodd" clip-rule="evenodd" d="M51.1866 31.9143C50.6087 31.7796 50.0318 32.1401 49.8975 32.7179C47.8212 41.6725 40.6353 48.5073 31.59 50.1312C31.0063 50.2361 30.6178 50.7946 30.7227 51.3783C30.8158 51.8982 31.2686 52.2628 31.7788 52.2628C31.8418 52.2628 31.9056 52.2574 31.9698 52.2456C36.8126 51.3766 41.2647 49.1136 44.8436 45.7017C48.412 42.3003 50.8832 37.9782 51.9905 33.203C52.1244 32.6252 51.7644 32.0482 51.1866 31.9143Z" fill="#363636"/>
<path fill-rule="evenodd" clip-rule="evenodd" d="M54.5334 23.1767C54.0441 22.841 53.3753 22.9656 53.0396 23.4549L52.4387 24.3315C51.8286 19.5432 49.8484 15 46.7118 11.2877C42.9344 6.81665 37.6988 3.78827 31.9698 2.75979C31.3861 2.65489 30.8276 3.04303 30.7227 3.62714C30.6178 4.21125 31.0063 4.76934 31.59 4.87424C41.6004 6.67104 49.1019 14.7755 50.3184 24.6667L49.4384 23.7566C49.0264 23.3298 48.3462 23.3185 47.9194 23.7306C47.4927 24.1431 47.4813 24.8228 47.8938 25.2496L50.7921 28.2482C50.9809 28.4441 51.2432 28.5688 51.5348 28.5767C51.5449 28.5772 51.5554 28.5772 51.5655 28.5772H51.5877H51.5881C51.8554 28.5717 52.0988 28.4685 52.2838 28.3019C52.3115 28.2771 52.338 28.2507 52.3627 28.223H52.3632C52.3636 28.2222 52.364 28.2217 52.3644 28.2209C52.3992 28.1823 52.4316 28.1412 52.4605 28.098L54.8116 24.6701C55.1469 24.1808 55.0227 23.5124 54.5334 23.1767Z" fill="#363636"/>
<path fill-rule="evenodd" clip-rule="evenodd" d="M27.5 50.4946C26.9083 50.4946 26.4258 50.9772 26.4258 51.5689C26.4258 52.1605 26.9083 52.6431 27.5 52.6431C28.0917 52.6431 28.5742 52.1605 28.5742 51.5689C28.5742 50.9772 28.0917 50.4946 27.5 50.4946Z" fill="#363636"/>
<path fill-rule="evenodd" clip-rule="evenodd" d="M27.5 4.51172C28.0917 4.51172 28.5742 4.02916 28.5742 3.4375C28.5742 2.84584 28.0917 2.36328 27.5 2.36328C26.9083 2.36328 26.4258 2.84584 26.4258 3.4375C26.4258 4.02916 26.9083 4.51172 27.5 4.51172Z" fill="#363636"/>
</g>
<path fill-rule="evenodd" clip-rule="evenodd" d="M18.2019 18.2486C19.0108 17.4413 20.1279 16.9424 21.3619 16.9424C22.5959 16.9424 23.713 17.4413 24.5219 18.2486C25.3304 19.056 25.8307 20.1709 25.8307 21.4025C25.8307 22.6336 25.3304 23.749 24.5219 24.5559C23.713 25.3633 22.5959 25.8626 21.3619 25.8626C20.1279 25.8626 19.0108 25.3633 18.2019 24.5559C17.3934 23.749 16.8931 22.6336 16.8931 21.4025C16.8931 20.1709 17.3934 19.056 18.2019 18.2486ZM21.3619 19.0875C22.0026 19.0875 22.5824 19.3468 23.002 19.7656C23.4216 20.1843 23.681 20.763 23.681 21.4025C23.681 22.0416 23.4216 22.6206 23.002 23.0394C22.5824 23.4582 22.0026 23.7171 21.3619 23.7171C20.7216 23.7171 20.1414 23.4578 19.7218 23.0394C19.3022 22.6206 19.0428 22.0416 19.0428 21.4025C19.0428 20.763 19.3022 20.1843 19.7218 19.7656C20.1414 19.3468 20.7216 19.0875 21.3619 19.0875ZM20.4676 36.3983L33.0005 17.4283C33.325 16.9352 33.9885 16.7985 34.4825 17.1224C34.9765 17.4463 35.1136 18.1085 34.789 18.6015L22.2562 37.5716C21.9316 38.0646 21.2681 38.2014 20.7741 37.8775C20.2801 37.5535 20.1431 36.8914 20.4676 36.3983ZM30.7347 30.4436C31.5432 29.6366 32.6607 29.1373 33.8947 29.1373C35.1287 29.1373 36.2458 29.6366 37.0543 30.4436C37.8632 31.2509 38.3636 32.3658 38.3636 33.5974C38.3636 34.829 37.8632 35.9439 37.0543 36.7512C36.2458 37.5582 35.1287 38.0575 33.8947 38.0575C32.6607 38.0575 31.5436 37.5582 30.7347 36.7512C29.9262 35.9439 29.4259 34.829 29.4259 33.5974C29.4259 32.3662 29.9262 31.2509 30.7347 30.4436ZM33.8947 31.2828C34.5351 31.2828 35.1153 31.5421 35.5344 31.9605C35.9545 32.3797 36.2139 32.9583 36.2139 33.5974C36.2139 34.2369 35.9545 34.8155 35.5344 35.2343C35.1153 35.6531 34.5351 35.912 33.8947 35.912C33.254 35.912 32.6742 35.6531 32.2546 35.2343C31.835 34.8155 31.5752 34.2369 31.5752 33.5974C31.5752 32.9583 31.835 32.3792 32.2546 31.9605C32.6742 31.5417 33.254 31.2828 33.8947 31.2828Z" fill="#363636"/>
<defs>
<clipPath id="clip0">
<rect width="55" height="55" fill="white"/>
</clipPath>
</defs>
</svg>
