<svg width="49" height="45" viewBox="0 0 49 45" fill="none" xmlns="http://www.w3.org/2000/svg">
<path d="M15 36.5C23.2843 36.5 30 29.7843 30 21.5C30 13.2157 23.2843 6.5 15 6.5C6.71573 6.5 0 13.2157 0 21.5C0 29.7843 6.71573 36.5 15 36.5Z" fill="#FFE24F"/>
<g clip-path="url(#clip0)">
<path d="M22.3323 42.8208H22.3273C21.8377 42.8208 21.4434 43.2176 21.4434 43.7072C21.4434 44.1967 21.8427 44.5936 22.3322 44.5936C22.8217 44.5936 23.2186 44.1967 23.2186 43.7072C23.2186 43.2176 22.8217 42.8208 22.3323 42.8208Z" fill="#363636"/>
<path d="M46.4935 42.4116C45.9219 41.473 45.2222 40.641 44.4272 39.9469C45.0714 39.554 45.666 39.0861 46.2036 38.5466C48.0069 36.7439 49 34.3469 49 31.7969C49 29.2473 48.0071 26.8505 46.2047 25.0485C46.2047 25.0484 46.2046 25.0483 46.2045 25.0482L46.2044 25.0481C46.2043 25.048 46.2042 25.0479 46.2041 25.0478C44.402 23.2439 42.0057 22.2503 39.4564 22.2503C36.9071 22.2503 34.5107 23.2439 32.7092 25.0472C30.7177 27.037 29.7173 29.8032 29.947 32.5871C29.52 32.6937 29.1035 32.8394 28.6996 33.0246C27.8195 32.0374 26.7569 31.271 25.5919 30.7612L21.6073 15.882C22.9376 15.7209 24.2905 15.9898 25.5204 16.6653C25.5958 16.8626 25.7406 17.034 25.9434 17.1378C26.0727 17.204 26.2106 17.2354 26.3466 17.2354C26.6688 17.2354 26.9795 17.0592 27.1363 16.7527C27.2203 16.5887 27.2865 16.4055 27.3357 16.2042C28.2239 14.723 29.5814 13.679 31.1959 13.2469C32.9292 12.7829 34.7581 13.0777 36.3454 14.0769C36.6538 14.271 37.0498 14.2565 37.3433 14.0404C37.6368 13.8243 37.768 13.4505 37.6741 13.0982C37.0947 10.9262 36.1137 8.92279 34.7582 7.14388C34.4616 6.75453 33.9053 6.67929 33.5159 6.97601C33.1265 7.27273 33.0513 7.8289 33.348 8.21835C34.1561 9.27883 34.8156 10.4285 35.3197 11.6528C33.8324 11.1742 32.2586 11.1273 30.7375 11.5344C29.4059 11.8908 28.2129 12.5688 27.2317 13.5088C27.1758 13.2469 27.11 12.9749 27.0315 12.6902C26.582 11.0603 25.7999 9.23331 24.8292 7.54581C24.0734 6.23193 22.4379 3.71272 20.2647 2.19476C22.826 2.05009 25.4009 2.54729 27.741 3.665C28.1825 3.87611 28.712 3.68899 28.9229 3.24716C29.1339 2.80543 28.9467 2.27624 28.5051 2.0653C24.8305 0.310388 20.6374 -0.0751002 16.6981 0.980114C16.6963 0.980642 16.6945 0.981169 16.6926 0.981609C16.6889 0.982663 16.6852 0.983718 16.6814 0.984773C7.56916 3.43912 2.14332 12.8467 4.58501 21.9646C4.67941 22.3168 4.97973 22.5753 5.34201 22.6161C5.37541 22.6198 5.40863 22.6217 5.44151 22.6217C5.76723 22.6217 6.07036 22.442 6.22496 22.1494C7.10246 20.4883 8.54141 19.3176 10.2765 18.853C11.889 18.4212 13.5839 18.6466 15.0912 19.4835C15.2349 19.6341 15.3843 19.7604 15.5395 19.8609C15.6884 19.9572 15.8554 20.0032 16.0204 20.0032C16.311 20.0032 16.5957 19.8605 16.7653 19.5984C16.8892 19.4072 16.9289 19.1862 16.8956 18.9777C17.623 17.7766 18.661 16.8665 19.8947 16.3407L23.5955 30.1601C22.9401 30.0471 22.2686 30.0099 21.5924 30.0541C17.988 30.2879 14.8396 32.7894 13.5872 36.3492C10.5066 36.7713 7.79372 38.8427 6.24694 41.9907C6.01016 42.4723 5.61404 43.2784 6.04189 43.9512C6.47378 44.6303 7.28194 44.6165 8.50511 44.5936H18.3871C18.8766 44.5936 19.2735 44.1968 19.2735 43.7073C19.2735 43.2177 18.8766 42.8209 18.3871 42.8209H8.4972C8.49166 42.8209 8.48604 42.821 8.48059 42.8211C8.26376 42.8251 8.0218 42.8292 7.81121 42.8284C7.81983 42.8105 7.82888 42.792 7.83837 42.7727C9.20314 39.9946 11.6236 38.2317 14.313 38.0567C14.687 38.0323 15.0052 37.7754 15.1079 37.415C16.0043 34.2683 18.6565 32.0211 21.708 31.823C24.034 31.6708 26.2983 32.7375 27.7646 34.677C28.0362 35.0362 28.5338 35.1347 28.9218 34.9061C29.6686 34.4659 30.4794 34.214 31.3312 34.1575C33.744 34.0011 35.9345 35.4971 36.852 37.813C36.8556 37.8227 36.8592 37.8324 36.8632 37.842C36.9783 38.1369 37.074 38.4443 37.1459 38.7639C37.2416 39.1899 37.6355 39.4826 38.0684 39.4542C39.5427 39.358 40.9709 39.7342 42.2235 40.5075C42.2672 40.5406 42.3132 40.5703 42.3621 40.5946C43.2248 41.1534 44.0003 41.9034 44.644 42.8206H26.8702C26.3807 42.8206 25.9838 43.2174 25.9838 43.707C25.9838 44.1965 26.3807 44.5934 26.8702 44.5934H45.2432C45.3874 44.5934 45.5117 44.5967 45.617 44.5994C45.6819 44.6011 45.7491 44.6029 45.8176 44.6029C46.2057 44.6029 46.6333 44.5462 46.8909 44.0999C47.2001 43.5645 46.9162 43.1015 46.5877 42.5654L46.4935 42.4116ZM13.6007 16.2893C13.675 16.5752 13.7539 16.8438 13.8364 17.0985C12.5184 16.7755 11.148 16.7844 9.81802 17.1406C8.29593 17.5482 6.95516 18.3757 5.9046 19.5347C5.04723 13.0472 8.44288 6.72552 14.2175 3.81362C13.0931 6.21505 12.9352 9.21529 12.9373 10.7313C12.9397 12.6784 13.1754 14.6523 13.6007 16.2893ZM15.8353 17.3786C15.2546 16.0591 14.7137 13.6217 14.71 10.729C14.7051 6.92152 15.6209 3.97859 17.1732 2.75216C19.1302 3.03842 21.3939 5.12952 23.2925 8.42981C24.7346 10.9367 25.484 13.3179 25.64 14.7507C23.929 14.0083 22.0653 13.8581 20.2746 14.3381C18.484 14.8181 16.9454 15.8802 15.8353 17.3786ZM31.7093 32.3753C31.5433 30.1302 32.3568 27.9055 33.963 26.3007C35.43 24.832 37.381 24.0232 39.4564 24.0232C40.4958 24.0232 41.5039 24.2262 42.4358 24.6133C42.1919 24.6919 41.9412 24.7853 41.684 24.894C39.9562 25.6246 38.0602 26.9708 36.3452 28.6851C35.1067 29.924 34.0641 31.252 33.2966 32.5618C32.7832 32.4411 32.2518 32.3775 31.7093 32.3753ZM38.0771 36.2576C37.3483 34.9292 36.2679 33.8691 34.9858 33.1942C35.6616 32.1017 36.5661 30.9715 37.5987 29.9386C39.1557 28.3821 40.8518 27.1705 42.3744 26.5268C43.5709 26.0209 44.5817 25.9319 44.9506 26.3014C44.9507 26.3015 44.9507 26.3016 44.9508 26.3016C45.3191 26.6696 45.2302 27.6808 44.7241 28.8777C44.0802 30.4008 42.8682 32.0966 41.3107 33.6535C40.2678 34.6986 39.1642 35.586 38.0771 36.2576ZM42.8159 38.806C41.6659 38.1601 40.4104 37.7821 39.1291 37.6902C40.2943 36.9553 41.4651 36.0087 42.5648 34.9065C44.2794 33.1926 45.6262 31.2968 46.3571 29.5681C46.4657 29.3111 46.559 29.0606 46.6376 28.8168C47.0243 29.7489 47.2272 30.7573 47.2272 31.7969C47.2272 33.8733 46.4187 35.8251 44.9491 37.294C44.3259 37.9192 43.6095 38.426 42.8159 38.806Z" fill="#363636"/>
<path d="M31.3933 5.82702C31.6202 5.82702 31.8471 5.74045 32.0202 5.56739C32.3663 5.22128 32.3663 4.66001 32.0202 4.31389L32.0177 4.31143C31.6716 3.96532 31.1116 3.96646 30.7654 4.31266C30.4192 4.65878 30.4204 5.22128 30.7666 5.56748C30.9396 5.74045 31.1664 5.82702 31.3933 5.82702Z" fill="#363636"/>
</g>
<defs>
<clipPath id="clip0">
<rect width="45" height="45" fill="white" transform="translate(4)"/>
</clipPath>
</defs>
</svg>
