<svg width="60" height="60" viewBox="0 0 60 60" fill="none" xmlns="http://www.w3.org/2000/svg">
<g clip-path="url(#clip0)">
<path d="M24 51C35.598 51 45 41.598 45 30C45 18.402 35.598 9 24 9C12.402 9 3 18.402 3 30C3 41.598 12.402 51 24 51Z" fill="#FFE24F"/>
<path d="M51.2521 39.8656C47.7224 40.1731 44.2235 40.776 40.7905 41.6682C40.1401 38.1999 35.5728 36.9168 30.8482 35.9373C28.927 35.4983 27.0717 34.8001 25.3311 33.8611C23.391 32.7142 21.2088 32.0613 18.9691 31.9574C16.4833 32.007 14.0143 32.384 11.6231 33.079C11.3004 32.2811 10.7902 31.5765 10.1375 31.0276C9.48477 30.4786 8.70965 30.1022 7.8806 29.9315L-1.4386 28.0292C-1.60582 27.9926 -1.77848 27.9904 -1.94656 28.0226C-2.11464 28.0547 -2.27479 28.1206 -2.41771 28.2165C-2.56063 28.3123 -2.68348 28.4361 -2.77912 28.5808C-2.87477 28.7255 -2.94131 28.8882 -2.97488 29.0593C-3.00844 29.2305 -3.00837 29.4067 -2.97467 29.5778C-2.94096 29.7489 -2.87429 29.9115 -2.77853 30.0561C-2.68277 30.2007 -2.55982 30.3245 -2.41682 30.4202C-2.27382 30.5159 -2.11362 30.5817 -1.94552 30.6137L7.37366 32.5161C8.02102 32.6483 8.59421 33.0285 8.97554 33.5785C9.35687 34.1286 9.5174 34.8068 9.42415 35.4739L7.83531 46.8277C7.74528 47.4549 7.4378 48.0284 6.96872 48.4438C6.49965 48.8593 5.90011 49.0892 5.27906 49.0918H-1.69206C-2.03454 49.0918 -2.36299 49.2307 -2.60516 49.4779C-2.84733 49.725 -2.98338 50.0603 -2.98338 50.4098C-2.98338 50.7594 -2.84733 51.0947 -2.60516 51.3418C-2.36299 51.589 -2.03454 51.7279 -1.69206 51.7279H5.27906C6.19448 51.7237 7.09254 51.4725 7.88213 50.9997C8.67173 50.5269 9.32477 49.8494 9.77502 49.0358C13.8285 51.0132 26.543 57 31.8823 57C36.8912 57 47.2003 51.827 54.0214 48.4045C55.802 47.5112 57.2736 46.7724 58.2282 46.3451C58.4577 46.2419 58.6529 46.0728 58.7899 45.8584C58.9269 45.6441 58.9999 45.3937 59 45.1377C59 42.0332 55.8133 39.8656 51.2521 39.8656ZM52.8814 46.0387C46.677 49.1524 36.2908 54.3639 31.8823 54.3639C27.4476 54.3639 15.6599 49.0106 10.4952 46.4673L11.9816 35.8472C11.9879 35.8021 11.9822 35.7585 11.9874 35.7136C14.2565 35.0295 16.6038 34.6529 18.9691 34.5935C20.8191 34.7072 22.6158 35.2698 24.21 36.2346C26.143 37.2704 28.2023 38.0395 30.3337 38.5218C35.9454 39.6828 38.3389 40.8734 38.3389 42.5017C38.3485 42.6398 38.3219 42.7781 38.2619 42.9023C38.2018 43.0265 38.1104 43.1321 37.9971 43.2083C37.18 43.8338 33.9731 44.8867 21.9187 41.2377C21.5902 41.1384 21.2366 41.1763 20.9355 41.3431C20.6345 41.5099 20.4107 41.7919 20.3133 42.1271C20.216 42.4624 20.2531 42.8233 20.4166 43.1306C20.58 43.4379 20.8563 43.6663 21.1847 43.7657C25.6191 45.2862 30.2332 46.1932 34.9037 46.4624C36.5289 46.5889 38.1519 46.1894 39.5419 45.3207C39.8388 45.0889 40.097 44.8096 40.3066 44.4937C43.8998 43.5448 47.559 42.8788 51.2521 42.5017C52.1671 42.4022 53.0923 42.52 53.9553 42.846C54.8184 43.172 55.5958 43.6973 56.2269 44.3809C55.3253 44.8135 54.184 45.3861 52.8814 46.0387Z" fill="black"/>
<path d="M31.5066 29.7362C31.6427 29.8371 31.7982 29.9115 31.9645 29.9551C32.1307 29.9987 32.3043 30.0107 32.4754 29.9904C32.6465 29.9701 32.8117 29.9179 32.9616 29.8368C33.1115 29.7557 33.2432 29.6472 33.3491 29.5177L51.7297 7.0103C51.9402 6.74836 52.0335 6.41783 51.9892 6.0907C51.945 5.76358 51.7669 5.46634 51.4936 5.26373C51.2203 5.06112 50.874 4.96955 50.5302 5.00896C50.1864 5.04837 49.8728 5.21557 49.6578 5.47414L31.2771 27.9815C31.1712 28.1111 31.093 28.2592 31.0472 28.4175C31.0014 28.5758 30.9888 28.7412 31.0101 28.9042C31.0314 29.0671 31.0862 29.2245 31.1714 29.3673C31.2566 29.51 31.3705 29.6354 31.5066 29.7362Z" fill="black"/>
<path d="M33 15C34.1867 15 35.3467 14.7068 36.3334 14.1573C37.3201 13.6079 38.0891 12.827 38.5433 11.9134C38.9974 10.9998 39.1162 9.99445 38.8847 9.02455C38.6532 8.05465 38.0818 7.16373 37.2426 6.46447C36.4035 5.76521 35.3344 5.289 34.1705 5.09608C33.0067 4.90315 31.8003 5.00217 30.7039 5.3806C29.6075 5.75904 28.6705 6.3999 28.0112 7.22215C27.3519 8.0444 27 9.0111 27 10C27.0016 11.3257 27.6342 12.5967 28.7591 13.5341C29.884 14.4715 31.4092 14.9987 33 15ZM33 7.5C33.5933 7.5 34.1734 7.64662 34.6667 7.92133C35.1601 8.19603 35.5446 8.58648 35.7716 9.04329C35.9987 9.50011 36.0581 10.0028 35.9424 10.4877C35.8266 10.9727 35.5409 11.4181 35.1213 11.7678C34.7018 12.1174 34.1672 12.3555 33.5853 12.452C33.0033 12.5484 32.4001 12.4989 31.8519 12.3097C31.3038 12.1205 30.8352 11.8 30.5056 11.3889C30.1759 10.9778 30 10.4945 30 10C30.001 9.33722 30.3174 8.70184 30.8798 8.23318C31.4422 7.76453 32.2047 7.50086 33 7.5Z" fill="black"/>
<path d="M44 25C44 25.9889 44.2932 26.9556 44.8427 27.7778C45.3921 28.6001 46.173 29.241 47.0866 29.6194C48.0002 29.9978 49.0055 30.0969 49.9755 29.9039C50.9454 29.711 51.8363 29.2348 52.5355 28.5355C53.2348 27.8363 53.711 26.9454 53.9039 25.9755C54.0969 25.0055 53.9978 24.0002 53.6194 23.0866C53.241 22.173 52.6001 21.3921 51.7779 20.8427C50.9556 20.2932 49.9889 20 49 20C47.6743 20.0013 46.4033 20.5285 45.4659 21.4659C44.5285 22.4033 44.0013 23.6743 44 25ZM51.5 25C51.5 25.4945 51.3534 25.9778 51.0787 26.3889C50.804 26.8 50.4135 27.1205 49.9567 27.3097C49.4999 27.4989 48.9972 27.5484 48.5123 27.452C48.0273 27.3555 47.5819 27.1174 47.2322 26.7678C46.8826 26.4181 46.6445 25.9727 46.548 25.4877C46.4516 25.0028 46.5011 24.5001 46.6903 24.0433C46.8795 23.5865 47.1999 23.196 47.6111 22.9213C48.0222 22.6466 48.5055 22.5 49 22.5C49.6628 22.5009 50.2982 22.7645 50.7668 23.2332C51.2355 23.7018 51.4991 24.3372 51.5 25Z" fill="black"/>
</g>
<defs>
<clipPath id="clip0">
<rect width="60" height="60" fill="white"/>
</clipPath>
</defs>
</svg>
