<svg width="46" height="46" viewBox="0 0 46 46" fill="none" xmlns="http://www.w3.org/2000/svg">
<path d="M27 32.5C35.2843 32.5 42 25.7843 42 17.5C42 9.21573 35.2843 2.5 27 2.5C18.7157 2.5 12 9.21573 12 17.5C12 25.7843 18.7157 32.5 27 32.5Z" fill="#FFE24F"/>
<path d="M19.8374 15.7766H2.53345C1.68892 15.7766 1.0061 16.4594 1.0061 17.304V20.8258C1.0061 21.6704 1.68892 22.3532 2.53345 22.3532H19.8374C20.6819 22.3532 21.3647 21.6704 21.3647 20.8258V17.304C21.3647 16.4594 20.6819 15.7766 19.8374 15.7766ZM19.5858 20.5743H2.80298V17.5735H19.5858V20.5743Z" fill="black"/>
<path d="M19.8374 26.1265H2.53345C1.68892 26.1265 1.0061 26.8093 1.0061 27.6538V31.1757C1.0061 32.0202 1.68892 32.703 2.53345 32.703H19.8374C20.6819 32.703 21.3647 32.0202 21.3647 31.1757V27.6538C21.3647 26.8093 20.6819 26.1265 19.8374 26.1265ZM19.5858 30.9241H2.80298V27.9233H19.5858V30.9241Z" fill="black"/>
<path d="M19.8374 36.4766H2.53345C1.68892 36.4766 1.0061 37.1594 1.0061 38.0039V41.5258C1.0061 42.3703 1.68892 43.0531 2.53345 43.0531H19.8374C20.6819 43.0531 21.3647 42.3703 21.3647 41.5258V38.0039C21.3647 37.1594 20.6819 36.4766 19.8374 36.4766ZM19.5858 41.2742H2.80298V38.2734H19.5858V41.2742Z" fill="black"/>
<path d="M43.4663 26.1265H26.1624C25.3178 26.1265 24.635 26.8093 24.635 27.6538V31.1757C24.635 32.0202 25.3178 32.703 26.1624 32.703H43.4663C44.3108 32.703 44.9936 32.0202 44.9936 31.1757V27.6538C44.9936 26.8093 44.3108 26.1265 43.4663 26.1265ZM43.1967 30.9241H26.4139V27.9233H43.1967V30.9241Z" fill="black"/>
<path d="M43.4663 36.4766H26.1624C25.3178 36.4766 24.635 37.1594 24.635 38.0039V41.5258C24.635 42.3703 25.3178 43.0531 26.1624 43.0531H43.4663C44.3108 43.0531 44.9936 42.3703 44.9936 41.5258V38.0039C44.9936 37.1594 44.3108 36.4766 43.4663 36.4766ZM43.1967 41.2742H26.4139V38.2734H43.1967V41.2742Z" fill="black"/>
<path d="M10.4217 12.4704C10.5834 12.7399 10.8709 12.9196 11.1943 12.9196C11.5178 12.9196 11.8053 12.7579 11.967 12.4704L14.6443 7.83442C14.8061 7.56489 14.8061 7.22348 14.6443 6.93599C14.4826 6.64849 14.1951 6.48677 13.8717 6.48677H12.0928V3.82739C12.0928 3.32427 11.6975 2.92896 11.1943 2.92896C10.6912 2.92896 10.2959 3.32427 10.2959 3.82739V6.4688H8.51699C8.19356 6.4688 7.90605 6.63052 7.74434 6.91802C7.58262 7.20552 7.58262 7.52895 7.74434 7.81645L10.4217 12.4704ZM12.3264 8.26567L11.1943 10.2243L10.0623 8.26567H12.3264Z" fill="black"/>
<path d="M34.0325 22.8202C34.1942 23.0897 34.4817 23.2694 34.8052 23.2694C35.1286 23.2694 35.4161 23.1077 35.5778 22.8202L38.2552 18.1843C38.4169 17.9147 38.4169 17.5733 38.2552 17.2858C38.0934 17.0163 37.806 16.8366 37.4825 16.8366H35.7036V14.1772C35.7036 13.6741 35.3083 13.2788 34.8052 13.2788C34.302 13.2788 33.9067 13.6741 33.9067 14.1772V16.8186H32.1278C31.8044 16.8186 31.5169 16.9804 31.3552 17.2679C31.1935 17.5374 31.1935 17.8788 31.3552 18.1663L34.0325 22.8202ZM35.9372 18.6155L34.8052 20.5741L33.6731 18.6155H35.9372Z" fill="black"/>
</svg>
