<svg width="48" height="48" viewBox="0 0 48 48" fill="none" xmlns="http://www.w3.org/2000/svg">
<g clip-path="url(#clip0)">
<path d="M16 34.5C24.2843 34.5 31 27.7843 31 19.5C31 11.2157 24.2843 4.5 16 4.5C7.71573 4.5 1 11.2157 1 19.5C1 27.7843 7.71573 34.5 16 34.5Z" fill="#FFE24F"/>
<g clip-path="url(#clip1)">
<path d="M43.1133 9.52264C42.3047 7.68982 40.8313 6.27029 38.9625 5.53357C37.0938 4.79686 35.0454 4.85076 33.2125 5.65936C32.35 6.0367 31.5774 6.57576 30.9125 7.24061C30.5711 7.58201 30.5711 8.15701 30.9125 8.49842C31.254 8.83982 31.829 8.83982 32.1704 8.49842C32.6735 7.99529 33.2665 7.58201 33.9313 7.29451C35.3329 6.68357 36.8961 6.64764 38.3336 7.20467C39.7711 7.7617 40.8852 8.83982 41.5141 10.2414C42.7899 13.1523 41.4602 16.5484 38.5672 17.8242C37.9024 18.1117 37.2016 18.2734 36.4829 18.3094C35.9977 18.3273 35.6204 18.7406 35.6383 19.2258C35.6563 19.7109 36.0516 20.0883 36.5188 20.0883C36.5368 20.0883 36.5368 20.0883 36.5547 20.0883C37.4891 20.0523 38.4055 19.8367 39.286 19.4594C43.0415 17.7703 44.7844 13.314 43.1133 9.52264Z" fill="black"/>
<path d="M24.6594 23.4304C25.5399 23.7718 26.4742 23.9515 27.3906 23.9515C28.4149 23.9515 29.4391 23.7359 30.4094 23.3046C32.2422 22.496 33.6617 21.0226 34.3984 19.1539C35.1352 17.2851 35.0813 15.2367 34.2727 13.4039C33.4641 11.571 31.9906 10.1515 30.1219 9.4148C28.2531 8.67808 26.2047 8.73199 24.3719 9.54058C22.5391 10.3492 21.1195 11.8226 20.3828 13.6914C19.6461 15.5601 19.7 17.6085 20.5086 19.4414C21.3172 21.2921 22.7906 22.6937 24.6594 23.4304ZM22.0359 14.3382C22.593 12.9007 23.6711 11.7867 25.0727 11.1578C25.8094 10.8343 26.6 10.6726 27.3727 10.6726C28.0734 10.6726 28.7922 10.7984 29.457 11.0679C30.8945 11.625 32.0086 12.7031 32.6375 14.1046C33.2484 15.5062 33.2844 17.0695 32.7274 18.507C32.1703 19.9445 31.0922 21.0585 29.6906 21.6875C28.2891 22.2984 26.7258 22.3343 25.2883 21.7773C23.8508 21.2203 22.7367 20.1421 22.1078 18.7406C21.5149 17.321 21.4789 15.7757 22.0359 14.3382Z" fill="black"/>
<path d="M14.0398 18.3633C14.1477 18.3633 14.2555 18.3453 14.3453 18.3094C15.3875 17.9141 16.4656 17.6266 17.5797 17.4649C18.0648 17.393 18.3883 16.9438 18.3164 16.4586C18.2445 15.9735 17.7953 15.65 17.3102 15.7219C16.0883 15.9016 14.8844 16.225 13.7164 16.6563C13.2672 16.836 13.0336 17.3391 13.1953 17.7883C13.3391 18.1297 13.6805 18.3633 14.0398 18.3633Z" fill="black"/>
<path d="M37.0398 26.8086C36.6805 25.443 36.0695 24.1133 35.243 22.8734C34.9734 22.4602 34.4164 22.3523 34.0211 22.6219C33.6078 22.8914 33.5 23.4484 33.7695 23.8438C34.4883 24.9219 35.0094 26.0719 35.3328 27.2578C35.4227 27.5813 35.4945 27.9047 35.5484 28.2281C36.2133 31.9297 35.0273 35.8109 32.4758 38.3805C32.1703 38.7039 31.9367 39.0992 31.8469 39.4945L30.1938 45.2086H26.4922L26.0609 43.5195C25.9531 43.1242 25.6117 42.8547 25.1984 42.8547L15.7289 42.8188C15.3336 42.8188 14.9742 43.0883 14.8664 43.4836L14.4172 45.2086H10.7336L9.67344 41.4711C9.45781 40.7344 8.90078 40.0695 8.21797 39.782C5.97187 38.7578 3.97734 37.5719 2.25234 36.2781C2.10859 36.1703 2.01875 35.9906 2.01875 35.793L2.03672 28.8031L2.98906 28.7852C3.25859 28.7852 3.51016 28.6414 3.68984 28.4258L7.48125 23.3945C7.49922 23.3586 7.53516 23.3227 7.55312 23.2867C7.78672 22.8734 7.625 22.4781 7.44531 22.1008C7.40938 21.993 7.35547 21.8852 7.31953 21.7773L7.24766 21.6156C7.10391 21.2742 6.94219 20.9328 6.78047 20.6094C6.49297 19.9984 6.16953 19.3875 5.84609 18.7945C5.81016 18.7227 5.77422 18.6688 5.73828 18.5969C5.79219 18.5969 5.84609 18.5969 5.91797 18.5969C5.93594 18.5969 5.95391 18.5969 5.98984 18.5969C6.88828 18.5969 7.71484 18.7227 8.46953 18.9922C8.68516 19.0641 9.13437 19.2797 9.24219 19.3336C9.24219 19.3336 9.26016 19.3336 9.26016 19.3516C9.42188 19.4414 10.3742 19.9984 10.5898 20.1602C11.5422 20.8789 12.3508 21.8313 12.8898 22.9273C13.1055 23.3586 13.6445 23.5383 14.0758 23.3227C14.507 23.107 14.6867 22.568 14.4711 22.1367C13.8062 20.807 12.8359 19.6391 11.65 18.7406C11.3445 18.507 10.4102 17.968 10.1586 17.8242C9.925 17.6625 9.58359 17.5008 9.04453 17.3211C8.12813 16.9977 7.13984 16.8359 6.06172 16.8359C5.84609 16.8359 5.63047 16.8359 5.45078 16.8539L5.10938 16.8719C5.05547 16.8719 5.05547 16.8719 5.00156 16.8898C4.96563 16.8898 4.92969 16.9078 4.89375 16.9078C4.42656 17.0156 4.03125 17.3391 3.83359 17.8063C3.65391 18.2734 3.85156 18.7227 3.92344 18.9203C3.97734 19.1 4.06719 19.2617 4.19297 19.4773C4.19297 19.4953 4.22891 19.5312 4.24688 19.5492L4.30078 19.6391C4.60625 20.2141 4.91172 20.7891 5.19922 21.382C5.34297 21.7055 5.50469 22.0109 5.63047 22.3164L5.70234 22.4961C5.73828 22.568 5.77422 22.6578 5.79219 22.7297L2.55781 27.0242L1.15625 27.0422C0.671094 27.0422 0.29375 27.4375 0.29375 27.9227L0.257812 35.8109C0.257812 36.5656 0.599219 37.2664 1.19219 37.7156C3.00703 39.0992 5.12734 40.3391 7.49922 41.4352C7.71484 41.525 7.9125 41.7586 7.96641 41.9922L9.22422 46.3586C9.33203 46.7359 9.67344 47.0055 10.0687 47.0055H15.118C15.5133 47.0055 15.8727 46.7359 15.9805 46.3406L16.4297 44.6156L24.5156 44.6516L24.9469 46.3406C25.0547 46.7359 25.3961 47.0055 25.8094 47.0055H30.8766C31.2719 47.0055 31.6133 46.7359 31.7211 46.3586L33.5719 39.9617C33.6078 39.8539 33.6617 39.7281 33.7516 39.6383C36.6984 36.6914 38.0641 32.1992 37.3094 27.9406C37.2375 27.5633 37.1477 27.1859 37.0398 26.8086Z" fill="black"/>
<path d="M10.518 27.5273C10.518 28.3 9.87114 28.9469 9.09848 28.9469C8.32583 28.9469 7.67896 28.3 7.67896 27.5273C7.67896 26.7547 8.32583 26.1078 9.09848 26.1078C9.87114 26.1078 10.518 26.7726 10.518 27.5273Z" fill="black"/>
</g>
</g>
<defs>
<clipPath id="clip0">
<rect width="48" height="48" fill="white"/>
</clipPath>
<clipPath id="clip1">
<rect width="45" height="45" fill="white" transform="translate(-1 2)"/>
</clipPath>
</defs>
</svg>
