<svg width="60" height="56" viewBox="0 0 60 56" fill="none" xmlns="http://www.w3.org/2000/svg">
<path d="M18.75 39.5C29.1053 39.5 37.5 31.1053 37.5 20.75C37.5 10.3947 29.1053 2 18.75 2C8.39466 2 0 10.3947 0 20.75C0 31.1053 8.39466 39.5 18.75 39.5Z" fill="#FFE24F"/>
<path d="M46.0002 0H18.0002C16.4539 0 15.2002 1.25355 15.2002 2.8V53.2C15.2002 54.7463 16.4537 56 18.0002 56H46.0002C47.5465 56 48.8002 54.7465 48.8002 53.2V2.8C48.8002 1.25355 47.5465 0 46.0002 0ZM46.9335 7.4667H25.4669C24.9514 7.4667 24.5336 7.88452 24.5336 8.4C24.5336 8.91548 24.9514 9.3333 25.4669 9.3333H46.9336V45.7333H44.1336C43.6181 45.7333 43.2003 46.1511 43.2003 46.6666C43.2003 47.1821 43.6181 47.5999 44.1336 47.5999H46.9336V53.1999C46.9336 53.7154 46.5158 54.1332 46.0003 54.1332H18.0002C17.4847 54.1332 17.0669 53.7154 17.0669 53.1999V47.5999H38.5336C39.0491 47.5999 39.4669 47.1821 39.4669 46.6666C39.4669 46.1511 39.0491 45.7333 38.5336 45.7333H17.0669V9.3333H19.8669C20.3824 9.3333 20.8002 8.91548 20.8002 8.4C20.8002 7.88452 20.3824 7.4667 19.8669 7.4667H17.0669V2.8C17.0669 2.28452 17.4847 1.8667 18.0002 1.8667H46.0002C46.5157 1.8667 46.9335 2.28452 46.9335 2.8V7.4667Z" fill="black"/>
<path d="M26.7599 24.1689C27.2432 26.9693 29.4544 29 32.0025 29C34.5506 29 36.7619 26.9693 37.2451 24.1689L37.9481 20.0911C38.1677 18.306 37.6845 16.5046 36.6154 15.1453C35.5611 13.7861 34.0234 13 32.4126 13H31.5778C29.967 13 28.4293 13.7861 27.375 15.1453C26.3206 16.5046 25.8227 18.306 26.057 20.1402L26.7599 24.1689ZM28.5172 16.2426C29.2933 15.2436 30.4063 14.6868 31.5925 14.6868H32.4272C33.5987 14.6868 34.7263 15.26 35.5025 16.2426C36.2786 17.2252 36.6301 18.5517 36.4836 19.8127L35.7661 23.8414C35.4146 25.8557 33.833 27.3132 32.0025 27.3132C30.172 27.3132 28.5904 25.8557 28.2536 23.8414L27.5653 19.8618C27.3896 18.5517 27.7557 17.2416 28.5172 16.2426Z" fill="black"/>
<path d="M44.3087 34.5809C44.1478 33.8104 43.5686 33.1657 42.8124 32.9141L37.4384 31.0429C37.1487 30.9485 36.8269 31.0114 36.6017 31.2159L32.0161 35.3986L27.4305 31.2159C27.2052 31.0114 26.8834 30.9485 26.5938 31.0429L21.2037 32.9141C20.4475 33.1814 19.8683 33.8104 19.7074 34.5809L18.034 42.2703C17.9375 42.6949 18.0501 43.1351 18.3237 43.4654C18.5972 43.7956 19.0155 44 19.466 44H44.534C44.9845 44 45.3867 43.8113 45.6763 43.4654C45.9499 43.1194 46.0625 42.6949 45.966 42.2703L44.3087 34.5809ZM19.7074 42.3804L21.3324 34.9269C21.3807 34.7067 21.5416 34.518 21.7669 34.4551L26.6582 32.7569L31.4369 37.1283C31.7587 37.4271 32.2574 37.4271 32.5631 37.1283L37.3418 32.7569L42.2331 34.4551C42.4423 34.5338 42.6193 34.7067 42.6676 34.9269L44.2926 42.3804H19.7074Z" fill="black"/>
<path d="M32.9338 50.4H31.0671C30.5516 50.4 30.1338 50.8178 30.1338 51.3333C30.1338 51.8488 30.5516 52.2666 31.0671 52.2666H32.9338C33.4493 52.2666 33.8671 51.8488 33.8671 51.3333C33.8671 50.8178 33.4493 50.4 32.9338 50.4Z" fill="black"/>
</svg>
