<svg width="48" height="48" viewBox="0 0 48 48" fill="none" xmlns="http://www.w3.org/2000/svg">
<g clip-path="url(#clip0)">
<path d="M20 41C28.2843 41 35 34.2843 35 26C35 17.7157 28.2843 11 20 11C11.7157 11 5 17.7157 5 26C5 34.2843 11.7157 41 20 41Z" fill="#FFE24F"/>
<path d="M43.1152 16.041L42.623 15.1797L33.0078 22.7559L33.2188 23.3359C33.5879 24.3555 33.7812 25.4102 33.7812 26.5176C33.7812 28.6973 32.9902 30.8418 31.584 32.5117L31.1973 32.9863L37.5957 43.4102L38.3516 42.7598C43.1328 38.6816 45.8574 32.7578 45.8574 26.5176C45.8574 22.8262 44.9082 19.2227 43.1152 16.041ZM37.9824 40.791L33.2715 33.1094C34.7129 31.2109 35.4863 28.873 35.4863 26.5C35.4863 25.4102 35.3281 24.3555 35.0117 23.3184L42.0957 17.7285C43.4492 20.4355 44.1523 23.4414 44.1523 26.4824C44.1699 31.9141 41.9199 37.082 37.9824 40.791Z" fill="black"/>
<path d="M26.6445 35.5527C25.9414 35.7109 25.2207 35.7988 24.5 35.7988C19.3672 35.7988 15.2012 31.6328 15.2012 26.5C15.2012 25.8672 15.2715 25.252 15.3945 24.6367L15.5176 24.0391L4.90039 17.9746L4.54883 18.8887C3.61719 21.3145 3.14258 23.8633 3.14258 26.5C3.14258 38.2773 12.7227 47.8574 24.5 47.8574C27.3652 47.8574 30.125 47.2949 32.7266 46.2051L33.6406 45.8184L27.2422 35.3945L26.6445 35.5527ZM24.5 46.1699C13.6543 46.1699 4.83008 37.3457 4.83008 26.5C4.83008 24.4082 5.14648 22.3867 5.7793 20.4355L13.6191 24.918C13.5488 25.4453 13.4961 25.9727 13.4961 26.5C13.4961 32.5645 18.418 37.4863 24.4824 37.4863C25.1328 37.4863 25.7832 37.4336 26.416 37.3105L31.1445 45.0098C29.0352 45.7832 26.8027 46.1699 24.5 46.1699Z" fill="black"/>
<path d="M18.2773 19.5918C19.9824 18.0449 22.1973 17.2012 24.5 17.2012C26.3281 17.2012 28.1035 17.7461 29.6328 18.748L30.1426 19.082L39.7578 11.5059L39.0371 10.8379C35.0645 7.14648 29.8965 5.125 24.5 5.125C17.9785 5.125 11.9141 8.04297 7.81836 13.1582L7.20312 13.9316L17.8203 20.0137L18.2773 19.5918ZM9.78711 13.457C13.5313 9.23828 18.8398 6.83008 24.5 6.83008C29.1406 6.83008 33.5879 8.46484 37.1387 11.4355L30.0547 17.0078C28.3672 16.0234 26.4688 15.4961 24.5 15.4961C21.9863 15.4961 19.5605 16.3574 17.6094 17.9219L9.78711 13.457Z" fill="black"/>
<path d="M17.4159 9.6425C17.0116 9.39641 16.5019 9.53704 16.2558 9.94133L14.0058 13.7031C13.7597 14.1073 13.9003 14.6171 14.3046 14.8632C14.4452 14.9511 14.5859 14.9863 14.7441 14.9863C15.0253 14.9863 15.3066 14.8456 15.4648 14.582L17.7148 10.8202C17.9433 10.4159 17.8202 9.8886 17.4159 9.6425Z" fill="black"/>
<path d="M9.13665 23.5292C8.73235 23.2831 8.22258 23.4238 7.97649 23.8281L6.02532 27.0976C5.77922 27.5019 5.91985 28.0117 6.32415 28.2577C6.46477 28.3456 6.6054 28.3808 6.7636 28.3808C7.04485 28.3808 7.3261 28.2402 7.4843 27.9765L9.43547 24.707C9.66399 24.2851 9.54094 23.7753 9.13665 23.5292Z" fill="black"/>
<path d="M25.871 8.00798C25.4667 7.76189 24.957 7.90251 24.7109 8.30681L21.6874 13.3869C21.4413 13.7912 21.582 14.301 21.9863 14.547C22.1269 14.6349 22.2675 14.6701 22.4257 14.6701C22.707 14.6701 22.9882 14.5295 23.1464 14.2658L26.1698 9.18572C26.3984 8.76384 26.2577 8.25408 25.871 8.00798Z" fill="black"/>
<path d="M12.7577 29.9452C12.3534 29.6991 11.8437 29.8398 11.5976 30.2441L8.57415 35.3241C8.32805 35.7284 8.46868 36.2382 8.87297 36.4843C9.0136 36.5722 9.15422 36.6074 9.31243 36.6074C9.59368 36.6074 9.87493 36.4667 10.0331 36.1855L13.0566 31.1054C13.3027 30.7011 13.162 30.1913 12.7577 29.9452Z" fill="black"/>
<path d="M28.9648 15.3378C29.1054 15.4257 29.246 15.4609 29.4042 15.4609C29.6855 15.4609 29.9667 15.3202 30.1249 15.039L32.6562 10.7851C32.9023 10.3808 32.7616 9.87102 32.3573 9.62493C31.9531 9.37883 31.4433 9.51946 31.1972 9.92376L28.6659 14.1777C28.4198 14.582 28.5605 15.0917 28.9648 15.3378Z" fill="black"/>
<path d="M16.7831 35.7284C16.3788 35.4823 15.8691 35.623 15.623 36.0273L13.0917 40.2812C12.8456 40.6855 12.9863 41.1952 13.3906 41.4413C13.5312 41.5292 13.6718 41.5644 13.83 41.5644C14.1113 41.5644 14.3925 41.4238 14.5507 41.1425L17.082 36.8886C17.3105 36.4843 17.1874 35.957 16.7831 35.7284Z" fill="black"/>
<path d="M22.6366 38.4355C22.2323 38.1894 21.7226 38.33 21.4765 38.7343L18.8398 43.164C18.5937 43.5683 18.7343 44.0781 19.1386 44.3241C19.2792 44.412 19.4198 44.4472 19.5781 44.4472C19.8593 44.4472 20.1406 44.3066 20.2988 44.0253L22.9355 39.5956C23.164 39.1913 23.0409 38.664 22.6366 38.4355Z" fill="black"/>
<path d="M26.2577 44.8866C26.3984 44.9745 26.539 45.0097 26.6972 45.0097C26.9784 45.0097 27.2597 44.8691 27.4179 44.5878L28.2792 43.1464C28.5253 42.7421 28.3847 42.2323 27.9804 41.9863C27.5761 41.7402 27.0663 41.8808 26.8202 42.2851L25.9589 43.7265C25.7128 44.1308 25.8534 44.6406 26.2577 44.8866Z" fill="black"/>
</g>
<defs>
<clipPath id="clip0">
<rect width="48" height="48" fill="white"/>
</clipPath>
</defs>
</svg>
