<svg width="45" height="48" viewBox="0 0 45 48" fill="none" xmlns="http://www.w3.org/2000/svg">
<path d="M30 30.5C38.2843 30.5 45 23.7843 45 15.5C45 7.21573 38.2843 0.5 30 0.5C21.7157 0.5 15 7.21573 15 15.5C15 23.7843 21.7157 30.5 30 30.5Z" fill="#FFE24F"/>
<g clip-path="url(#clip0)">
<path d="M22.5 47.7741L21.7284 46.6575C21.1481 45.8166 7.5 25.9678 7.5 18C7.5 9.72938 14.2294 3 22.5 3C30.7706 3 37.5 9.72938 37.5 18C37.5 25.9678 23.8519 45.8166 23.2716 46.6575L22.5 47.7741ZM22.5 4.875C15.2625 4.875 9.375 10.7625 9.375 18C9.375 24.3628 19.5797 40.0828 22.5 44.4506C25.4203 40.0828 35.625 24.3628 35.625 18C35.625 10.7625 29.7375 4.875 22.5 4.875Z" fill="#262324" stroke="#262324" stroke-width="0.5"/>
<path d="M22.5 24.5625C18.8822 24.5625 15.9375 21.6187 15.9375 18C15.9375 14.3813 18.8822 11.4375 22.5 11.4375C26.1178 11.4375 29.0625 14.3813 29.0625 18C29.0625 21.6187 26.1178 24.5625 22.5 24.5625ZM22.5 13.3125C19.9153 13.3125 17.8125 15.4153 17.8125 18C17.8125 20.5847 19.9153 22.6875 22.5 22.6875C25.0847 22.6875 27.1875 20.5847 27.1875 18C27.1875 15.4153 25.0847 13.3125 22.5 13.3125Z" fill="#262324" stroke="#262324" stroke-width="0.5"/>
</g>
<defs>
<clipPath id="clip0">
<rect width="45" height="46" fill="white" transform="translate(0 2)"/>
</clipPath>
</defs>
</svg>
