<svg width="46" height="46" viewBox="0 0 46 46" fill="none" xmlns="http://www.w3.org/2000/svg">
<path d="M15 45.5C23.2843 45.5 30 38.7843 30 30.5C30 22.2157 23.2843 15.5 15 15.5C6.71573 15.5 0 22.2157 0 30.5C0 38.7843 6.71573 45.5 15 45.5Z" fill="#FFE24F"/>
<path d="M36.3412 22.8466C36.3412 23.46 36.8012 24.0733 37.5679 24.0733C38.3345 24.0733 38.7945 23.6133 38.7945 22.8466C38.7945 14.4133 31.8945 7.51331 23.4612 7.51331C22.8479 7.51331 22.2345 7.97331 22.2345 8.73997C22.2345 9.50664 22.6945 9.96664 23.4612 9.96664C30.5145 9.81331 36.3412 15.64 36.3412 22.8466ZM22.2345 14.8733C22.2345 15.4866 22.6945 16.1 23.4612 16.1C27.1412 16.1 30.0545 19.0133 30.0545 22.6933C30.0545 23.3066 30.5145 23.92 31.2812 23.92C32.0479 23.92 32.5079 23.46 32.5079 22.6933C32.5079 17.7866 28.5212 13.8 23.6145 13.8C22.6945 13.8 22.2345 14.26 22.2345 14.8733ZM23.3079 0.306641C22.6945 0.306641 22.0812 0.766641 22.0812 1.53331C22.0812 2.29997 22.5412 2.75997 23.3079 2.75997C34.3479 2.75997 43.3945 11.8066 43.3945 22.8466C43.3945 23.46 43.8545 24.0733 44.6212 24.0733C45.3879 24.0733 45.8479 23.6133 45.8479 22.8466C45.6945 10.4266 35.7279 0.306641 23.3079 0.306641ZM29.7479 27.14C29.5945 26.9866 29.2879 26.8333 28.9812 26.8333C28.6745 26.8333 28.3679 26.9866 28.2145 27.14L25.7612 29.5933C24.8412 30.5133 23.3079 30.5133 22.3879 29.5933L16.7145 24.38C15.7945 23.46 15.7945 21.9266 16.7145 21.0066L19.4745 18.2466C19.9345 17.7866 19.9345 17.02 19.4745 16.56L8.12786 5.36664C7.97453 5.21331 7.66786 5.05997 7.3612 5.05997C7.05453 5.05997 6.74786 5.21331 6.59453 5.36664C6.4412 5.51997 2.91453 9.04664 2.14786 9.96664C0.00119796 12.1133 -0.305469 16.56 1.22786 20.3933C4.6012 28.8266 15.7945 39.1 25.1479 44.7733C25.9145 45.2333 27.7545 45.6933 29.5945 45.6933C31.2812 45.6933 33.7345 45.3866 35.8812 43.5466C37.8745 41.86 40.1745 39.4066 40.3279 39.2533C40.7879 38.7933 40.7879 38.0266 40.3279 37.72L29.7479 27.14ZM34.3479 41.7066C32.8145 43.0866 30.9745 43.24 29.5945 43.24C27.9079 43.24 26.5279 42.78 26.3745 42.6266C15.7945 36.34 6.13453 26.68 3.37453 19.4733C2.14786 16.2533 2.60786 12.7266 3.6812 11.5C4.29453 10.8866 6.13453 9.04664 7.3612 7.81997L16.8679 17.3266L14.8745 19.32C13.0345 21.16 13.0345 24.0733 14.8745 25.9133L20.5479 31.1266C22.2345 32.8133 25.3012 32.8133 27.1412 31.1266L28.8279 29.44L37.7212 38.3333C36.9545 39.4066 35.5745 40.7866 34.3479 41.7066Z" fill="#262324"/>
</svg>
