<svg width="48" height="48" viewBox="0 0 48 48" fill="none" xmlns="http://www.w3.org/2000/svg">
<path d="M21 40.5C29.2843 40.5 36 33.7843 36 25.5C36 17.2157 29.2843 10.5 21 10.5C12.7157 10.5 6 17.2157 6 25.5C6 33.7843 12.7157 40.5 21 40.5Z" fill="#FFE24F"/>
<path d="M14.7396 7.01288V12.282H4.1853V31.9492C4.1853 35.2484 6.85991 37.9391 10.1591 37.9871H10.3193H42.815V7.01288H14.7396ZM10.2232 36.4656C7.74077 36.4656 5.70679 34.4476 5.70679 31.9492V13.8035H14.7236V31.9492C14.7396 34.4316 12.7056 36.4656 10.2232 36.4656ZM41.2935 36.4656H14.4033L15.124 35.4566C15.8607 34.4316 16.2451 33.2144 16.2451 31.9652V8.53436H41.2775V36.4656H41.2935Z" fill="black"/>
<path d="M20.3609 19.5051H37.1133C37.5457 19.5051 37.8981 19.1527 37.8981 18.7203V14.284C37.8981 13.8515 37.5457 13.4992 37.1133 13.4992H20.3609C19.9285 13.4992 19.5762 13.8515 19.5762 14.284V18.7363C19.5922 19.1527 19.9285 19.5051 20.3609 19.5051ZM21.1457 15.0527H36.3445V17.9516H21.1457V15.0527Z" fill="black"/>
<path d="M20.2169 25.5109H37.2735C37.706 25.5109 38.0583 25.1586 38.0583 24.7262C38.0583 24.2937 37.706 23.9414 37.2735 23.9414H20.2169C19.7845 23.9414 19.4321 24.2937 19.4321 24.7262C19.4321 25.1586 19.7845 25.5109 20.2169 25.5109Z" fill="black"/>
<path d="M20.2169 31.5008H37.2735C37.706 31.5008 38.0583 31.1485 38.0583 30.716C38.0583 30.2836 37.706 29.9313 37.2735 29.9313H20.2169C19.7845 29.9313 19.4321 30.2836 19.4321 30.716C19.4321 31.1485 19.7845 31.5008 20.2169 31.5008Z" fill="black"/>
</svg>
