<svg width="55" height="56" viewBox="0 0 55 56" fill="none" xmlns="http://www.w3.org/2000/svg">
<path d="M18.75 55.5C29.1053 55.5 37.5 47.1053 37.5 36.75C37.5 26.3947 29.1053 18 18.75 18C8.39466 18 0 26.3947 0 36.75C0 47.1053 8.39466 55.5 18.75 55.5Z" fill="#FFE24F"/>
<g clip-path="url(#clip0)">
<path fill-rule="evenodd" clip-rule="evenodd" d="M23.4096 50.1321C13.3992 48.3353 5.89814 40.2308 4.68167 30.3396L5.56118 31.2497C5.97367 31.676 6.65387 31.6878 7.08062 31.2757C7.50695 30.8632 7.5187 30.183 7.10621 29.7563L4.20792 26.7581C4.01699 26.5596 3.75054 26.4346 3.45471 26.4291C3.44338 26.4287 3.43205 26.4287 3.42072 26.4291C3.14965 26.4321 2.90291 26.5362 2.71534 26.7044C2.71534 26.7048 2.71534 26.7048 2.71492 26.7053C2.7145 26.7053 2.71408 26.7057 2.71408 26.7061C2.68807 26.7296 2.66289 26.7544 2.63897 26.7808L2.63855 26.7812C2.63813 26.7816 2.63771 26.782 2.63729 26.7825C2.60163 26.8219 2.5689 26.8639 2.5391 26.9084L0.188408 30.3362C-0.147286 30.8255 -0.0226593 31.4943 0.466614 31.8296C0.956307 32.1653 1.62476 32.0407 1.96003 31.5514L2.56134 30.6748C3.17147 35.4631 5.15164 40.0063 8.28828 43.7186C12.0657 48.1897 17.3008 51.218 23.0303 52.2465C23.0945 52.2583 23.1582 52.2637 23.2212 52.2637C23.7314 52.2637 24.1842 51.8991 24.2774 51.3792C24.3823 50.7951 23.9937 50.2365 23.4096 50.1321Z" fill="#363636"/>
<path fill-rule="evenodd" clip-rule="evenodd" d="M3.81346 23.0919C3.89487 23.1112 3.97669 23.12 4.05684 23.12C4.54569 23.12 4.98713 22.7848 5.10253 22.2884C7.17879 13.3337 14.3647 6.49901 23.4096 4.8751C23.9937 4.77019 24.3823 4.21168 24.2773 3.62799C24.1724 3.04389 23.6139 2.65574 23.0302 2.76065C18.187 3.62967 13.7353 5.89267 10.156 9.30457C6.58797 12.706 4.11685 17.028 3.00948 21.8033C2.8752 22.3811 3.23523 22.9581 3.81346 23.0919Z" fill="#363636"/>
<path fill-rule="evenodd" clip-rule="evenodd" d="M51.1866 31.9143C50.6087 31.7796 50.0318 32.1401 49.8975 32.7179C47.8212 41.6725 40.6353 48.5073 31.59 50.1312C31.0063 50.2361 30.6178 50.7946 30.7227 51.3783C30.8158 51.8982 31.2686 52.2628 31.7788 52.2628C31.8418 52.2628 31.9056 52.2574 31.9698 52.2456C36.8126 51.3766 41.2647 49.1136 44.8436 45.7017C48.412 42.3003 50.8832 37.9782 51.9905 33.203C52.1244 32.6252 51.7644 32.0482 51.1866 31.9143Z" fill="#363636"/>
<path fill-rule="evenodd" clip-rule="evenodd" d="M54.5334 23.1767C54.0441 22.841 53.3753 22.9656 53.0396 23.4549L52.4387 24.3315C51.8286 19.5432 49.8484 15 46.7118 11.2877C42.9344 6.81665 37.6988 3.78827 31.9698 2.75979C31.3861 2.65489 30.8276 3.04303 30.7227 3.62714C30.6178 4.21125 31.0063 4.76934 31.59 4.87424C41.6004 6.67104 49.1019 14.7755 50.3184 24.6667L49.4384 23.7566C49.0264 23.3298 48.3462 23.3185 47.9194 23.7306C47.4927 24.1431 47.4813 24.8228 47.8938 25.2496L50.7921 28.2482C50.9809 28.4441 51.2432 28.5688 51.5348 28.5767C51.5449 28.5772 51.5554 28.5772 51.5655 28.5772H51.5877H51.5881C51.8554 28.5717 52.0988 28.4685 52.2838 28.3019C52.3115 28.2771 52.338 28.2507 52.3627 28.223H52.3632C52.3636 28.2222 52.364 28.2217 52.3644 28.2209C52.3992 28.1823 52.4316 28.1412 52.4605 28.098L54.8116 24.6701C55.1469 24.1808 55.0227 23.5124 54.5334 23.1767Z" fill="#363636"/>
<path fill-rule="evenodd" clip-rule="evenodd" d="M27.5 50.4946C26.9083 50.4946 26.4258 50.9772 26.4258 51.5689C26.4258 52.1605 26.9083 52.6431 27.5 52.6431C28.0917 52.6431 28.5742 52.1605 28.5742 51.5689C28.5742 50.9772 28.0917 50.4946 27.5 50.4946Z" fill="#363636"/>
<path fill-rule="evenodd" clip-rule="evenodd" d="M27.5 4.51172C28.0917 4.51172 28.5742 4.02916 28.5742 3.4375C28.5742 2.84584 28.0917 2.36328 27.5 2.36328C26.9083 2.36328 26.4258 2.84584 26.4258 3.4375C26.4258 4.02916 26.9083 4.51172 27.5 4.51172Z" fill="#363636"/>
</g>
<defs>
<clipPath id="clip0">
<rect width="55" height="55" fill="white"/>
</clipPath>
</defs>
</svg>
