<svg width="54" height="45" viewBox="0 0 54 45" fill="none" xmlns="http://www.w3.org/2000/svg">
<path d="M35 37.5C43.2843 37.5 50 30.7843 50 22.5C50 14.2157 43.2843 7.5 35 7.5C26.7157 7.5 20 14.2157 20 22.5C20 30.7843 26.7157 37.5 35 37.5Z" fill="#FFE24F"/>
<path d="M39.9053 13.1055C40.4794 12.4017 40.8245 11.5039 40.8245 10.5268V9.72499C40.8245 7.47174 38.9915 5.6387 36.7382 5.6387C34.485 5.6387 32.6519 7.47174 32.6519 9.72499V10.5268C32.6519 11.5042 32.9972 12.4024 33.5719 13.1063C32.8716 13.2997 32.2053 13.602 31.598 14.0016V13.3642C31.598 10.7122 29.4405 8.55455 26.7885 8.55455H26.221C26.9017 7.72592 27.311 6.66623 27.311 5.51266V4.79979C27.3109 2.15332 25.1578 0 22.5111 0C19.8645 0 17.7113 2.15332 17.7113 4.79987V5.51275C17.7113 6.66631 18.1206 7.72601 18.8014 8.55464H18.2338C15.5818 8.55464 13.4243 10.7123 13.4243 13.3643V14.0169C12.811 13.6099 12.137 13.3021 11.4281 13.1064C12.0027 12.4024 12.3481 11.5043 12.3481 10.5269V9.72508C12.3481 7.47183 10.515 5.63879 8.26179 5.63879C6.00854 5.63879 4.1755 7.47183 4.1755 9.72508V10.5269C4.1755 11.504 4.52056 12.4017 5.09475 13.1056C2.16131 13.9146 0 16.6048 0 19.7919V26.9854C0 28.5139 1.24347 29.7573 2.77198 29.7573H3.50929V44.121C3.50929 44.6063 3.90278 44.9999 4.3882 44.9999H8.24993C8.25177 44.9999 8.25353 44.9996 8.25537 44.9996C8.25722 44.9996 8.25898 44.9999 8.26082 44.9999H12.1226C12.608 44.9999 13.0015 44.6063 13.0015 44.121V29.7573H13.7515C15.2749 29.7573 16.515 28.5219 16.5231 27.0003C16.808 27.1091 17.1058 27.1913 17.4135 27.2444V44.121C17.4135 44.6063 17.807 44.9999 18.2924 44.9999H26.7299C27.2153 44.9999 27.6088 44.6063 27.6088 44.121V35.6002C27.6088 35.1149 27.2153 34.7213 26.7299 34.7213C26.2444 34.7213 25.851 35.1149 25.851 35.6002V43.2421H23.39V28.4155C23.39 27.9302 22.9965 27.5366 22.5111 27.5366C22.0257 27.5366 21.6322 27.9302 21.6322 28.4155V43.2421H19.1713V24.5703H25.851V28.8034C25.851 29.2887 26.2444 29.6823 26.7299 29.6823C27.2153 29.6823 27.6088 29.2887 27.6088 28.8034V27.2445C27.9085 27.1927 28.1989 27.1138 28.4771 27.0091C28.49 28.5266 29.728 29.7573 31.2485 29.7573H31.9985V44.121C31.9985 44.6063 32.392 44.9999 32.8774 44.9999H36.7392C36.741 44.9999 36.7428 44.9996 36.7446 44.9996C36.7465 44.9996 36.7482 44.9999 36.7501 44.9999H40.6118C41.0972 44.9999 41.4907 44.6063 41.4907 44.121V29.7573H42.228C43.7565 29.7573 45 28.5139 45 26.9854V19.7919C44.9999 16.6048 42.8386 13.9146 39.9053 13.1055ZM5.93322 9.72499C5.93322 8.44109 6.9778 7.39651 8.2617 7.39651C9.54561 7.39651 10.5902 8.44109 10.5902 9.72499V10.5268C10.5902 11.8107 9.54561 12.8553 8.2617 12.8553C6.9778 12.8553 5.93322 11.8107 5.93322 10.5268V9.72499ZM11.2437 43.2421H9.13973V29.707C9.13973 29.2216 8.74624 28.8281 8.26082 28.8281C7.77541 28.8281 7.38192 29.2216 7.38192 29.707V30.6298C7.37542 30.6729 7.37093 30.7167 7.37093 30.7617V43.2421H5.2671V26.2787H11.2437V43.2421ZM14.7655 26.9853C14.7656 27.5445 14.3107 27.9995 13.7514 27.9995H13.0014V23.3215C13.0014 22.8361 12.6079 22.4426 12.1225 22.4426C11.637 22.4426 11.2436 22.8361 11.2436 23.3215V24.5208H5.26701V20.5238C5.26701 20.0385 4.87353 19.6449 4.38811 19.6449C3.90269 19.6449 3.5092 20.0385 3.5092 20.5238V27.9994H2.77189C2.21273 27.9994 1.75772 27.5444 1.75772 26.9853V19.7918C1.75772 16.9362 4.08093 14.613 6.93649 14.613H9.58674C11.0444 14.613 12.4427 15.2326 13.4229 16.3128C13.4232 16.3133 13.4237 16.3136 13.4241 16.314V22.5062C13.4241 23.7963 13.9357 24.9685 14.7655 25.8332V26.9853ZM22.5111 1.75781C24.1885 1.75781 25.5531 3.1224 25.5531 4.79979V5.51266C25.5531 7.18997 24.1885 8.55455 22.5111 8.55455C20.8337 8.55455 19.4691 7.18997 19.4691 5.51266V4.79979C19.4691 3.1224 20.8337 1.75781 22.5111 1.75781ZM29.8401 22.5064C29.8401 23.905 28.8942 25.086 27.6087 25.4452V13.3643C27.6088 12.8789 27.2153 12.4854 26.7299 12.4854C26.2444 12.4854 25.851 12.8789 25.851 13.3643V22.8125H19.1713V13.3643C19.1713 12.8789 18.7778 12.4854 18.2924 12.4854C17.807 12.4854 17.4135 12.8789 17.4135 13.3643V25.4452C16.128 25.0859 15.182 23.9049 15.182 22.5063V13.3643C15.182 11.6815 16.551 10.3124 18.2338 10.3124H21.6029V12.7142C21.6029 13.1996 21.9963 13.5931 22.4818 13.5931C22.9672 13.5931 23.3607 13.1996 23.3607 12.7142V10.3124H26.7884C28.4711 10.3124 29.8401 11.6814 29.8401 13.3643V22.5064ZM34.4097 9.72499C34.4097 8.44109 35.4543 7.39651 36.7382 7.39651C38.0221 7.39651 39.0667 8.44109 39.0667 9.72499V10.5268C39.0667 11.8107 38.0221 12.8553 36.7382 12.8553C35.4543 12.8553 34.4097 11.8107 34.4097 10.5268V9.72499ZM39.7328 43.2421H37.629V30.7617C37.629 30.7167 37.6245 30.673 37.618 30.6298V29.707C37.618 29.2216 37.2245 28.8281 36.7391 28.8281C36.2537 28.8281 35.8602 29.2216 35.8602 29.707V43.2421H33.7563V26.2787H39.7328V43.2421ZM42.2279 27.9995H41.4906V20.5239C41.4906 20.0386 41.0971 19.645 40.6117 19.645C40.1263 19.645 39.7328 20.0386 39.7328 20.5239V24.5209H33.7563V23.3216C33.7563 22.8362 33.3628 22.4426 32.8774 22.4426C32.3919 22.4426 31.9985 22.8362 31.9985 23.3216V27.9996H31.2484C30.6892 27.9996 30.2342 27.5446 30.2342 26.9854V25.8568C31.0773 24.99 31.5979 23.8081 31.5979 22.5064V16.2909C32.5772 15.2246 33.9655 14.6132 35.413 14.6132H38.0632C40.9188 14.6132 43.242 16.9364 43.242 19.792V26.9854H43.2421C43.2421 27.5445 42.7872 27.9995 42.2279 27.9995Z" fill="#363636"/>
<path d="M27.3518 31.5219C27.1884 31.3576 26.9616 31.2644 26.7305 31.2644C26.4993 31.2644 26.2726 31.3577 26.1091 31.5219C25.9447 31.6854 25.8516 31.9122 25.8516 32.1433C25.8516 32.3745 25.9447 32.6012 26.1091 32.7647C26.2726 32.9281 26.4993 33.0222 26.7305 33.0222C26.9616 33.0222 27.1875 32.9282 27.3518 32.7647C27.5153 32.6012 27.6094 32.3745 27.6094 32.1433C27.6094 31.9122 27.5153 31.6854 27.3518 31.5219Z" fill="#363636"/>
<path d="M23.1028 15.3773C22.9394 15.2138 22.7135 15.1198 22.4814 15.1198C22.2503 15.1198 22.0235 15.2137 21.8601 15.3773C21.6966 15.5407 21.6025 15.7674 21.6025 15.9987C21.6025 16.2298 21.6966 16.4566 21.8601 16.62C22.0235 16.7835 22.2503 16.8776 22.4814 16.8776C22.7135 16.8776 22.9394 16.7835 23.1028 16.62C23.2672 16.4566 23.3603 16.2298 23.3603 15.9987C23.3603 15.7674 23.2672 15.5407 23.1028 15.3773Z" fill="#363636"/>
<path d="M52.8594 9.68555C53.0879 9.68555 53.3164 9.59766 53.4922 9.42188C53.8438 9.07031 53.8438 8.49023 53.4922 8.13867L50.4863 5.13281L53.5098 2.10937C53.8613 1.75781 53.8613 1.17773 53.5098 0.826172C53.1582 0.474609 52.5781 0.474609 52.2266 0.826172L49.2031 3.84961L46.1797 0.826172C45.8281 0.474609 45.248 0.474609 44.8965 0.826172C44.5449 1.17773 44.5449 1.75781 44.8965 2.10937L47.9199 5.13281L44.8965 8.13867C44.5449 8.49023 44.5449 9.07031 44.8965 9.42188C45.0723 9.59766 45.3008 9.68555 45.5293 9.68555C45.7578 9.68555 45.9863 9.59766 46.1621 9.42188L49.1855 6.39844L52.209 9.42188C52.4023 9.59766 52.6309 9.68555 52.8594 9.68555Z" fill="#363636"/>
</svg>
