<svg width="59" height="54" viewBox="0 0 59 54" fill="none" xmlns="http://www.w3.org/2000/svg">
<path d="M39.75 48.5C50.1053 48.5 58.5 40.1053 58.5 29.75C58.5 19.3947 50.1053 11 39.75 11C29.3947 11 21 19.3947 21 29.75C21 40.1053 29.3947 48.5 39.75 48.5Z" fill="#FFE24F"/>
<path d="M51.4688 37.4767V7.43555C51.4688 5.66177 50.0256 4.21875 48.252 4.21875H40.6055V3.16406C40.6055 1.4194 39.1861 0 37.4414 0C35.6967 0 34.2773 1.4194 34.2773 3.16406V4.21875H17.1914V3.16406C17.1914 1.4194 15.772 0 14.0273 0C12.2827 0 10.8633 1.4194 10.8633 3.16406V4.21875H3.2168C1.44313 4.21875 0 5.66177 0 7.43555V46.5645C0 48.3382 1.44313 49.7812 3.2168 49.7812H17.5923C18.1747 49.7812 18.647 49.3091 18.647 48.7266C18.647 48.1441 18.1747 47.6719 17.5923 47.6719H3.2168C2.60613 47.6719 2.10938 47.1751 2.10938 46.5645V7.43555C2.10938 6.82488 2.60613 6.32812 3.2168 6.32812H10.8633V7.38281C10.8633 9.12748 12.2827 10.5469 14.0273 10.5469C15.772 10.5469 17.1914 9.12748 17.1914 7.38281V6.32812H34.2773V7.38281C34.2773 9.12748 35.6967 10.5469 37.4414 10.5469C39.1861 10.5469 40.6055 9.12748 40.6055 7.38281V6.32812H48.252C48.8626 6.32812 49.3594 6.82488 49.3594 7.43555V12.6562H9.49219C8.90979 12.6562 8.4375 13.1284 8.4375 13.7109C8.4375 14.2934 8.90979 14.7656 9.49219 14.7656H49.3594V35.6945C48.4614 35.1282 47.4668 34.7021 46.4062 34.4467V18.7734C46.4062 18.1909 45.934 17.7188 45.3516 17.7188H6.11719C5.53479 17.7188 5.0625 18.1909 5.0625 18.7734V43.6641C5.0625 44.2466 5.53479 44.7188 6.11719 44.7188H34.1926C34.2581 45.7539 34.4829 46.7464 34.8433 47.6719H26.0297C25.4473 47.6719 24.975 48.1441 24.975 48.7266C24.975 49.3091 25.4473 49.7812 26.0297 49.7812H35.9757C37.7715 52.3309 40.7373 54 44.0859 54C49.5526 54 54 49.5526 54 44.0859C54 41.549 53.0417 39.2321 51.4688 37.4767ZM15.082 7.38281C15.082 7.96437 14.6089 8.4375 14.0273 8.4375C13.4458 8.4375 12.9727 7.96437 12.9727 7.38281V3.16406C12.9727 2.58251 13.4458 2.10938 14.0273 2.10938C14.6089 2.10938 15.082 2.58251 15.082 3.16406V7.38281ZM38.4961 7.38281C38.4961 7.96437 38.023 8.4375 37.4414 8.4375C36.8599 8.4375 36.3867 7.96437 36.3867 7.38281V3.16406C36.3867 2.58251 36.8599 2.10938 37.4414 2.10938C38.023 2.10938 38.4961 2.58251 38.4961 3.16406V7.38281ZM44.0859 34.1719C43.5956 34.1719 43.1136 34.2083 42.6421 34.2773H38.5594V28.1602H44.2969V34.1745C44.2267 34.173 44.1565 34.1719 44.0859 34.1719ZM34.2819 42.6094H30.7125V36.3867H36.45V37.7698C35.3254 39.1271 34.555 40.788 34.2819 42.6094ZM7.17188 28.1602H12.9094V34.2773H7.17188V28.1602ZM15.0187 28.1602H20.7563V34.2773H15.0187V28.1602ZM30.7125 28.1602H36.45V34.2773H30.7125V28.1602ZM28.6031 34.2773H22.8656V28.1602H28.6031V34.2773ZM30.7125 26.0508V19.8281H36.45V26.0508H30.7125ZM28.6031 26.0508H22.8656V19.8281H28.6031V26.0508ZM20.7563 26.0508H15.0187V19.8281H20.7563V26.0508ZM20.7563 36.3867V42.6094H15.0187V36.3867H20.7563ZM22.8656 36.3867H28.6031V42.6094H22.8656V36.3867ZM44.2969 26.0508H38.5594V19.8281H44.2969V26.0508ZM12.9094 19.8281V26.0508H7.17188V19.8281H12.9094ZM7.17188 36.3867H12.9094V42.6094H7.17188V36.3867ZM44.0859 51.8906C39.7824 51.8906 36.2812 48.3895 36.2812 44.0859C36.2812 39.7824 39.7824 36.2812 44.0859 36.2812C48.3895 36.2812 51.8906 39.7824 51.8906 44.0859C51.8906 48.3895 48.3895 51.8906 44.0859 51.8906Z" fill="#363636"/>
<path d="M47.1371 41.5296L43.875 44.7917L42.4236 43.3402C42.0118 42.9283 41.3442 42.9283 40.9319 43.3402C40.5201 43.752 40.5201 44.4199 40.9319 44.8317L43.1292 47.029C43.327 47.2267 43.5952 47.3379 43.8749 47.3379C44.1546 47.3379 44.4228 47.2267 44.6207 47.029L48.6285 43.0211C49.0404 42.6093 49.0404 41.9415 48.6285 41.5295C48.2167 41.1178 47.549 41.1178 47.1371 41.5296Z" fill="#363636"/>
<path d="M21.8105 47.6719C21.5332 47.6719 21.2611 47.7847 21.0649 47.9809C20.8688 48.1771 20.7559 48.4492 20.7559 48.7266C20.7559 49.0039 20.8687 49.2761 21.0649 49.4722C21.2611 49.6684 21.5332 49.7812 21.8105 49.7812C22.0879 49.7812 22.36 49.6684 22.5562 49.4722C22.7523 49.2761 22.8652 49.0039 22.8652 48.7266C22.8652 48.4492 22.7524 48.1771 22.5562 47.9809C22.36 47.7847 22.0879 47.6719 21.8105 47.6719Z" fill="#363636"/>
<path d="M6.019 14.4566C6.21527 14.2604 6.32812 13.9883 6.32812 13.7109C6.32812 13.4336 6.21527 13.1614 6.019 12.9653C5.82293 12.7691 5.55082 12.6562 5.27344 12.6562C4.99489 12.6562 4.72395 12.7691 4.52777 12.9653C4.3316 13.1614 4.21875 13.4336 4.21875 13.7109C4.21875 13.9883 4.3315 14.2604 4.52777 14.4566C4.72405 14.6528 4.99489 14.7656 5.27344 14.7656C5.55082 14.7656 5.82293 14.6528 6.019 14.4566Z" fill="#363636"/>
</svg>
