<svg width="55" height="55" viewBox="0 0 55 55" fill="none" xmlns="http://www.w3.org/2000/svg">
<path d="M22.25 39.625C32.6053 39.625 41 31.2303 41 20.875C41 10.5197 32.6053 2.125 22.25 2.125C11.8947 2.125 3.5 10.5197 3.5 20.875C3.5 31.2303 11.8947 39.625 22.25 39.625Z" fill="#FFE24F"/>
<g clip-path="url(#clip0)">
<path d="M25.3791 37.3039C25.7991 36.8839 25.7991 36.2041 25.3791 35.7841C24.9587 35.3653 24.2775 35.3653 23.8567 35.7841C23.4371 36.2041 23.4371 36.8839 23.8567 37.3039C24.2775 37.7227 24.9587 37.7227 25.3791 37.3039Z" fill="#363636"/>
<path d="M20.2832 11.8131C20.2832 18.3268 25.5929 23.6265 32.1194 23.6265C38.6458 23.6265 43.9555 18.3268 43.9555 11.8131C43.9555 5.29934 38.6458 0 32.1194 0C25.5929 0 20.2832 5.29934 20.2832 11.8131ZM41.8037 11.8131C41.8037 17.1426 37.4593 21.4785 32.1194 21.4785C26.7794 21.4785 22.435 17.1426 22.435 11.8131C22.435 6.48392 26.7794 2.14802 32.1194 2.14802C37.4593 2.14802 41.8037 6.48392 41.8037 11.8131Z" fill="#363636"/>
<path d="M12.4477 54.6825C12.8648 55.1021 13.5438 55.1067 13.9663 54.6913L19.1831 49.5619C20.0694 48.6774 20.3389 47.3677 19.9491 46.2293L21.0713 45.1492C21.6755 44.5668 22.4709 44.2458 23.3118 44.2458H37.6164C40.1541 44.2458 42.5527 43.2731 44.3711 41.5069C44.446 41.4343 43.8031 42.1901 54.1299 29.8718C55.6616 28.0633 55.4324 25.3475 53.6187 23.8172C51.8162 22.3011 49.1162 22.5189 47.5803 24.2964L41.2309 30.8096C40.4291 29.8248 39.2065 29.2109 37.8854 29.2109H25.8866C24.1792 28.498 22.3675 28.1371 20.4982 28.1371C15.3168 28.1371 10.7924 30.5256 8.3644 35.0037C7.34148 34.8103 6.26263 35.1191 5.48651 35.8937L0.367674 41.0177C-0.0502416 41.436 -0.0510825 42.1129 0.365992 42.5325L12.4477 54.6825ZM20.4978 30.2847C22.1459 30.2847 23.7394 30.6158 25.2349 31.2687C25.3711 31.3283 25.5178 31.3589 25.6663 31.3589H37.8854C39.0522 31.3589 40.0377 32.3085 40.0377 33.5065C40.0377 34.6911 39.0723 35.6545 37.8854 35.6545H29.1063C28.5122 35.6545 28.0304 36.1354 28.0304 36.7283C28.0304 37.3217 28.5122 37.8021 29.1063 37.8021H37.8854C40.2588 37.8021 42.1895 35.8753 42.1895 33.5065C42.1895 33.3177 42.176 33.1305 42.1516 32.9451C48.2938 26.6437 49.1599 25.7583 49.1969 25.7142C49.9638 24.8108 51.3252 24.6962 52.2308 25.4583C53.1373 26.2232 53.252 27.5811 52.4831 28.4896L42.8319 40.0047C41.4226 41.355 39.5722 42.0982 37.6164 42.0982H23.3118C21.9101 42.0982 20.5832 42.6332 19.5766 43.6038L18.6622 44.4845L10.2324 36.0716C12.2026 32.3828 15.8995 30.2847 20.4978 30.2847ZM7.00933 37.4115C7.36418 37.0573 7.90907 36.9935 8.3417 37.2604C8.52795 37.3737 7.99316 36.8878 17.6615 46.5239C18.0917 46.9531 18.0685 47.6371 17.6674 48.0374L13.22 52.4103L2.64729 41.7776L7.00933 37.4115Z" fill="#363636"/>
<path d="M32.9128 6.995C33.5328 6.995 34.0378 7.05 34.4278 7.16C34.8278 7.26 35.2028 7.46 35.5528 7.76C36.2328 8.36 36.5728 9.175 36.5728 10.205C36.5728 11.095 36.2978 11.815 35.7478 12.365C35.1378 12.955 34.2928 13.25 33.2128 13.25H31.9528V14.195H34.7128V15.545H31.9528V17H30.0028V15.545H28.9528V14.195H30.0028V13.25H28.9528V11.615H30.0028V6.995H32.9128ZM31.9528 8.675V11.615H32.7478C33.3178 11.615 33.7428 11.51 34.0228 11.3C34.3828 11.02 34.5628 10.63 34.5628 10.13C34.5628 9.64 34.3778 9.26 34.0078 8.99C33.7078 8.78 33.2478 8.675 32.6278 8.675H31.9528Z" fill="#363636"/>
</g>
<defs>
<clipPath id="clip0">
<rect width="55" height="55" fill="white"/>
</clipPath>
</defs>
</svg>
