<svg width="105" height="105" viewBox="0 0 105 105" fill="none" xmlns="http://www.w3.org/2000/svg">
<path d="M52.4859 1.23047C48.0357 1.23047 43.5855 2.31738 39.7096 4.51172C32.7574 8.44922 27.8355 15.8525 27.0152 23.8096C26.2564 31.2129 28.8404 38.5342 31.5269 45.4863C34.6236 53.4639 52.4654 92.4287 52.4654 92.4287C52.4654 92.4287 70.4303 53.1768 73.5474 45.0762C76.234 38.0625 78.818 30.6797 77.8951 23.2354C76.8287 14.6016 70.7789 6.84961 62.8014 3.38379C59.5816 1.94824 56.0338 1.23047 52.4859 1.23047ZM52.4859 38.9238C45.7183 38.9238 40.2223 33.4277 40.2223 26.6602C40.2223 19.8926 45.7183 14.3965 52.4859 14.3965C59.2535 14.3965 64.7496 19.8926 64.7496 26.6602C64.7496 33.4277 59.274 38.9238 52.4859 38.9238Z" fill="#FFCF03"/>
<path d="M59.9258 81.4365C59.085 83.2617 58.3057 84.9639 57.5879 86.5019C65.1348 87.2402 70.6309 89.6191 70.6309 92.4082C70.6309 95.8125 62.5098 98.5605 52.5019 98.5605C42.4941 98.5605 34.373 95.8125 34.373 92.4082C34.373 89.6191 39.8691 87.2402 47.3955 86.5019C46.6777 84.9844 45.8779 83.2617 45.0576 81.4365C32.7119 82.7285 23.627 87.1582 23.627 92.4082C23.627 98.6836 36.5674 103.77 52.5019 103.77C68.4365 103.77 81.3769 98.6836 81.3769 92.4082C81.3769 87.1582 72.2715 82.7285 59.9258 81.4365Z" fill="#FFCF03"/>
</svg>
