<svg width="175" height="34" viewBox="0 0 175 34" fill="none" xmlns="http://www.w3.org/2000/svg">
<path d="M11.6 25V21.688H10.952C8.144 21.688 5.888 21.088 4.184 19.888C1.784 18.184 0.584 15.64 0.584 12.256C0.584 8.872 1.784 6.328 4.184 4.624C5.888 3.424 8.144 2.824 10.952 2.824H11.6V0.0159998H16.28V2.824H16.928C19.736 2.824 21.992 3.424 23.696 4.624C26.096 6.328 27.296 8.872 27.296 12.256C27.296 15.64 26.096 18.184 23.696 19.888C21.992 21.088 19.736 21.688 16.928 21.688H16.28V25H11.6ZM11.6 17.656V6.856H10.88C9.44 6.856 8.264 7.192 7.352 7.864C6.056 8.824 5.408 10.288 5.408 12.256C5.408 14.152 6.056 15.616 7.352 16.648C8.216 17.32 9.392 17.656 10.88 17.656H11.6ZM16.28 6.856V17.656H17C18.512 17.656 19.7 17.32 20.564 16.648C21.836 15.664 22.472 14.2 22.472 12.256C22.472 10.264 21.836 8.8 20.564 7.864C19.652 7.192 18.464 6.856 17 6.856H16.28ZM30.9708 9.412H35.3628V19.024L42.5628 9.412H46.9548V25H42.5628V15.388L35.3628 25H30.9708V9.412ZM51.1153 25V9.412H55.5073V14.92H61.6273V9.412H66.0193V25H61.6273V18.664H55.5073V25H51.1153Z" fill="#FFCF03"/>
<path d="M70.8532 0.987998H77.8372C79.3252 0.987998 80.5372 1.12 81.4732 1.384C82.4332 1.624 83.3332 2.104 84.1732 2.824C85.8052 4.264 86.6212 6.196 86.6212 8.62C86.6212 10.876 85.9612 12.664 84.6412 13.984C83.2252 15.4 81.1972 16.108 78.5572 16.108H75.5332V25H70.8532V0.987998ZM75.5332 5.02V12.076H77.4412C78.8092 12.076 79.8292 11.824 80.5012 11.32C81.3652 10.648 81.7972 9.712 81.7972 8.512C81.7972 7.336 81.3532 6.424 80.4652 5.776C79.7452 5.272 78.6412 5.02 77.1532 5.02H75.5332ZM100.352 19.996L104.384 20.644C104.216 21.076 103.988 21.508 103.7 21.94C103.436 22.348 103.016 22.864 102.44 23.488C101.864 24.088 101.084 24.58 100.1 24.964C99.1161 25.324 97.9881 25.504 96.7161 25.504C94.2681 25.504 92.2761 24.772 90.7401 23.308C89.1081 21.772 88.2921 19.744 88.2921 17.224C88.2921 14.728 89.0841 12.688 90.6681 11.104C92.1561 9.64 94.1121 8.908 96.5361 8.908C99.1761 8.908 101.204 9.76 102.62 11.464C103.868 12.952 104.492 14.992 104.492 17.584V17.944H92.8281C92.8281 19 93.0801 19.876 93.5841 20.572C94.3041 21.556 95.3481 22.048 96.7161 22.048C98.3481 22.048 99.5601 21.364 100.352 19.996ZM92.9721 15.136H100.352C100.184 14.128 99.7401 13.36 99.0201 12.832C98.3241 12.28 97.5321 12.004 96.6441 12.004C95.7801 12.004 94.9881 12.28 94.2681 12.832C93.5721 13.384 93.1401 14.152 92.9721 15.136ZM119.629 9.844V14.164C118.645 13.252 117.445 12.796 116.029 12.796C114.637 12.796 113.557 13.228 112.789 14.092C112.021 14.932 111.637 15.964 111.637 17.188C111.637 18.46 112.057 19.516 112.897 20.356C113.761 21.196 114.853 21.616 116.173 21.616C117.469 21.616 118.621 21.16 119.629 20.248V24.532C118.333 25.18 116.989 25.504 115.597 25.504C113.173 25.504 111.169 24.748 109.585 23.236C107.929 21.676 107.101 19.684 107.101 17.26C107.101 14.62 108.001 12.508 109.801 10.924C111.313 9.58 113.185 8.908 115.417 8.908C116.929 8.908 118.333 9.22 119.629 9.844ZM122.616 33.244L128.34 22.66L120.924 9.412H126.036L130.86 18.268L135.18 9.412H140.148L127.584 33.244H122.616ZM146.703 22.984V33.244H142.311V9.412H146.703V11.428C147.879 9.748 149.571 8.908 151.779 8.908C153.939 8.908 155.715 9.604 157.107 10.996C158.667 12.556 159.447 14.62 159.447 17.188C159.447 19.828 158.631 21.928 156.999 23.488C155.559 24.832 153.795 25.504 151.707 25.504C149.619 25.504 147.951 24.664 146.703 22.984ZM150.591 12.796C149.463 12.796 148.515 13.144 147.747 13.84C146.763 14.68 146.271 15.796 146.271 17.188C146.271 18.604 146.751 19.732 147.711 20.572C148.503 21.268 149.463 21.616 150.591 21.616C151.767 21.616 152.751 21.244 153.543 20.5C154.455 19.66 154.911 18.556 154.911 17.188C154.911 15.844 154.467 14.752 153.579 13.912C152.763 13.168 151.767 12.796 150.591 12.796ZM174.578 9.844V14.164C173.594 13.252 172.394 12.796 170.978 12.796C169.586 12.796 168.506 13.228 167.738 14.092C166.97 14.932 166.586 15.964 166.586 17.188C166.586 18.46 167.006 19.516 167.846 20.356C168.71 21.196 169.802 21.616 171.122 21.616C172.418 21.616 173.57 21.16 174.578 20.248V24.532C173.282 25.18 171.938 25.504 170.546 25.504C168.122 25.504 166.118 24.748 164.534 23.236C162.878 21.676 162.05 19.684 162.05 17.26C162.05 14.62 162.95 12.508 164.75 10.924C166.262 9.58 168.134 8.908 170.366 8.908C171.878 8.908 173.282 9.22 174.578 9.844Z" fill="#363636"/>
</svg>
